<svg viewBox="0 0 2781.15 2171.12" xmlns="http://www.w3.org/2000/svg"><g transform="translate(-26.75 -432.15)"><path d="m1119.46 1641.14c-4.57-1.94-9.12-3.92-13.72-5.81a508.83 508.83 0 0 1 -107.07-59.59 478.08 478.08 0 0 1 -73.27-65.91 498.74 498.74 0 0 1 -87-134.31 465.47 465.47 0 0 1 -32.25-105c-3.23-18-6.26-36.1-7-54.47-.17-4.17-1.25-8.3-1.92-12.45l-.21-34.25c.06-4.59.17-9.18.17-13.76 0-57.76-.23-115.51.1-173.26.19-33.22-1.84-66.49 2-99.64.81-14.27 3.41-28.3 5.71-42.36a66.54 66.54 0 0 0 1.23-13.41c2.56-4.46 2.41-9.61 3.65-14.41 7.68-29.69 17-58.76 29.26-87 17.21-39.66 40-75.86 66.47-109.8 14.18-18.16 30.74-34.17 47.19-50.25 29.22-28.58 62.22-52 97.69-72.14 19.72-11.21 40.34-20.33 61.24-29a78.79 78.79 0 0 1 7.65-2.36 4.27 4.27 0 0 0 4.55-2c7.72-2.36 14.87-6.5 23.08-7.3a4.31 4.31 0 0 0 4.64-1.85c.76-.07 1.51-.17 2.26-.3a4.77 4.77 0 0 0 4.78-1.89l4.43-.56a4.5 4.5 0 0 0 4.73-1.79l4.48-.54a4.45 4.45 0 0 0 4.74-1.75l4.47-.47a4.63 4.63 0 0 0 4.8-1.78l6.71-.62a4.45 4.45 0 0 0 4.79-1.69l6.74-.52c2.62.47 5.11.44 7-1.82l6.79-.44c3.3.33 6.65.93 9.32-1.87l9.11-.44c4 .21 8.16 1.3 11.65-1.82l18.28-.48c2.67.12 5.34.33 8 .33q142.8 0 285.59 0c2.67 0 5.34-.22 8-.33l18.26.49c3.5 3.12 7.66 2 11.68 1.83l9.09.43c2.67 2.81 6 2.17 9.33 1.9l6.76.41c1.92 2.27 4.44 2.27 7.06 1.85l6.7.5a4.57 4.57 0 0 0 4.82 1.72l6.67.6a4.77 4.77 0 0 0 4.84 1.8l4.43.45a4.62 4.62 0 0 0 4.78 1.78l4.44.51a4.69 4.69 0 0 0 4.77 1.84l4.39.51a5 5 0 0 0 4.81 1.93 20.51 20.51 0 0 0 2.21.27 4.58 4.58 0 0 0 4.7 1.9l2.29.34a4.34 4.34 0 0 0 4.62 1.89l9.23 2.68a4.32 4.32 0 0 0 4.58 2c.75.16 1.51.29 2.27.38a4.59 4.59 0 0 0 4.64 2c25.58 8.42 49.3 20.94 72.81 33.76a397.36 397.36 0 0 1 53.49 35.52c13.88 10.8 27.51 21.89 40.21 34.13 21 20.22 40.76 41.49 58 65.06a526.41 526.41 0 0 1 36.59 56.9 506.9 506.9 0 0 1 37 86.31c4.28 13 8.4 26.2 10.68 39.83a59.9 59.9 0 0 0 2.36 7.67 19.57 19.57 0 0 0 -.07 2.3c.77 4.91.92 10 2.47 14.67 1.94 5.84.46 12.36 3.93 17.78.17 4.2 0 8.44.57 12.59a442.79 442.79 0 0 1 3.87 55.86c.22 67.28.09 134.56.11 201.84 0 5 .15 9.93.24 14.9v46.84c-1.59 11.76-1.58 23.66-2.77 35.41-5.27 52.41-17.74 103-39 151.43-9.86 22.49-20.89 44.32-34.18 64.92-10.55 16.38-21.43 32.6-34 47.55-2.21 2.62-4.16 5.49-6.44 8-3.28 3.69-6 8-10.84 10 .2-7.19.27-14.31-1.22-21.49-1.68-8.13-2.4-16.46-3.54-24.7 5.1-6.67 10.44-13.17 15.25-20a447.69 447.69 0 0 0 49.25-91.63 454.44 454.44 0 0 0 30-123c.35-6.08 0-12.33 1.22-18.22 1.86-8.75 1.67-17.41 1.09-26.16.13-2.3.37-4.59.37-6.88q0-132.18-.08-264.35c0-3.06-.14-6.13-.44-9.17-1.34-13.68-2.76-27.34-4.15-41-.76-4.79-1.16-9.67-2.38-14.34-1.61-6.12-1.46-12.66-4.45-18.43-1.69-13.73-5.71-26.92-9.81-40a447 447 0 0 0 -45-99.22c-16.74-27.55-35.71-53.5-58.42-76.55-6.46-6.55-13-13-19.51-19.54-16.29-16.31-34.44-30.36-53.24-43.61a454.83 454.83 0 0 0 -76-42.78 384.91 384.91 0 0 0 -60.49-21.68c-23-6-45.92-11.42-69.64-13.81-19-1.92-38-4-57.16-4-78.24.09-156.47 0-234.7.1-16.44 0-32.84-.23-49.33 1.54-14.05 1.5-28.1 2.79-42.1 4.87a423.22 423.22 0 0 0 -63.58 14.91 453.19 453.19 0 0 0 -81.25 34.73 404.78 404.78 0 0 0 -44 27.1c-10.88 7.84-21.76 15.64-31.8 24.54-11.16 9.9-23 19.21-33 30.19-9.52 10.45-19.35 20.65-28.29 31.69a490.58 490.58 0 0 0 -52.19 79.61c-9.87 18.65-17.57 38.28-25 58-2 5.33-4.58 10.59-4.58 16.52a147 147 0 0 0 -8.19 27.45c-1.61 7.4-4.19 14.71-3.53 22.49a41.73 41.73 0 0 0 -2.13 6.51c-1.1 6.77-1.93 13.59-2.9 20.38-2 14-3.87 28-3.89 42.11q-.2 126.84-.15 253.69c0 1.91.14 3.82.21 5.73a323.93 323.93 0 0 0 .34 34.7c.79 10.67 1.11 21.39 2.48 32 1.51 11.73 3.9 23.35 6.05 35 6.69 36.36 18.71 71 34.22 104.46a450.2 450.2 0 0 0 44.47 75 430.55 430.55 0 0 0 41.36 49.19c8.58 8.74 17.44 17.17 26.73 25.21a479.26 479.26 0 0 0 62.64 46.47 466.72 466.72 0 0 0 122 52.54 437.3 437.3 0 0 0 61.84 12.09 400.47 400.47 0 0 0 50.37 3.14c88.56-.27 177.12-.12 265.68-.14 7.29 0 14.57-.11 21.85-.24a79.75 79.75 0 0 0 8-.5c10.23-1.24 20.46-2.5 30.68-3.89 12.88-1.74 25.71-3.74 38.25-7.31l9.29.18 2.73 2.39a1.71 1.71 0 0 0 1.84 1.65l5 3a1.81 1.81 0 0 0 1.93 1.66l6.75 3.19c2.83 4.11 6.91 5.94 11.72 6.42l6.69 2.72a13.11 13.11 0 0 0 0 1.88c-2.46.39-5.08.38-6.8 2.67l-2.34.31a4.87 4.87 0 0 0 -4.71 1.92 7.31 7.31 0 0 0 -2.18.25c-2.56-.17-5.07-.14-6.88 2.12l-2.34.28c-2.55-.24-5-.21-6.83 2l-2.38.27c-2.57-.26-5.05-.22-6.9 2l-2.29.22c-2.61-.22-5.16-.21-7.08 2l-4.45.35c-3.24-.12-6.58-.69-9.18 2l-2.32.19c-4 .07-8.12-1-11.51 2.11a9.15 9.15 0 0 0 -2.28.14c-5.43.34-11.12-1.36-16.12 2.17l-4.63.23-16.8.06c-2.29 0-4.48.32-6.23 2l-11.48.19c-2.68-.07-5.36-.21-8-.21q-128.89 0-257.79 0c-5.76 0-11.51.13-17.26.2l-13.72-.23c-1.77-1.66-4-2-6.26-2l-16.86-.12-4.5-.19c-4.23-3.38-9.19-1.92-13.9-2.07l-4.45-.27c-2.68-2.71-6.07-2.12-9.36-2l-4.46-.31c-1.93-2.18-4.43-2.22-7-1.9l-4.53-.37c-1.89-2.22-4.4-2.24-7-2l-4.4-.39c-1.93-2.23-4.52-2.22-7.14-2.07a6.83 6.83 0 0 0 -2.11-.21c-1.91-2.25-4.49-2.24-7.11-2.12a6.14 6.14 0 0 0 -2-.2 5.11 5.11 0 0 0 -4.83-1.92 8.79 8.79 0 0 0 -2.28-.28c-1.82-2.29-4.37-2.29-7-2.19a5.67 5.67 0 0 0 -2-.24 5.41 5.41 0 0 0 -4.89-2 6.31 6.31 0 0 0 -2.07-.27 5.28 5.28 0 0 0 -4.83-2 6.66 6.66 0 0 0 -2.08-.29 5.37 5.37 0 0 0 -4.83-2 6 6 0 0 0 -2-.29 5.57 5.57 0 0 0 -5.03-2.12z" fill="#baad9e"/><path d="m1190.83 1973.55-4.64-3.29a2.29 2.29 0 0 0 -2.35-2l-.26-.2a2.12 2.12 0 0 0 -2.09-2l-.11-.43a2.1 2.1 0 0 0 -2.1-2.09l-.2-.2a2.19 2.19 0 0 0 -2-2.21l-9.83-14a2.22 2.22 0 0 0 -1.54-2.58 2.19 2.19 0 0 0 -.68-2.05c.26-1.8-.77-3-1.88-4.21-.14-.85-.29-1.69-.43-2.54a2.31 2.31 0 0 0 -1.21-3c-.28-1.88-.53-3.77-.85-5.65-5.24-31.27 5.51-55.9 30.93-74.42 1.22-.9 2.51-1.71 3.78-2.55 1.89.12 3.1-1.07 4.3-2.27l.26-.11c1.92.19 3.2-1 4.51-2.1 6.07-2 12.12-4.17 18.57-4.7 5.35.06 10.71.18 16.07.18q329.32 0 658.66 0c4.59 0 9.18-.2 13.76-.31l4.49.4c2.24 1 4.45 2.19 7 1.76l2.25.47c1.4 1 2.8 2 4.68 1.79 23 9.62 38.11 26.29 44.42 50.54 3 11.3 2.68 22.72.2 34.1-.41 1.87-.82 3.73-1.22 5.6-1.41 1.27-2.32 2.74-1.9 4.74a4.69 4.69 0 0 0 -.6 1.92 2.3 2.3 0 0 0 -1.51 2.76 4.22 4.22 0 0 0 -.76 1.9 2.29 2.29 0 0 0 -1.64 2.67 2.1 2.1 0 0 0 -.57 1.75 2.71 2.71 0 0 0 -1.95 2.81l-.24-.06a2.18 2.18 0 0 0 -1.82 2.45l-.21.32a1.91 1.91 0 0 0 -1.66 2l-12.27 12.27a1.76 1.76 0 0 0 -1.93 1.53l-.33.19a2.55 2.55 0 0 0 -2.61 1.88 7 7 0 0 0 -4.31 2.53c-2-.19-3.25.94-4.43 2.27l-.21.07a4.82 4.82 0 0 0 -4.65 2.07 8.55 8.55 0 0 0 -7 2.29l-1.09-.11-1 .39c-16.77 2.15-33.63 1.42-50.45 1.42q-309.23 0-618.45 0c-11.86 0-23.73.34-35.52-1.39l-2.31-.15h-.18c-2-1.52-4.12-2.6-6.74-2.19l-.27-.06c-1.24-1.15-2.49-2.28-4.39-2l-6.37-3a2.65 2.65 0 0 0 -2.82-1.84l-.3-.15a1.79 1.79 0 0 0 -2-1.21z" fill="#353434"/><path d="m2153.12 2377.33a19.12 19.12 0 0 1 3.28 1c10.16 5.15 16.73 12.51 17.66 24.68 1 13.61-5.26 22.62-15.92 29.48-2.2 1.42-4.94 2-7.42 2.95-2.69 0-5.37-.12-8.06-.12h-1440.96c-5.75 0-11.5.1-17.26.15a34.88 34.88 0 0 1 -18.07-11.29c-8.3-9.75-8.85-33.59 7.37-43.29 2.58-1.54 5.52-2.46 8.3-3.67a4.63 4.63 0 0 0 4.81-1.71h1438.42 23a4.88 4.88 0 0 0 4.85 1.82z" fill="#baad9e"/><path d="m1417.72 2214.17h384.28c4.6 0 9.21-.07 13.8.07a29.43 29.43 0 0 1 27.7 21.9c3 10.72.73 22.07-11.1 31.52-5.6 4.46-11.82 7-19.14 6.44-3-.23-6.14 0-9.2 0h-773.2c-3.84 0-7.67 0-11.51 0-17.15-.37-34.36-16.63-27.78-39.85 3.09-10.87 15.28-19.57 26.88-19.94 4.6-.15 9.2-.07 13.8-.07z" fill="#baad9e"/><path d="m884.59 1988.92-3.24-4.55a2 2 0 0 0 -1.56-2.08l-.18-.29a2.57 2.57 0 0 0 -1.84-2.57q-6-11.48-11.9-23a5.17 5.17 0 0 0 -1.87-4.74l-1.23-4.52a2.1 2.1 0 0 0 -1-2.58c-3-14.91-4.47-29.92-2.67-45.1.67-5.61 1.7-11.19 2.56-16.78.78-.5 1.12-1.13.56-2q.81-2.57 1.64-5.13a1.07 1.07 0 0 0 .51-1.71l11.17-23.38a2.21 2.21 0 0 0 1.63-2.33l.41-.72.81-.43v-.9a185 185 0 0 1 24.79-26.71 1.17 1.17 0 0 0 1.4-1.14l.79-.57a1.86 1.86 0 0 0 2-1.59l7.32-4.93c1.74.1 2.85-.89 3.76-2.21l.81-.38a2 2 0 0 0 2.31-1.49l7-3.21c1.69.29 2.82-.61 3.83-1.78l7.68-2.77a4.37 4.37 0 0 0 4.3-1.59l2.59-.51a7.9 7.9 0 0 0 6.57-1.81l5-.68c12.55-.64 25.11-1.94 37.65.33a16.27 16.27 0 0 0 3.41-.08l2.73.37a7.88 7.88 0 0 0 6.46 1.73l2.79.55a4 4 0 0 0 4.07 1.5l2.89.78a4.31 4.31 0 0 0 4.08 1.74c13.61 6.1 26.26 13.64 37.17 24a120.8 120.8 0 0 1 27.76 38.61c1.09 2.42 2.28 4.79 3.42 7.18a1.47 1.47 0 0 0 .84 2l1.56 4.88a1.47 1.47 0 0 0 .7 2.14c1 5.56 1.88 11.12 2.86 16.67a93.45 93.45 0 0 1 0 32.6c-.45 2.59-.49 5.24-.72 7.87a2 2 0 0 0 -.76 2.6q-.78 3.3-1.54 6.6a2.33 2.33 0 0 0 -1.11 2.7c-3.34 9.56-7.84 18.59-12.53 27.53a2.45 2.45 0 0 0 -1.76 2.52l-.24.42a4.84 4.84 0 0 0 -2.69 4 225.67 225.67 0 0 1 -20.53 21.75 1.59 1.59 0 0 0 -1.73 1.47l-.55.4a2.22 2.22 0 0 0 -2.23 1.79l-2.61 2a4.93 4.93 0 0 0 -4 2.71l-.38.2a2.51 2.51 0 0 0 -2.62 1.79l-25 11.66c-2.68-.21-5.18.2-7.2 2.18h-.94l-.9.27c-3.5-.35-6.87-.09-9.84 2.07h-.86l-.83.22h-35l-.79-.22h-.82c-2.92-2.23-6.29-2.38-9.75-2.1h.07a8.35 8.35 0 0 0 -7.19-2.11 172.35 172.35 0 0 1 -29.48-14 3 3 0 0 0 -2.69-1.92l-.2-.12a2.35 2.35 0 0 0 -2.27-1.69l-4.46-3.13a2.16 2.16 0 0 0 -2.16-1.84l-.49-.38a1.71 1.71 0 0 0 -1.8-1.59l-10-10a1.74 1.74 0 0 0 -1.61-1.81l-.36-.45a2.25 2.25 0 0 0 -1.77-2.21zm56.86-74.57-33.63 17.18c-3.06 1.57-6.21 3-9.15 4.82-4.76 2.89-6.35 6.75-4.34 11.67a89.3 89.3 0 0 0 6.81 13.27c2.56 4.12 6.46 5.09 11 3.25 2.84-1.14 5.54-2.63 8.27-4 12.3-6.24 24.56-12.55 36.89-18.71 4.1-2 5.29-1.22 5.31 3.62.08 13.8 0 27.6 0 41.4 0 2.69-.1 5.38.08 8.05.34 5.12 2.65 8.34 7.33 8.81a87.69 87.69 0 0 0 16 .06c4.33-.36 6.81-3.31 7.3-7.61a71.76 71.76 0 0 0 .24-8c0-13 .14-26.07 0-39.1-.13-10.47 1.46-9.4 9.51-5.27q16.88 8.65 33.77 17.25c2.39 1.22 4.75 2.52 7.24 3.51 4.65 1.87 8.46 1 11-3.13a85 85 0 0 0 6.75-13.28c2-5.13.54-8.91-4.15-11.74-2.94-1.78-6.1-3.22-9.17-4.78-11.23-5.74-22.48-11.47-33.59-17.13.66-2.61 2.39-3.36 4.1-4.22 6.17-3.09 12.31-6.23 18.44-9.37 6.48-3.31 13-6.47 19.39-10 5.93-3.33 7.19-7.24 4.52-13.47a87.49 87.49 0 0 0 -5.85-11.19c-2.58-4.21-6.2-5.5-10.83-4a53.34 53.34 0 0 0 -7.29 3.37q-15.39 7.77-30.74 15.61c-2.73 1.39-5.42 2.85-8.2 4.14-3 1.38-4.55.56-4.77-2.37-.11-1.52-.1-3.06-.11-4.59q0-19.56 0-39.1a76.82 76.82 0 0 0 -.18-8c-.52-5.18-2.91-7.74-8-8.15a102.49 102.49 0 0 0 -12.64-.13c-7.58.33-9.86 2.83-10.19 10.78-.1 2.3 0 4.6 0 6.9 0 13 .05 26.07 0 39.1 0 2.1.89 4.58-1.48 6.17-2.94.32-5.09-1.48-7.42-2.66-11.63-5.87-23.22-11.81-34.84-17.68a51 51 0 0 0 -7.3-3.34c-4.63-1.5-8.28-.15-10.86 3.95a83.78 83.78 0 0 0 -4.31 8.11c-4.94 10.09-4.06 12.93 6 18.15 10.87 5.65 21.86 11.07 32.73 16.73 2.31 1.07 5.21 1.68 6.36 5.12z" fill="#40af62"/><path d="m1471.58 2603.26c-3.07-.05-6.13-.15-9.2-.15h-444.11c-3.07 0-6.13.1-9.2.16-3.46-2.9-7.62-1.84-11.56-2.05a60.39 60.39 0 0 1 -7-3.94c-9.94-7.46-15.27-17.24-12.77-29.79 2.87-14.39 11.86-22.22 26.59-24.41 4.21.12 8.41.34 12.62.34q223.36 0 446.73 0c4.21 0 8.41-.21 12.62-.32a29.9 29.9 0 0 1 19.65 10.42c8.92 10.22 9.1 33.22-5 42.89-2.5 1.71-5.2 3.14-7.8 4.7-3.92.31-8.15-.77-11.57 2.15z" fill="#baad9e"/><path d="m1830.81 2543.1c8.64.38 14.88 4.92 20.32 11.25 7.89 9.17 8.3 32.28-4.77 41.34-2.81 1.94-5.79 3.64-8.7 5.45-3.94.28-8.13-.8-11.58 2.12q-68.94-.08-137.88-.15-25.85 0-51.7 0a50.67 50.67 0 0 1 -12.46-1.48c-15.61-3.91-23.69-19-23-30.64a27.83 27.83 0 0 1 8.06-18.58c5.3-5.2 11.2-9.32 19.06-9.33 3 .12 6.1.34 9.15.34q92.17 0 184.35 0c3.05 0 6.1-.21 9.15-.32z" fill="#baad9e"/><path d="m776.62 1203.38c-.16 4.2-.45 8.4-.46 12.6q0 72.3 0 144.6c0 3.06.12 6.14-.15 9.18-.42 4.78-3.29 7.49-7.21 7.19-3.57-.28-5.74-2.68-6-7-.2-3.05-.1-6.12-.1-9.18q0-73.45 0-146.9c0-4.2-.28-8.4-.44-12.6a235.36 235.36 0 0 0 0-34.11c.15-3.44.43-6.87.44-10.31q0-107.37 0-214.74c0-3.44-.27-6.88-.41-10.31.83-18.24.94-36.48-.05-54.71.16-4.6.45-9.19.45-13.78q.06-82.29 0-164.57c0-3.45-.06-6.92.26-10.34a6.33 6.33 0 0 1 6.16-5.72 6.49 6.49 0 0 1 6.58 5.3 75.35 75.35 0 0 1 .47 10.31q0 72.5 0 145c0 4.59.32 9.18.5 13.77a417.69 417.69 0 0 0 -.12 52c-.14 3.43-.39 6.86-.39 10.29q0 119.85 0 239.7c0 3.43.27 6.86.41 10.29a222.83 222.83 0 0 0 .06 34.04z" fill="#ec5b7e"/><path d="m2058.21 819.39c.11-9.56.32-19.11.33-28.67.05-31 0-62 0-93a76.42 76.42 0 0 1 .59-10.27c.37-2.68 3-4.39 5.9-4.44s5.64 1.52 6.12 4.18a57.29 57.29 0 0 1 .82 10.22q.07 56.82.06 113.64c0 4.2.31 8.4.47 12.59a2.2 2.2 0 0 0 0 2.07 183.49 183.49 0 0 0 -.05 32.73c-.14 3.43-.39 6.86-.39 10.3q0 107.22 0 214.45c0 3.43.3 6.86.46 10.29-.89 18.34-.84 36.67 0 55-.14 4.2-.41 8.41-.42 12.62q0 100.08 0 200.16a77 77 0 0 1 -.46 10.31 6.33 6.33 0 0 1 -6.49 5.35 6.05 6.05 0 0 1 -6.23-5.55c-.34-3.42-.28-6.89-.28-10.33q0-89.16 0-178.31c0-4.59-.32-9.18-.48-13.76.9-17.45.85-34.89 0-52.34.16-3.81.45-7.62.45-11.44q0-118.67 0-237.33c0-3.81-.26-7.63-.4-11.44a199.6 199.6 0 0 0 -.09-32.62 2.83 2.83 0 0 0 .12-2.1c-.06-.7-.05-1.53-.03-2.31z" fill="#ec5b7e"/><path d="m356.41 863.08c1.67-.87 3.42-1.63 5-2.63 14.3-8.92 29.91-13.1 46.71-13.61 25.68-.79 49.1 6.75 70.75 19.77a223.54 223.54 0 0 1 45 35.24c16.12 16.52 29.24 35.27 40.63 55.27 12.1 21.28 22.73 43.32 33.76 65.16 1.54 3.06 3.39 6 5.09 8.93l1.78 4.36c.77 18.51.69 37 .06 55.53a8.08 8.08 0 0 0 -1.9-.14c-3-1.46-4-4.49-5.46-7.09s-2.76-5.46-5.62-7c-.92-2.46-1.4-5.21-2.83-7.32-4.88-7.26-8.32-15.26-12.32-23-3.46-6.67-6.81-13.39-10.21-20.09-.17-2.64-.48-5.28-.49-7.92-.06-12.51 0-25-.07-37.52a44.37 44.37 0 0 0 -.78-9c-.63-3-4.27-5.32-6.89-4.72s-4.89 2.23-5.3 5.22a66.88 66.88 0 0 0 -.35 6.8q-.27 7.36-.52 14.74c-2.36-4.37-4.69-8.76-7.1-13.1-5-9-9.91-18.14-15.22-27-9.52-15.87-21.88-29.39-35-42.32-12.16-11.95-26.18-21-41-29.19-8.48-4.67-17.59-7.54-26.93-9.61-5.94-1.32-12.06-1.86-18.09-2.75a36.22 36.22 0 0 0 -1.06-5.45c-1.17-3.3-3.63-4.75-6.85-4.3-3 .42-4.54 2.24-5 5.15-.32 2.19-.65 4.39-1 6.58a71.14 71.14 0 0 0 -29.76 13.63c-2.66 2.08-5.85 3.48-8.79 5.19-1.41-9.24-.8-18.53-.24-27.81z" fill="#a1d6d1"/><path d="m709.46 955.36c.17-4.59.49-9.18.49-13.77q0-104.65 0-209.32a93.51 93.51 0 0 1 .29-10.33 6.59 6.59 0 0 1 7-6.16 6.44 6.44 0 0 1 6 5.89c.34 3.42.29 6.89.29 10.34q0 82.23 0 164.46c0 9.58.35 19.16.55 28.73a11.82 11.82 0 0 0 -.13 6.59c-1 17.92-.81 35.84-.07 53.76-.12 2.29-.36 4.58-.36 6.87q0 78.77 0 157.53c0 2.68.28 5.35.43 8a250.39 250.39 0 0 0 0 34.43c-.14 4.2-.41 8.39-.41 12.59q0 60.82 0 121.66c0 3.06.09 6.12-.08 9.18-.29 5-2.61 7.83-6.36 8.08-4 .27-6.78-3-7.08-8.58-.17-3-.06-6.11-.06-9.17q0-63.14 0-126.25c0-4.2-.29-8.39-.45-12.59a250.63 250.63 0 0 0 0-36.25c.16-2.67.45-5.33.45-8q0-63.66 0-127.31c0-2.67-.27-5.33-.41-8a449.21 449.21 0 0 0 -.09-52.38z" fill="#ec5b7e"/><path d="m2124.46 1072.32c-.2 5-.58 9.93-.58 14.9q-.06 119.6 0 239.18c0 3.83 0 7.67-.3 11.48a6.26 6.26 0 0 1 -5.88 5.95 6.14 6.14 0 0 1 -6.07-5.69c-.31-3.43-.26-6.89-.26-10.34q0-82.79 0-165.59 0-28.17 0-56.34c0-2.68-.26-5.35-.4-8 0-1.5 0-3 .07-4.49.58-17.67.82-35.34-.13-53 .16-3 .46-6.07.46-9.11q0-77.19 0-154.38c0-3-.3-6.08-.46-9.12a234.63 234.63 0 0 0 0-34.16c0-.94 0-1.89 0-2.84.14-9.17.38-18.35.4-27.53.06-24.49 0-49 0-73.48a75.44 75.44 0 0 1 .39-9.15c.33-2.62 3.12-4.68 5.73-4.74s5.44 1.89 5.81 4.59a78.58 78.58 0 0 1 .56 10.29c0 31.38 0 62.76.06 94.14 0 4.19.47 8.37.72 12.56a1.59 1.59 0 0 0 -.11 2.13c-1.11 11.24-.8 22.5-.19 33.75a1 1 0 0 0 .21 1.48c-.22 3.43-.64 6.85-.64 10.28q-.06 60.88 0 121.78c0 3.43.43 6.85.67 10.28v2.46a409.73 409.73 0 0 0 -.09 50.54c.01.71.02 1.44.03 2.17z" fill="#ee4c78"/><path d="m304.65 1018.93c-.14 4.59-.39 9.18-.39 13.77q0 119.49 0 239c0 3.44.1 6.9-.24 10.32a6.88 6.88 0 0 1 -6.81 6.46c-3.35-.14-6-2.89-6.32-6.9-.23-3.44-.11-6.89-.11-10.34q0-114.32 0-228.64c0-4.58-.29-9.17-.44-13.75a483.92 483.92 0 0 0 0-48.63l-.09-3.17c.17-4.59.48-9.19.48-13.78q.06-88 0-176.07a96.1 96.1 0 0 1 .31-10.33 6.41 6.41 0 0 1 6.28-5.61 6.56 6.56 0 0 1 6.46 5.46 80.82 80.82 0 0 1 .42 10.33q0 68.46 0 136.94c0 4.21.27 8.42.41 12.63-.17 13.16-.43 26.33-.48 39.49 0 5.62-.59 11.29.72 16.87-1.37 8.62-1.04 17.29-.2 25.95z" fill="#ec5b7e"/><path d="m2544.38 1049.62c-.14 4.21-.41 8.42-.41 12.63q0 104.73 0 209.46c0 3.45.1 6.92-.23 10.35a6.82 6.82 0 0 1 -6.84 6.4c-3.34-.18-6-3-6.28-7-.24-3.43-.13-6.9-.14-10.35q-.08-84-.15-168c0-1.91-.23-3.81-.35-5.71l.06-8.73a508.32 508.32 0 0 0 -.08-53.24c1-9.11.67-18.24.21-27.36v-4.5c.12-4.59.33-9.18.34-13.76q0-101.09 0-202.16c0-3.44-.06-6.9.25-10.32a6.62 6.62 0 0 1 5.88-6 7 7 0 0 1 7.07 6.18 95.91 95.91 0 0 1 .27 10.32q0 97.64 0 195.27c0 4.58.29 9.16.45 13.75a127.3 127.3 0 0 0 -.06 27 143.44 143.44 0 0 0 .01 25.77z" fill="#ec5b7e"/><path d="m2491.79 1150.17c-.14 4.2-.39 8.4-.39 12.59q-.06 52.74 0 105.48a89.94 89.94 0 0 1 -.28 9.15 6.67 6.67 0 0 1 -6.17 5.75 6.75 6.75 0 0 1 -6.57-5.31 61.72 61.72 0 0 1 -.46-9.13q0-46.44 0-92.87c0-4.19-.28-8.39-.43-12.58a143.53 143.53 0 0 0 0-28.94c.16-3 .47-6.11.48-9.17q0-63.3 0-126.61c0-3-.29-6.11-.44-9.17a135.55 135.55 0 0 0 .05-25.32c.14-4.2.4-8.41.4-12.61q0-79.24 0-158.49c0-3.44-.05-6.91.3-10.32a7.07 7.07 0 0 1 5.94-6.12c3.17-.33 6.58 2.48 7 6.24a98.5 98.5 0 0 1 .27 10.32q0 85 0 170c0 4.2.26 8.4.4 12.61a149.05 149.05 0 0 0 0 25.44c-.15 1.91-.41 3.81-.42 5.72q0 50.57 0 101.12c0 2.29.3 4.58.46 6.86a240.13 240.13 0 0 0 -.14 35.36z" fill="#ec5b7e"/><path d="m356.41 863.08c-.56 9.28-1.17 18.57.33 27.83a60.24 60.24 0 0 0 -.75 6.79q-.08 64.93 0 129.87a82.25 82.25 0 0 0 1 9.08c-1.89 8-.9 16-.6 24.06v2.54c-.14 4.6-.39 9.2-.39 13.79q0 93.8 0 187.59c0 3.07-.09 6.14 0 9.21.15 5.15-1.49 8.92-6.57 8.75-3.85-.13-5.67-2.7-5.9-8.25-.13-3.06-.05-6.14-.05-9.21q0-100.12 0-200.25c0-4.59-.3-9.18-.46-13.78a121 121 0 0 0 -.11-26.08 23.35 23.35 0 0 0 .47-3.4q0-54 0-107.92a13.82 13.82 0 0 0 -.37-2.26 2.11 2.11 0 0 0 0-2.13 205.36 205.36 0 0 0 .07-30.58 2 2 0 0 0 0-2.07c.14-7.62.38-15.25.4-22.87.06-21.37 0-42.74.05-64.11a54 54 0 0 1 .65-9.08c.4-2.33 3.71-4.22 6.29-3.92s4.5 1.61 4.94 4.06a53.06 53.06 0 0 1 .6 9.1v60.67c-.01 4.19.24 8.38.4 12.57z" fill="#ee4c78"/><path d="m657 1026c.17-4.59.49-9.18.49-13.76q.06-78.74 0-157.47c0-3.07-.12-6.14.11-9.19.35-4.6 3.41-7.75 7-7.54s6.3 3.35 6.62 8c.21 3.05.11 6.13.11 9.19q0 70.69 0 141.38c0 3.44.17 6.88.27 10.31-1.43 14.74-.93 29.5-.29 44.27-.15 14.13-.4 28.26-.41 42.39 0 11.45.29 22.91.45 34.36a306.64 306.64 0 0 0 .09 40.67c-.19 13-.36 26-.58 39a82.44 82.44 0 0 1 -.44 9.17c-.31 2.43-3.3 4.69-5.75 4.84s-5.68-1.65-6.28-4.12a34.53 34.53 0 0 1 -.88-7.92c-.09-14.17 0-28.35-.06-42.52 0-3.82-.27-7.64-.41-11.46.33-12 .74-23.91.94-35.87 0-2.58-.66-5.17-1-7.76.9-15.34.65-30.68.14-46 1.87-10.74.54-21.57.89-32.35.08-2.62.3-5.25-1.01-7.62z" fill="#ec5b7e"/><path d="m2439.31 1178.25c-.1 4.87 0 9.76-.4 14.62a9.68 9.68 0 0 1 -2.07 5.05 5.87 5.87 0 0 1 -6.14 1.83 6.25 6.25 0 0 1 -5-5.49c-.56-4.44-.62-9-.9-13.44a2 2 0 0 0 0-2.07 87.49 87.49 0 0 0 -.13-23.59c.17-3.43.48-6.87.48-10.3q0-89.05 0-178.11c0-3.06-.26-6.11-.4-9.17a127.89 127.89 0 0 0 -.05-25.13c.16-18 .25-36 .51-54a95.31 95.31 0 0 1 1.13-13.71c.59-3.67 4.35-5.45 8-4.31a5.51 5.51 0 0 1 4.13 5c.26 3 .27 6.12.27 9.18v55.19c0 3.83.29 7.65.44 11.47a133 133 0 0 0 .05 25.16c-.17 3.43-.48 6.87-.49 10.3q0 83.29 0 166.58c0 3.43.33 6.86.52 10.3a107.69 107.69 0 0 0 .05 24.64z" fill="#ec5b7e"/><path d="m2424.72 1155.16a87.49 87.49 0 0 1 .13 23.59l-13.91.07-6.77-.69c-2.05-1.84-4.47-2.11-7.06-1.69l-2.39-.43c-1.9-1.92-4.26-2.31-6.82-2a308.48 308.48 0 0 1 -32.13-14.19 2.55 2.55 0 0 0 -2.49-1.66l-.48-.26a4.3 4.3 0 0 0 -4-2.42v-.18a2.75 2.75 0 0 0 -2.58-1.88l-.14-.09a2.23 2.23 0 0 0 -2.38-1.71 7 7 0 0 0 -2-.88 2.36 2.36 0 0 0 -2.28-1.74l-.53-.37a1.43 1.43 0 0 0 -1.69-1.33l-4.94-3.37a2.18 2.18 0 0 0 -2.06-1.74l-.62-.5a1.3 1.3 0 0 0 -1.43-1.26c-11-9.9-21.34-20.35-31.29-31.25a1.24 1.24 0 0 0 -1.23-1.38l-.5-.64a2.16 2.16 0 0 0 -1.74-2c-3.62-5.4-7-11-11.81-15.44 0-4.93-.07-9.89 0-14.85q.26-21.15.57-42.31c6 8 9.53 17.37 14.31 26 11.13 20.25 24.58 38.73 41.43 54.54 10.56 9.92 21.37 19.69 35 25.57.23 4.1.45 8.21.69 12.31a43 43 0 0 0 .46 5.58c.47 2.43 3.32 4.51 5.77 4.49s5.46-2 5.87-4.42c.56-3.3.8-6.67 1.18-10 12.14 4.82 24.6 8.45 37.86 8.53z" fill="#39b39d"/><path d="m2162.87 858.46c1.35-3.25.8-6.69 1-10.06a40.47 40.47 0 0 1 .5-5.62 6.3 6.3 0 0 1 5.72-4.64c2.37 0 5.39 2.19 5.8 4.58a47.35 47.35 0 0 1 .46 6.75c.22 6.78.38 13.55.57 20.33a333.61 333.61 0 0 0 -.09 42.54 468.08 468.08 0 0 0 .08 47.68 292.4 292.4 0 0 0 0 40.8c-.17 4.58-.49 9.16-.49 13.75q-.06 95.34 0 190.69c0 3.82-.06 7.66-.43 11.46-.23 2.43-3.34 4.73-5.75 4.79s-5.53-2.17-5.8-4.68a109.1 109.1 0 0 1 -.52-11.44q0-86.16 0-172.32c0-4.56.68-9.2-.94-13.66a211.28 211.28 0 0 0 .16-43.62c1.3-3.68.78-7.51.79-11.28q.08-26.76 0-53.5c0-3.78-.39-7.56-.61-11.33a1.3 1.3 0 0 0 .08-1.88c.53-13.12 1.19-26.24-.53-39.34z" fill="#ee4c78"/><path d="m395.29 872.09c.32-2.19.65-4.39 1-6.58.42-2.91 2-4.73 5-5.15 3.22-.45 5.68 1 6.85 4.3a36.22 36.22 0 0 1 1.06 5.45c-.19 3.43-.53 6.86-.53 10.3q-.06 88.55 0 177.09c0 3.43.39 6.86.6 10.29a109 109 0 0 0 -.09 24.89c-.18 4.19-.51 8.38-.51 12.57q-.08 40.14 0 80.27a75.43 75.43 0 0 1 -.36 9.15c-.41 3.25-3.24 5.06-6.71 4.74a5.38 5.38 0 0 1 -5.15-5.17c-.28-3-.25-6.1-.25-9.16q0-43 0-86c0-4.19-.33-8.38-.5-12.57a1.88 1.88 0 0 0 .08-2.17c.41-8.2 1.15-16.4-.45-24.55 1.35-4.1.87-8.33.88-12.51q0-81.91 0-163.82c-.21-3.79-.66-7.58-.92-11.37z" fill="#ee4c78"/><path d="m2229.58 925.16a197.92 197.92 0 0 1 55.83-16.46c10.3-1.51 20.52-1.83 30.83-2 16.55-.31 32.68 2.59 48.77 5.91 2.61.54 5.27.83 7.9 1.24a106.75 106.75 0 0 1 0 25 54.44 54.44 0 0 1 -5.59-1 136.82 136.82 0 0 0 -30.22-5.47c-21.31-1.07-42.7-1.34-63.49 4.71-10.91 3.17-22.08 6-31.1 13.59-5.1-.9-8.67 2.71-12.89 4.4a184.26 184.26 0 0 1 -.04-29.92z" fill="#a1d6d1"/><path d="m461.73 1115.78q-.25 16-.51 32a75.73 75.73 0 0 1 -.35 8 6.41 6.41 0 0 1 -5.43 5.16c-2.89.39-6.43-1.68-7-4.66a50.92 50.92 0 0 1 -.67-9.08c-.19-13.34-.29-26.68-.41-40a104.94 104.94 0 0 0 -.15-24.86c.18-4.2.5-8.41.51-12.61q.07-35.06 0-70.12 0-43.1 0-86.21a57.4 57.4 0 0 1 .82-10.23c.46-2.53 3.63-4.52 6-4.48a6.43 6.43 0 0 1 6.3 5.57c.33 3.42.28 6.88.28 10.32q0 79.32 0 158.63c0 4.59.34 9.17.52 13.76a111 111 0 0 0 -.1 24.51z" fill="#ec5b7e"/><path d="m461.67 1111.45a111 111 0 0 1 .1-24.51c30.39 7.84 61 9.79 91.93 3.48 7.48 3.58 7.71 3.53 12.62-2.89.22-.29.39-.63.59-.94 8.92-2 17.24-5.59 25.35-9.73 2.86 1.55 4.11 4.36 5.62 7s2.47 5.63 5.46 7.09l1.89 4 .09 4.79-1.74 1.74-13.65 6a4.54 4.54 0 0 0 -4.39 1.79l-2.47.47a4.57 4.57 0 0 0 -4.58 1.69l-2.33.51a7.31 7.31 0 0 0 -6.71 1.91l-2.51.47a7.48 7.48 0 0 0 -6.86 1.72l-4.67.64c-3.24-.48-6.4-.45-9.19 1.64l-6.91.5h-36.7l-6.92-.49c-3.56-2.35-7.51-2.14-11.49-1.79l-4.53-.59a7.69 7.69 0 0 0 -7-1.64l-4.44-.74c-1.78-1.81-4.18-1.95-6.56-2.12z" fill="#39b39d"/><path d="m237.56 934.6c.17-5 .35-9.93.51-14.89.08-2.3 0-4.62.25-6.88.52-4 3.36-6.38 6.94-6.14a6.27 6.27 0 0 1 6 5.81 79.49 79.49 0 0 1 .28 8c.17 8.41.31 16.82.47 25.24a99.22 99.22 0 0 0 -.07 21.79c-.13 19.33-.33 38.66-.37 58 0 10.22.26 20.45.41 30.68a123.37 123.37 0 0 0 0 23.22q-.21 29.17-.42 58.35c0 3 .06 6.11-.24 9.14a6.43 6.43 0 0 1 -5.78 6.07 6.5 6.5 0 0 1 -7.16-5.86 77.09 77.09 0 0 1 -.31-9.13q-.24-23.44-.44-46.9a75.9 75.9 0 0 0 0-18.69c.15-3.81.41-7.62.41-11.43q.06-47.6 0-95.17c0-3.81-.27-7.63-.41-11.44a69.43 69.43 0 0 0 -.07-19.77z" fill="#ec5b7e"/><path d="m2229.58 925.16a184.26 184.26 0 0 0 0 29.9 256 256 0 0 0 -.05 36.74c-.15 4.21-.41 8.42-.42 12.63q0 66.14 0 132.28a88.79 88.79 0 0 1 -.44 10.32c-.3 2.62-3.09 4.87-5.55 5.09a6.89 6.89 0 0 1 -6.42-4 14.07 14.07 0 0 1 -1-4.41c-.18-3-.11-6.13-.11-9.2q0-77.64 0-155.28c0-4.21-.27-8.42-.42-12.63a216.85 216.85 0 0 0 .05-32.64q.69-11.9 1.36-23.8a16.92 16.92 0 0 1 2.9-1.68c5.29-1.86 9 .21 9.55 5.54.34 3.68.36 7.42.55 11.14z" fill="#ec5b7e"/><path d="m2372.9 938.83a106.75 106.75 0 0 0 0-25c.32-3.4.51-6.83 1-10.2.39-2.57 3.12-4.47 5.88-4.47s5.52 1.9 5.81 4.51c.54 4.91.75 9.85 1.09 14.77a102.43 102.43 0 0 0 0 24.93c-.22 3.43-.63 6.86-.63 10.29q-.06 91.35 0 182.7c0 3.42.48 6.84.73 10.27-.38 3.33-.62 6.7-1.18 10-.41 2.37-3.37 4.41-5.87 4.42s-5.3-2.06-5.77-4.49a43 43 0 0 1 -.46-5.58c-.24-4.1-.46-8.21-.69-12.32.24-4.2.67-8.4.67-12.59q.07-87.9 0-175.79c.03-3.83-.37-7.64-.58-11.45z" fill="#ee4c78"/><path d="m2596.68 1090.91c-1.4 3.7-.89 7.57-.9 11.37-.07 12.62 0 25.25-.05 37.88a56.15 56.15 0 0 1 -.46 8 5.68 5.68 0 0 1 -5.65 4.74c-2.73 0-5.48-1.82-5.89-4.45a52 52 0 0 1 -.49-8c0-16.46 0-32.91 0-49.36 0-3.82-.29-7.63-.44-11.45a86.5 86.5 0 0 0 -.06-20.78c.17-3.81.49-7.62.5-11.43q.08-28.67 0-57.33c0-6.86-.29-13.73-.45-20.6a103.26 103.26 0 0 0 -.07-23.51c.18-9.13.33-18.26.57-27.39a47.37 47.37 0 0 1 .69-7.91c.51-2.57 3.34-4.11 6.22-3.85a5.06 5.06 0 0 1 4.89 4.06 56.43 56.43 0 0 1 .69 7.92c.34 5.29-.77 10.68 1 15.88a48.25 48.25 0 0 0 -.18 19.63c-.27 3.42-.77 6.83-.78 10.25q-.09 49.33 0 98.69c0 3 .49 6.06.76 9.08a42.53 42.53 0 0 0 .1 18.56z" fill="#ee4c78"/><path d="m2596.58 954.34a48.08 48.08 0 0 1 .17-19.63l21.28-9.63c2.63.24 5.07-.18 7.06-2.1a4.89 4.89 0 0 0 2.14-.33c3.35.23 6.68.38 9.55-1.84l24.63.05c2.89 2.24 6.24 2.06 9.6 1.82a4.71 4.71 0 0 0 2.13.31 8.24 8.24 0 0 0 7.08 2 4.51 4.51 0 0 0 2.05.41 5.21 5.21 0 0 0 4.87 1.8c22.53 8.5 42.22 21.23 58.59 39a190.53 190.53 0 0 1 26.94 38.34c1.46 2.68 3 5.34 4.44 8-.18 3.78-.41 7.54-4.73 9.18-6.49-11.28-12.8-22.66-20.89-32.93-19.26-24.42-42.94-42.43-73.44-50.38-10.74-2.8-21.63-5.08-32.86-3.08-3-.73-5.67.35-8.34 1.45-6.73-.34-12.64 2.44-18.61 4.92-7.79 3.19-14.72 7.94-21.66 12.64z" fill="#39b39d"/><path d="m605.32 1099.8-.09-4.78c0-1.31 0-2.61 0-3.92.63-18.51.71-37-.06-55.53 0-1.52 0-3 0-4.56.17-4.2.48-8.4.49-12.6q.06-47.65 0-95.32a88.34 88.34 0 0 1 .4-10.3 5.94 5.94 0 0 1 11.78.13c.34 3.42.37 6.87.38 10.31q0 61.44 0 122.88c0 4.21.23 8.41.35 12.62l-.06 2.59c-.09 17.09-.21 34.18-.23 51.28a37.36 37.36 0 0 0 .79 5.6c-1.65 6.42-.55 13-.87 19.44-.15 3.06-.07 6.14-.44 9.16a5.69 5.69 0 0 1 -5.72 4.67c-2.83.07-5.49-1.73-5.91-4.42a57.68 57.68 0 0 1 -.5-8c-.14-12.26-.21-24.52-.31-36.77z" fill="#ee4c78"/><path d="m237.56 934.6a69.43 69.43 0 0 1 .09 19.79c-3.2-2.07-6.42-4.11-9.6-6.22a134.89 134.89 0 0 0 -28.38-14.8c-17.27-6.3-34.83-8.07-52.93-4.09-18.38 4-34.2 12.87-48.29 25.06a156.76 156.76 0 0 0 -35.45 44.66c-3.2-.09-4.68-1.92-4.91-4.92-.11-1.48 0-3 0-4.46a4 4 0 0 0 .46-2.14c1.08-1.53 2.29-3 3.21-4.61 9.27-16.32 21.52-30.12 35.55-42.44a1.84 1.84 0 0 0 1.9-1.6l.36-.28a2.56 2.56 0 0 0 2.32-1.89c11.48-7.93 23.53-14.74 36.92-18.94a4.94 4.94 0 0 0 4.81-1.61 5 5 0 0 0 2.1-.34c3.33.24 6.61.25 9.44-1.94l4.51-.51h18.16l6.65.66c2.14 1.9 4.66 2 7.31 1.62l4.21.67a5.29 5.29 0 0 0 5 1.68c12.87 4.05 24.69 10.41 36.56 16.65z" fill="#39b39d"/><path d="m199.6 1104.86c-.09 3.44-.12 6.89-.27 10.32a21.67 21.67 0 0 1 -.62 4.54 6.64 6.64 0 0 1 -5.71 5c-2.64.44-6-2.14-6.79-5.09a24.45 24.45 0 0 1 -.61-4.53c-.2-2.66-.31-5.34-.46-8 0-.74 0-1.49 0-2.24a38.33 38.33 0 0 0 -.07-13.8c.15-4.2.43-8.41.44-12.61q0-63.81 0-127.62a73.66 73.66 0 0 1 .51-10.3 6.89 6.89 0 0 1 6.48-5.54 6.44 6.44 0 0 1 6.1 5.76c.32 3.42.28 6.89.28 10.33q0 62.67 0 125.32c0 4.21.31 8.41.48 12.61a46.53 46.53 0 0 0 .24 15.85z" fill="#ec5b7e"/><path d="m2772.38 1021.68c4.32-1.64 4.55-5.4 4.73-9.18a7.59 7.59 0 0 0 3.79-4.09 471.64 471.64 0 0 0 21.3-69.91c.42-1.84.77-3.7 1.3-5.51.38-1.33 3.19-2.71 3.6-1.9a5.59 5.59 0 0 1 .75 3.08 470 470 0 0 1 -14 58.82c-3.38 10.94-7.27 21.67-11.26 32.38-4.05 2.51-3.44 6.66-3.68 10.51-4.35 1.76-5.76 6.15-7.66 9.65-8.53 15.7-20.83 28.19-34 39.76-11.51 10.13-25.11 17.37-39.46 22.65a60.57 60.57 0 0 1 -21.23 3.81c-8-.06-16 .09-24 .14l-2.31-.16a4.79 4.79 0 0 0 -1.45-.2 38.88 38.88 0 0 1 -.06-13.9c8 .14 16.09 0 24.11.46 12.24.68 23.38-3 34.29-7.86 28.81-12.87 48.74-34.91 63.91-61.88 1.19-2.11 1.18-4.35 1.33-6.67z" fill="#a1d6d1"/><path d="m185.11 1091a38.33 38.33 0 0 1 .07 13.8l-2.59.24c-28.56.15-52.52-11.84-75-28.1-17.13-12.4-29.34-28.93-40.41-46.51-3.65-5.8-7.18-11.68-10.76-17.52a17.74 17.74 0 0 0 -4.08-10.64c-9.09-19.89-14.5-41-21.37-61.71-1.56-4.69-2.33-9.64-3.4-14.48-.37-1.66-1.87-4 1.25-4.36 2.25-.25 3.11 2 3.58 3.81 5.49 21.16 13.89 41.3 21.57 61.69.72 1.93 2.32 2.33 4.13 2.37 0 1.49-.09 3 0 4.46.23 3 1.71 4.83 4.91 4.92-.2 3.43 0 6.61 1.75 9.91 9.53 17.59 20.9 33.72 35.71 47.32 23.97 22.03 51.53 35.19 84.64 34.8z" fill="#a1d6d1"/><path d="m2229.56 991.8a256 256 0 0 1 .05-36.74c4.22-1.69 7.79-5.3 12.89-4.4 5.72 11.19 11.4 22.41 17.16 33.58 2.61 5 5.38 10 8.07 15 .95 21.38.85 42.76.08 64.14-5.33-7.05-8.92-15.09-13-22.86-6.71-12.87-13-25.95-19.59-38.9-1.67-3.35-3.75-6.54-5.66-9.82z" fill="#39b39d"/><path d="m2648.74 1097.63a38.88 38.88 0 0 0 .06 13.9c-.21 2.24-.32 4.5-.66 6.73-.63 4-3.37 6.57-6.56 6.3-2.83-.23-5.22-2.69-5.63-6.1-.44-3.72-.69-7.47-1-11.21a31.1 31.1 0 0 0 -.16-15.8c1.57-4.46.93-9.1.93-13.66q.08-63.12.05-126.24c0-4.95-.41-10 1.1-14.81 2.67-1.1 5.35-2.18 8.34-1.45 3.94 3.62 3 8.42 3 12.94q.06 68.4.05 136.8c.03 4.2.32 8.4.48 12.6z" fill="#ee4c78"/><path d="m2110.84 1040.36c.95 17.66.71 35.33.13 53-1.45 1.05-1.73 2.66-2 4.26-4.07 3.1-6 7.83-8.79 11.84-9.22 13-16.93 27.1-27.67 39-.8-18.34-.85-36.67 0-55 6-4.87 9-12 13.38-18.13 8.32-11.64 15.38-24.19 24.95-34.97z" fill="#a1d6d1"/><path d="m724 985.55c-.75-17.92-.92-35.84.06-53.76a8.94 8.94 0 0 0 4.16-6.58 6 6 0 0 0 3.42-4.91l1.14-2a2.54 2.54 0 0 0 1.76-2.45l.24-.41a4.42 4.42 0 0 0 2.56-4v-.05a2.4 2.4 0 0 0 1.72-2.33l2.89-4.57a2.54 2.54 0 0 0 1.75-2.49l.32-.51c.91-.18 1.38-.67 1.15-1.64l1.38-2.31a2.61 2.61 0 0 0 1.81-2.44l.28-.43a1.46 1.46 0 0 0 1.36-1.77q6.1-7.93 12.22-15.85c1 18.23.88 36.47.05 54.71-1.2 1.45-2.52 2.82-3.58 4.37q-13.51 19.79-27 39.62c-2.36 3.44-4.4 7.14-7.69 9.8z" fill="#39b39d"/><path d="m2163 975.79a210.58 210.58 0 0 1 -.15 43.62c-5.59 3.54-8.51 9.4-12.17 14.52-8.54 11.93-16.68 24.15-25 36.25a1.65 1.65 0 0 0 -1.29 0 409.73 409.73 0 0 1 .09-50.54l1.38-2.2a15.09 15.09 0 0 0 2.5-2.34c8.13-12.08 18.68-22.17 27.52-33.66 1.87-2.44 4.01-4.76 7.12-5.65z" fill="#a1d6d1"/><path d="m619.1 1118.2a37.36 37.36 0 0 1 -.79-5.6c0-17.1.14-34.19.23-51.28l1.35.27c3 7 7.26 13.34 11.5 19.64a5.56 5.56 0 0 0 3.84 2.17c.65 2.18.75 4.77 2 6.49 5.89 7.95 11.28 16.4 19.71 22.1.35 2.58 1 5.17 1 7.75-.2 12-.61 23.91-.94 35.87-12-9.45-22.4-20.48-32.23-32.08-1.69-2.04-3.03-4.33-5.67-5.33z" fill="#a1d6d1"/><path d="m671.31 1051.17c-.64-14.77-1.14-29.53.29-44.27 5.89-5.87 10.6-12.67 15.07-19.66a2.54 2.54 0 0 0 1.83-2.37l.29-.43a1.51 1.51 0 0 0 1.35-1.78l19.32-27.3a449.21 449.21 0 0 1 .08 52.41c-3.86 4.65-7.67 9.34-11.58 14-8.57 10.05-16.37 20.85-26.65 29.4z" fill="#39b39d"/><path d="m2491.79 1150.17a240.13 240.13 0 0 1 .07-35.38c6.76-7.85 11.29-17.06 15.29-26.44 7.45-17.42 14.37-35.06 21.51-52.61a2 2 0 0 0 1.28-.33 508.32 508.32 0 0 1 .08 53.24c-1.82 1.46-2.14 3.49-2.16 5.64l-15.77 31.13a2.51 2.51 0 0 0 -1.69 2.44l-.35.56a1.21 1.21 0 0 0 -1.05 1.58l-1.44 2.39a2.52 2.52 0 0 0 -1.78 2.36l-.33.46a1.52 1.52 0 0 0 -1.45 1.79l-5.62 7.43c-.56.62-1.13 1.23-1.7 1.85l-.58.63-1.54 1.49z" fill="#39b39d"/><path d="m343 878.73a205.36 205.36 0 0 1 -.07 30.58c-.43.71-.86 1.44-1.28 2.16a223.7 223.7 0 0 0 -21.02 41.53c-5 13.1-11.15 25.75-14.73 39.37a1.46 1.46 0 0 1 -1 .6c-1.31-5.58-.74-11.25-.72-16.87.05-13.16.31-26.33.48-39.49.49-.58 1.2-1.07 1.44-1.74 7.51-20.69 18.91-39.09 33-55.91z" fill="#a1d6d1"/><path d="m2267.81 1063.41c.77-21.38.87-42.76-.08-64.14.16-3.83.38-7.65.46-11.48.1-4.6-.1-9.21.17-13.8a6.92 6.92 0 0 1 6.47-6.81c3.16-.08 6.24 2.8 6.66 6.69.32 3 .19 6.13.22 9.19q.23 24.72.44 49.44-.29 21.16-.57 42.31v14.85c-1.25.78-2.38 1.94-3.74 2.34-5.25 1.51-9-.89-9.48-6.19-.34-4.09-.09-8.22-.18-12.33-.06-3.36-.24-6.72-.37-10.07z" fill="#ec5b7e"/><path d="m2216.51 910.14q-.68 11.9-1.36 23.8c-3.51.51-6 2.95-8.81 4.74a6.75 6.75 0 0 1 -7.36.4c-6.83-9.37-13.48-18.9-22.16-26.74a333.61 333.61 0 0 1 .09-42.54c9.8 6.14 17 15.14 25.15 23.05a2.06 2.06 0 0 0 1.79 2l.25.3a2.49 2.49 0 0 0 2 2.21z" fill="#39b39d"/><path d="m1216.17 1984.33c11.79 1.73 23.66 1.39 35.52 1.39q309.22 0 618.45 0c16.82 0 33.68.73 50.45-1.42-3.37 3.28-7.85 1.92-11.79 2.82-4.21-.13-8.42-.37-12.63-.37q-327.81 0-655.62 0c-4.21 0-8.42.26-12.63.4l-11.61-1.09c-.07-.59-.11-1.16-.14-1.73z" fill="#a1d6d1"/><path d="m1911.46 1841c-4.58.11-9.17.31-13.76.31q-329.33 0-658.66 0c-5.36 0-10.72-.12-16.07-.18a8.07 8.07 0 0 1 5.24-2c3.45-.07 6.9-.12 10.35-.12q329.24 0 658.46.06c4.84-.07 9.98-1.51 14.44 1.93z" fill="#baad9e"/><path d="m2162.87 858.46c1.72 13.1 1.06 26.22.4 39.33a.73.73 0 0 0 -1.22 0c-11.4-9.05-23.19-17.5-36.69-23.24a1.14 1.14 0 0 0 -1.05-1.26c-.61-11.26-.92-22.52.19-33.76h3.15l20.52 9.84a2.88 2.88 0 0 0 2.68 1.73l.33.17a4.58 4.58 0 0 0 4.2 2.41z" fill="#39b39d"/><path d="m671.44 1168.59a306.64 306.64 0 0 1 -.09-40.67c4.19 3.12 8.32 6.35 12.6 9.35 8 5.59 16.17 10.81 25.55 13.81a250.63 250.63 0 0 1 0 36.25 183.2 183.2 0 0 1 -32.77-17c-1.49-1-3.51-1.18-5.29-1.74z" fill="#a1d6d1"/><path d="m2199 939.08a6.75 6.75 0 0 0 7.36-.4c2.81-1.79 5.3-4.23 8.81-4.74a216.85 216.85 0 0 1 -.05 32.64c-8 4.58-14.5 11.06-21 17.49-5.7 5.63-11.47 11.17-17.21 16.75a292.54 292.54 0 0 1 0-40.81c7.49-4.33 13.82-10.14 20.31-15.76 1.53-1.34 1.66-3.25 1.78-5.17z" fill="#a1d6d1"/><path d="m252 1079.45a123.37 123.37 0 0 1 0-23.22 7.77 7.77 0 0 0 1.81-1.35 189.08 189.08 0 0 0 26.73-51.43 19.67 19.67 0 0 0 .79-9c2.49-.28 3.87-1.69 4.77-4 1.31-3.44 1.75-7.26 4.22-10.23a483.92 483.92 0 0 1 0 48.63q-5.81 9.81-11.62 19.62c-7.12 11.87-15.7 22.45-26.7 30.98z" fill="#a1d6d1"/><path d="m776.55 909a417.69 417.69 0 0 1 .12-52l20.65-22.33 1.58-1.67.54-.54 1.76-1.76.54-.54 1.7-1.59 2.81-1.67a66.54 66.54 0 0 1 -1.25 13.44c-2.3 14.06-4.9 28.09-5.71 42.36-4.6 2.31-6.93 6.82-10.06 10.52-4.35 5.15-8.46 10.52-12.68 15.78z" fill="#39b39d"/><path d="m724 1192.41a250.53 250.53 0 0 1 0-34.44c12.4 4.42 24.94 8.26 38.18 9.15a235.36 235.36 0 0 1 0 34.11 13.22 13.22 0 0 0 -1.66.11l-2.38-1.61c-11.79-.55-23-3.79-34.14-7.32z" fill="#a1d6d1"/><path d="m2110.88 833.59a234.63 234.63 0 0 1 0 34.16c-12.66-3.66-25.26-7.59-38.39-9.29a183.37 183.37 0 0 1 .05-32.72l6.91.14 4.31.52c2.08 1.89 4.55 2.17 7.2 1.74l2.28.37a7.7 7.7 0 0 0 6.92 1.87l2.28.43c1.84 1.94 4.21 2.31 6.72 2.27a2.53 2.53 0 0 0 1.72.51z" fill="#39b39d"/><path d="m2582.68 946a103.26 103.26 0 0 1 .07 23.51c-7.4 7.83-12.58 17.18-17.24 26.73-5.16 10.59-9.6 21.54-14.35 32.33l-6.8-4.75a127.3 127.3 0 0 1 .06-27c4.3-7.17 8.44-14.43 12.93-21.48 6.99-11.03 14.96-21.23 25.33-29.34z" fill="#39b39d"/><path d="m635.23 1083.4a5.56 5.56 0 0 1 -3.84-2.17c-4.24-6.3-8.46-12.62-11.5-19.64.21-.83.42-1.64.62-2.46 9.89-6.7 18.19-15.19 26.63-23.53l9.86-9.6c1.36 2.41 1.14 5.07 1 7.65-.35 10.78 1 21.61-.89 32.35z" fill="#39b39d"/><path d="m395.18 1059.79c1.6 8.15.86 16.35.45 24.54l-3.28-.09-34.44-21.51c-.51-.68-1-1.35-1.55-2-.3-8-1.29-16.09.6-24.06l10.59 6.82c9 5.78 17.9 11.75 27.63 16.3z" fill="#39b39d"/><path d="m304.91 993a1.46 1.46 0 0 0 1-.6c11.48 11.84 23.38 23.18 36.93 32.66a121 121 0 0 1 .11 26.08c-11.33-7.72-21.19-17.2-31.43-26.24-2.26-2-4.57-3.95-6.86-5.92-.85-8.71-1.18-17.38.25-25.98z" fill="#39b39d"/><path d="m2439.31 1178.25a107.69 107.69 0 0 1 0-24.67c10.37-1.48 19.47-6 28-11.82 3.44-2.34 6.7-5 10-7.45a143.53 143.53 0 0 1 0 28.94l-22.87 11.1a4.48 4.48 0 0 0 -4.5 1.67l-2.41.48c-2.51-.41-4.87-.15-6.86 1.66l-.74-.07z" fill="#39b39d"/><path d="m2058.09 1116.66c.82 17.45.87 34.89 0 52.34l-20 19.11v-46.83q9.96-12.28 20-24.62z" fill="#a1d6d1"/><path d="m2529.94 1035.41a2 2 0 0 1 -1.29.33c-.51-3.18-2.37-5.53-4.67-7.61-8.76-7.85-17.47-15.76-26.32-23.51-1.68-1.48-3.88-2.37-5.84-3.53a149.05 149.05 0 0 1 0-25.44 11.29 11.29 0 0 1 5.9 3.17c8.77 8.32 18.81 15.25 26.95 24.28a24.44 24.44 0 0 0 3.6 2.72l1.91 2.23c.43 9.12.74 18.25-.24 27.36z" fill="#a1d6d1"/><path d="m447.2 1082.31a104.94 104.94 0 0 1 .15 24.86c-13.27-3.47-25.5-9.65-38.24-14.49a109.53 109.53 0 0 1 .08-24.88c12.65 4.9 24.72 11.3 38.01 14.51z" fill="#39b39d"/><path d="m2439.28 966.4a133 133 0 0 1 -.05-25.16c13.53 6.28 25.84 14.6 38.23 22.8a135.55 135.55 0 0 1 -.05 25.32c-5.42-3.56-10.72-7.32-16.28-10.63-7.13-4.28-13.76-9.67-21.85-12.33z" fill="#a1d6d1"/><path d="m2386.7 943.36a102.43 102.43 0 0 1 0-24.93c3.57-.16 6.49 1.76 9.63 3 9.46 3.71 19 7.36 28.42 11a128 128 0 0 1 .05 25.14c-3.15-1.24-6.29-2.52-9.46-3.69q-14.34-5.28-28.64-10.52z" fill="#a1d6d1"/><path d="m2544.36 1023.82 6.8 4.75c8.36 10.76 18.72 19.56 28.47 29 .75.73 2 .91 3.07 1.35a86.5 86.5 0 0 1 .06 20.78c-7.27-3.5-13.34-8.63-19-14.22a123.18 123.18 0 0 0 -19.34-15.81 143.44 143.44 0 0 1 -.06-25.85z" fill="#a1d6d1"/><path d="m290.33 980.2c-2.47 3-2.91 6.79-4.22 10.23-.9 2.34-2.28 3.75-4.77 4-5.72-5.59-11.35-11.26-17.17-16.73-3.86-3.63-7.21-7.89-12.2-10.17a99.22 99.22 0 0 1 .07-21.79c10.19 6.27 18.67 14.65 27.68 22.39 3.47 3 6.33 6.72 10.52 8.86.03 1.1.06 2.15.09 3.21z" fill="#39b39d"/><path d="m2634.77 1091.45a31.1 31.1 0 0 1 .16 15.8c-12.47-1.18-22.73-7.82-33.36-13.54-1.66-.89-3.26-1.87-4.89-2.8a42.48 42.48 0 0 1 -.13-18.54c5.91 1.84 10.34 6.2 15.56 9.21 7.18 4.14 14.08 8.94 22.66 9.87z" fill="#a1d6d1"/><path d="m776.62 1203.38a222.83 222.83 0 0 1 0-34.08l20.49.06.21 34.25z" fill="#a1d6d1"/><path d="m199.6 1104.86a46.53 46.53 0 0 1 -.13-15.88c6.6-.2 12.68-2.38 18.41-5.36 6.71-3.49 13.18-7.44 19.76-11.19a75.9 75.9 0 0 1 0 18.69c-1 .49-2.08.92-3.06 1.47-10.95 6.14-22.47 10.62-34.98 12.27z" fill="#a1d6d1"/><path d="m52.34 1002.3a17.74 17.74 0 0 1 4.08 10.64c-8.44 17.25-13.74 35.6-18.83 54-2.44 8.83-4.81 17.68-7.3 26.5a2.25 2.25 0 0 1 -1.66 1.13c-1.51.18-2-1.11-1.85-2.17 1.22-6.76 2.51-13.5 3.94-20.22 4.56-21.32 10-42.39 18.24-62.63 1.04-2.45 2.25-4.83 3.38-7.25z" fill="#39b39d"/><path d="m2778.91 1035.88c.24-3.85-.37-8 3.68-10.51 10.66 24.23 18 49.55 24.66 75.08.38 1.43 1.19 2.87.11 4.33a1.8 1.8 0 0 1 -.89.55c-.35.11-1 .18-1.06 0a45.31 45.31 0 0 1 -3-6.08c-5.47-15.5-10.73-31.07-16.3-46.53-2.11-5.72-4.79-11.22-7.2-16.84z" fill="#39b39d"/><path d="m960.43 2032.43h35c-1 .56-1.88 1.5-2.9 1.62a123 123 0 0 1 -29.15 0c-1.07-.11-1.99-1.05-2.95-1.62z" fill="#a1d6d1"/><path d="m949.07 2030.14c3.46-.28 6.83-.13 9.75 2.1-3.49.44-6.98.84-9.75-2.1z" fill="#a1d6d1"/><path d="m997.07 2032.29c3-2.16 6.34-2.42 9.84-2.07-2.83 2.78-6.32 2.53-9.84 2.07z" fill="#a1d6d1"/><path d="m1923 1843.11c-2.6.43-4.81-.72-7-1.76 2.62-.69 5.13-.77 7 1.76z" fill="#baad9e"/><path d="m942 2028.05a8.35 8.35 0 0 1 7.19 2.11c-2.78.43-5.3.14-7.19-2.11z" fill="#a1d6d1"/><path d="m1929.93 1845.37c-1.88.23-3.28-.76-4.68-1.79 1.98-.49 3.64-.17 4.68 1.79z" fill="#baad9e"/><path d="m1204.4 1845.79c-1.31 1.12-2.59 2.29-4.51 2.1a3.73 3.73 0 0 1 4.51-2.1z" fill="#baad9e"/><path d="m1199.63 1848c-1.2 1.2-2.41 2.39-4.3 2.27a3.67 3.67 0 0 1 4.3-2.27z" fill="#baad9e"/><path d="m1971.43 1940.35c-.42-2 .49-3.47 1.9-4.74a3.94 3.94 0 0 1 -1.9 4.74z" fill="#baad9e"/><path d="m2343.71 1151.59a2.23 2.23 0 0 1 2.38 1.71z" fill="#a1d6d1"/><path d="m2346.23 1153.39a2.75 2.75 0 0 1 2.58 1.88 3 3 0 0 1 -2.58-1.88z" fill="#a1d6d1"/><g fill="#baad9e"><path d="m356.36 1060.71c.52.67 1 1.34 1.55 2a1.82 1.82 0 0 1 -1.55.53z"/><path d="m605.32 1099.8v2.48a2.21 2.21 0 0 1 -1.77-.74z"/><path d="m1161.47 1932.89a2.31 2.31 0 0 1 1.21 3 2.17 2.17 0 0 1 -1.21-3z"/><path d="m1969.32 1945a2.3 2.3 0 0 1 1.51-2.76 2.17 2.17 0 0 1 -1.51 2.76z"/><path d="m1966.92 1949.6a2.29 2.29 0 0 1 1.64-2.67 2.22 2.22 0 0 1 -1.64 2.67z"/><path d="m1962.34 1956.55a2.18 2.18 0 0 1 1.82-2.45 2.15 2.15 0 0 1 -1.82 2.45z"/><path d="m1960.47 1958.89a1.91 1.91 0 0 1 1.66-2 1.63 1.63 0 0 1 -1.66 2z"/><path d="m1177 1961.19a2.19 2.19 0 0 1 2 2.21 2 2 0 0 1 -2-2.21z"/></g><path d="m877.77 1979.43a2.57 2.57 0 0 1 1.84 2.57 2.72 2.72 0 0 1 -1.84-2.57z" fill="#a1d6d1"/><path d="m620.51 1059.13c-.2.82-.41 1.63-.62 2.46l-1.35-.27.06-2.59a2.84 2.84 0 0 1 1.91.4z" fill="#baad9e"/><path d="m879.79 1982.29a2 2 0 0 1 1.56 2.08z" fill="#a1d6d1"/><path d="m907.31 2010.28a2.35 2.35 0 0 1 2.27 1.69z" fill="#a1d6d1"/><path d="m909.78 2012.09a3 3 0 0 1 2.69 1.92 2.93 2.93 0 0 1 -2.69-1.92z" fill="#a1d6d1"/><path d="m1179.28 1963.6a2.1 2.1 0 0 1 2.1 2.09 2 2 0 0 1 -2.1-2.09z" fill="#baad9e"/><path d="m2058.14 856.45-24.93-.36c-3.47-5.42-2-11.94-3.93-17.78-1.55-4.65-1.7-9.76-2.47-14.67l31.24.19a199.6 199.6 0 0 1 .09 32.62z" fill="#39b39d"/><path d="m854.57 828.68-13.74 9.84c-.66-7.78 1.92-15.09 3.53-22.49a147 147 0 0 1 8.29-27.31c4.8-1.55 8.25-5.89 13.5-6.52a20.14 20.14 0 0 1 0 4.59c-3.27 14.12-6.64 28.21-11.58 41.89z" fill="#39b39d"/><path d="m2000.53 1224.67c-2.76.06-4.6 1.8-6.47 3.51s-3.9 3.22-6.59 3.34a193.74 193.74 0 0 1 2.32-41.8c2.24-1.82 4.54-3.56 6.69-5.47 1.9-1.71 3.77-3.39 6.36-4 .58 8.75.77 17.41-1.09 26.16-1.25 5.93-.87 12.18-1.22 18.26z" fill="#a1d6d1"/><path d="m832 1166.89c4.6 0 9.27.35 13.34-2.48q0 17.47-.1 35l-12.9 2.22a323.93 323.93 0 0 1 -.34-34.74z" fill="#a1d6d1"/><path d="m1998.54 858.88-13.19 2.41c-2.77-10.79-4.88-21.69-5.17-32.87l.25-.56a6.75 6.75 0 0 0 6.86-1.34l4.42-.41c3 5.77 2.84 12.31 4.45 18.43 1.22 4.67 1.62 9.55 2.38 14.34z" fill="#39b39d"/><path d="m1980.18 828.42c.29 11.18 2.4 22.08 5.17 32.87 1 13 1.68 26 3 38.88a178.55 178.55 0 0 1 .91 18.33q.07 129.32.1 258.61c0 4.2.26 8.41.4 12.61a193.74 193.74 0 0 0 -2.32 41.8c-3.41 5.45-3.06 11.84-4 17.77-9.53 62.22-32.26 119.32-66 172.2-4.11 6.44-8.79 12.51-13.12 18.81-2.24 3.27-4.33 2-6.51 0-3.67-13.35-11.64-24.34-19.61-35.27-3.3-4.51-6.77-9-11.35-12.47a1.67 1.67 0 0 0 -1.72-1.82l-2-3c.35-3.59-1.28-6.73-2.34-10-15.47-47.29-31-94.57-48.67-141.08-7.49-19.66-15.06-39.32-24.84-58a95.52 95.52 0 0 0 -13.53-19.87c-14.17-15.72-32.11-24.22-52.52-28.57-45.25-9.65-90.44-19.63-135.67-29.37-16.06-3.46-32.19-6.64-48.28-10-2-2.21-4-4.43-6-6.63-7.6-8.39-15.87-15.95-26.09-21.1-5.89-22.94-9.58-46.33-14.18-69.53-2.09-7.61.23-13.57 5.22-19.77a258.47 258.47 0 0 0 24.93-37.11 378.22 378.22 0 0 0 34.45-63.29c1.33-3.11 2-6.45 5.52-8.34 9-4.88 13.69-13.16 16.33-22.59 3.13-11.23 8.6-21.14 15.38-30.5a111.28 111.28 0 0 0 8.36-13.65c5.63-10.77 3.49-20.76-4-29.78-3.91-4.74-8.41-8.91-14.59-10.66a33.79 33.79 0 0 1 0-5.69c1.68-10.19 3.59-20.35 5.26-30.55a288.52 288.52 0 0 0 3.68-63 86.22 86.22 0 0 0 -5.12-24.65 67.25 67.25 0 0 0 -25.43-33.01c-8.47-5.86-17.7-9.2-28.12-7.4-4.42.77-6.9-.41-9.05-4.58-12.65-24.49-33.24-39.58-58.86-48.24-22.07-7.46-44.71-9.36-68-7.21-28.84 2.68-55.25 11.54-79 28.18-15.11 10.58-28.62 23.06-42.27 35.39-3 2.7-5 5.74-4.9 9.92.05 2.45-1.26 4.27-2.85 6.05-2.8 3.14-5.58 6.33-8.07 9.72-6.26 8.47-10.46 17.89-11.33 28.45a96.2 96.2 0 0 0 1 26.35c3.93 20.28 8.05 40.54 11.75 60.87 1.09 6 3.77 11.74 2.82 18-9 2.41-15.47 8.13-20.49 15.72s-5.81 15.63-2.27 24.07a68.41 68.41 0 0 0 8.63 14.89 95.12 95.12 0 0 1 16.5 32.62 41.7 41.7 0 0 0 2.45 6.43c3 6.43 7.27 12 13.76 14.91 5 2.28 7.34 5.89 9.41 10.68a359.73 359.73 0 0 0 34.94 63.26c5.43 10.56 12.52 20 19.4 29.66a12.8 12.8 0 0 1 2.46 10.64c-3.75 19.87-7 39.84-10.93 59.68-1.77 8.94-3 18.1-6.93 26.5-2.48 0-4.14 1.73-6 3-9.24 6.14-16.51 14.4-24 22.38-3 .47-6.07.8-9 1.43q-57.26 12.14-114.49 24.34c-23.19 5-46.38 9.93-69.52 15.11-28.79 6.44-49.45 23.18-62.35 49.68-6.71 13.78-12.67 27.89-18.21 42.17-24.22 62.5-45 126.19-65.15 190.08-4.38 13.87-8.86 27.71-13.22 41.58-.75 2.41-1.93 4.12-4.57 4.46-5.2-7.07-10.45-14.12-15.6-21.23-38.75-53.54-63.61-113-76.06-177.81-3.89-20.28-5.16-40.91-7.6-61.39q0-17.47.1-34.95c.07-4.59.21-9.18.21-13.77q0-114.84 0-229.67a436.23 436.23 0 0 1 8.2-82 35.77 35.77 0 0 0 .84-10.25c4.94-13.66 8.31-27.77 11.59-41.89a20.14 20.14 0 0 0 0-4.59v.21l2.43-2c2.91-7.07 5.89-14.11 8.72-21.21a445.51 445.51 0 0 1 224.48-237.46 431.34 431.34 0 0 1 109.15-34.58 466.36 466.36 0 0 1 81.2-6.75q126.57.24 253.13 0c71.94-.23 139.75 16.42 203.6 49.18a430.11 430.11 0 0 1 104.16 75c24 23.37 45.63 48.67 63.82 76.79 22.18 34.29 39.76 70.83 51.77 109.93 2.7 8.78 4.85 17.74 7.43 26.56 1.06 3.56 1.12 7.61 4.07 10.51z" fill="#46abb0"/><path d="m1784.71 1470.25c0 11.11.29 22.23-.08 33.33-.42 12.93-9 23.06-21 27.25-14.9 5.22-36-4.63-38.42-25.67a49.85 49.85 0 0 1 -.13-5.74c0-19.54 0-39.08 0-58.62a36 36 0 0 1 2.11-13.51c5.27-13.4 18.49-20.82 33.29-18.55 12.71 2 23.51 13.59 24.13 27 .52 11.47.1 23 .1 34.47z" fill="#353434"/><path d="m1747.19 1583.81c1.29-8.93.39-18.1.58-27.23 0-2.3-1.41-3.43-3.3-4.1-1.44-.52-3-.77-4.41-1.25-21-7-35-25.07-36-47-.5-11.47-.2-23-.21-34.46a17.26 17.26 0 0 1 .57-4.53c.71-2.5 2.65-3.64 5.16-3.69s4.67 1.15 5.26 3.57a35.63 35.63 0 0 1 .64 8c.1 10.34-.19 20.7.2 31a39.51 39.51 0 0 0 27.43 36c18.34 6 36.05-3.44 44.23-15.94a40 40 0 0 0 6.91-22.7c-.1-10-.06-19.92 0-29.88a21.45 21.45 0 0 1 .83-6.76c.82-2.34 3-3.3 5.56-3.17a4.84 4.84 0 0 1 4.84 4 9.55 9.55 0 0 1 .32 2.26c0 13.4.83 26.89-.38 40.19-1.82 20-13.06 33.8-31.5 41.68a72.7 72.7 0 0 1 -7.63 2.4c-2.9.88-4.35 2.6-4.27 5.84.16 6.89 0 13.79.07 20.68.08 5.31.82 6 5.8 6.25 3.82.17 7.66.11 11.47.4a5.79 5.79 0 0 1 4.59 3.06 6.2 6.2 0 0 1 -4 9 24.9 24.9 0 0 1 -4.57.3q-20.68 0-41.37 0c-.77 0-1.53 0-2.3-.08-4.2-.41-6.7-2.81-6.63-6.34s2.54-5.75 6.94-6.16c2.28-.21 4.59-.1 6.89-.15 1.91 0 3.83-.05 5.74-.2a11.81 11.81 0 0 0 2.54-.99z" fill="#353434"/><path d="m553.7 1090.42c-.24-4.57-.66-9.15-.67-13.73-.07-23.33 0-46.67-.06-70 0-4.2-.3-8.4-.47-12.6q.25-7.37.52-14.74a66.88 66.88 0 0 1 .35-6.8c.41-3 2.57-4.59 5.3-5.22s6.26 1.75 6.89 4.72a44.37 44.37 0 0 1 .78 9c.09 12.5 0 25 .07 37.52 0 2.64.32 5.28.49 7.92q-1.06 30.06 0 60.11c-.2.31-.37.65-.59.94-4.9 6.46-5.13 6.46-12.61 2.88z" fill="#ec5b7e"/><path d="m1987.29 826.52a6.75 6.75 0 0 1 -6.86 1.34c2.02-1.8 4.4-1.81 6.86-1.34z" fill="#a1d6d1"/><path d="m868.55 780.41-2.43 2a2.41 2.41 0 0 1 2.43-2z" fill="#39b39d"/><path d="m1391.61 1622.55c-2.91-14.61-6-29.17-8.69-43.83-5.1-28.19-10.2-56.38-14.79-84.66-4.72-29-9-58.14-13.19-87.25-2.79-19.28-5.17-38.62-7.71-57.94-2.83-21.59-5.77-43.16-8.4-64.78-.83-6.81-.85-13.73-1.23-20.59 1.88-1 2.36-2.82 3-4.66 2-6.17 4.15-12.31 6.23-18.46 5.42-16.06 13-31.09 23.8-44.13 11.93-14.35 26.4-24.3 46.29-23a42.14 42.14 0 0 0 5.73 0c16.32-1.12 28.94 6.83 39.45 17.75 9.51 9.9 16.6 21.77 22.3 34.45a224.44 224.44 0 0 1 13.09 36.63 7.3 7.3 0 0 0 3.27 4.48c-.2 3.05-.25 6.11-.63 9.14q-4.74 37.57-9.61 75.14c-2.55 19.73-4.91 39.48-7.79 59.17-4.09 28-8.65 55.94-12.87 83.94q-7.6 50.51-18.06 100.51c-2 9.35-3.69 18.75-5.52 28.12l.11-.08c-4.57.22-9.14.56-13.71.64-13 .22-25.94.33-38.92.49z" fill="#39b39d"/><path d="m1564 1622.62q-9.24-38.92-18.47-77.86c-.71-3-1.84-5.88-2.12-8.89-.32-3.44-2.59-5.37-4.61-7.61l13.34-1.79c4.58 19 9.21 37.91 13.7 56.89 3.08 13 6 26.07 9 39.11z" fill="#baad9e"/><path d="m1264.15 756.53c.95-6.3-1.73-12.07-2.82-18-3.7-20.33-7.82-40.59-11.75-60.87a96.2 96.2 0 0 1 -1-26.35c.87-10.56 5.07-20 11.33-28.45 2.49-3.39 5.27-6.58 8.07-9.72 1.59-1.78 2.9-3.6 2.85-6.05-.09-4.18 1.91-7.22 4.9-9.92 13.65-12.33 27.16-24.81 42.27-35.39 23.76-16.64 50.17-25.5 79-28.18 23.24-2.15 45.88-.25 68 7.21 25.62 8.66 46.21 23.75 58.86 48.24 2.15 4.17 4.63 5.35 9.05 4.58 10.42-1.8 19.65 1.54 28.12 7.4a67.25 67.25 0 0 1 25.46 33.18 86.22 86.22 0 0 1 5.12 24.65 288.52 288.52 0 0 1 -3.68 63c-1.67 10.2-3.58 20.36-5.26 30.55a33.79 33.79 0 0 0 0 5.69c-3.12 6.28-3.45 13.27-4.92 19.94-3.06 13.83-5.79 27.74-10.3 41.19-1.45 4.33-2.75 8.82-5.93 12.34a2.81 2.81 0 0 1 -1.93 1 2.18 2.18 0 0 1 -2.18-2.1c-.86-13-1.8-26-2.61-39-1.11-18-2.1-35.93-3.21-53.9-.21-3.44-.89-6.84-1.08-10.28s-1.27-5.64-4.42-7.34c-12.28-6.64-20.47-17-26.34-29.46-1.08-2.29-1.23-5.28-4.78-6.93-11.17 11.75-26.49 15.29-41.8 18.64a171.17 171.17 0 0 1 -59.34 2.5c-32.36-4.23-61.4-15.65-86.26-37.09q-6.52-5.62-13.24-11c-4-3.25-5-3-7.53 2-2.2 4.46-4.18 9-6.26 13.56a35 35 0 0 0 -3.21 15.6c.71 35.68-3.11 71.14-5.57 106.66-.72 10.32-1.48 20.63-2.45 30.92-.22 2.34.57 6.16-2.91 6.29-2.13.07-2.7-3.35-3.45-5.48-4.84-13.75-8.11-27.92-11.6-42-2.29-9.29-3.29-18.84-7.2-27.63z" fill="#3c2321"/><path d="m1264.15 756.53c3.91 8.79 4.91 18.34 7.18 27.56 3.49 14.12 6.76 28.29 11.6 42 .75 2.13 1.32 5.55 3.45 5.48 3.48-.13 2.69-4 2.91-6.29 1-10.29 1.73-20.6 2.45-30.92 2.46-35.52 6.28-71 5.57-106.66a35 35 0 0 1 3.21-15.6c2.08-4.53 4.06-9.1 6.26-13.56 2.49-5 3.48-5.28 7.53-2q6.72 5.38 13.24 11c24.86 21.44 53.9 32.86 86.26 37.09a171.17 171.17 0 0 0 59.34-2.5c15.31-3.35 30.63-6.89 41.8-18.64 3.55 1.65 3.7 4.64 4.78 6.93 5.87 12.46 14.06 22.82 26.34 29.46 3.15 1.7 4.23 4 4.42 7.34s.87 6.84 1.08 10.28c1.11 18 2.1 35.94 3.21 53.9.81 13 1.75 26 2.61 39a2.18 2.18 0 0 0 2.18 2.1 2.81 2.81 0 0 0 1.93-1c3.18-3.52 4.48-8 5.93-12.34 4.51-13.45 7.24-27.36 10.3-41.19 1.47-6.67 1.8-13.66 4.92-19.94 6.18 1.75 10.68 5.92 14.59 10.66 7.45 9 9.59 19 4 29.78a111.28 111.28 0 0 1 -8.36 13.65c-6.78 9.36-12.25 19.27-15.38 30.5-2.64 9.43-7.34 17.71-16.33 22.59-3.48 1.89-4.19 5.23-5.52 8.34a378.22 378.22 0 0 1 -34.45 63.29c-5.18-16.34-5.72-33.17-5.34-50.09.24-10.84.64-12.34-11-11.11a77.06 77.06 0 0 1 -8 .23l-148.47.68c-5 0-10 .05-15 .23-3 .11-4.36 1.43-4.25 4.16.19 5 .61 10 1 14.91 1.12 14.58 1.13 29.07-3 43.27a359.73 359.73 0 0 1 -34.94-63.26c-2.07-4.79-4.4-8.4-9.41-10.68-6.49-2.93-10.78-8.48-13.76-14.91a41.7 41.7 0 0 1 -2.45-6.43 95.12 95.12 0 0 0 -16.5-32.62 68.41 68.41 0 0 1 -8.63-14.89q-5.31-12.66 2.27-24.07c4.96-7.6 11.43-13.32 20.43-15.73zm60.41 21.39c-2.06-.35-2.27.89-2.1 2.46 2 2.79 3.69 5.85 6 8.33 17.49 18.65 44.48 17.77 59.94-1.84 1.53-.74 2.69-2 1.45-3.5-4-5-8.52-9.63-14.76-12-15.85-10.24-31.32-8-46.58 1.4-1.37.84-2.13 2-1.44 3.7l-.12-.72c-1.84-.32-3.08 0-2.54 2.31zm136.44 9.08c3.7 6.93 10.28 10.29 17.13 12.64 6 2.06 12.38 4.45 18.92 1.34 13.72-1.39 23-9.25 29.8-20.6a4.88 4.88 0 0 0 -2-5c-12.46-9.43-32.46-16.5-50.91-3.95-6.07 2.57-10.71 6.9-14.58 12.09-1.36 1.72.33 2.66 1.64 3.48zm-155.37-30.67c7 0 11.15.32 15.27-.05 19.88-1.81 39.84-1.49 59.76-2.34 2.3-.1 4.61 0 6.89-.21 5.17-.45 6.35-3.38 3.31-7.81-1.81-2.63-4-4.65-7.19-5.33-3-.65-6-1.55-9-1.6-11.5-.23-23-.19-34.51-.16a17.32 17.32 0 0 0 -5.66.76c-9.81 3.49-18.67 8.57-28.92 16.74zm236.91 0c-11.85-10.51-24.14-19.1-40.76-17.75-9.11.74-18.32.16-27.47.47-5 .17-9.92 1.23-13.38 5.41-1.7 2-3.71 4.3-2.21 7.11 1.2 2.27 3.86 2.12 6.14 2.22 1.91.09 3.82.07 5.73.15 19.82.87 39.7.51 59.49 2.34 4.07.39 8.25.06 12.41.06z" fill="#e38456"/><path d="m1491 993.71c4.6 23.2 8.29 46.59 14.18 69.53-.27 8.38 3.21 15.6 7.08 22.69-.24 24.2-10.24 43.65-28.81 58.81a126.78 126.78 0 0 1 -13.18 9.2c-12.81 8-26.89 13-41.38 16.77a42 42 0 0 1 -20.49.06 151.79 151.79 0 0 1 -36.54-13.52c-10.55-5.62-20.23-12.46-28.27-21.42-12.31-13.71-18-30.06-19-48.22 2.85-3.42 6.43-6.43 6.46-11.44 5-3.64 6.39-9.43 8.19-14.71 3.57-10.49 6.5-21.19 9.58-31.84 1.7-5.89 3.36-11.78 6.6-17 3.42-5.57 6.39-6.92 12.49-4.38 22 9.15 44.95 11.8 68.54 10.66 19.41-.93 36.78-6.55 50.38-21.23 1.28-1.44 2.78-2.67 4.17-3.96z" fill="#e38456"/><path d="m1491 993.71c-1.4 1.3-2.9 2.52-4.19 3.91-13.6 14.68-31 20.3-50.38 21.23-23.59 1.14-46.53-1.51-68.54-10.66-6.1-2.54-9.07-1.19-12.49 4.38-3.24 5.27-4.9 11.16-6.6 17-3.08 10.65-6 21.35-9.58 31.84-1.8 5.28-3.21 11.07-8.19 14.71 0-3.53 0-7.06 0-10.58 4-8.4 5.16-17.56 6.93-26.5 3.92-19.84 7.18-39.81 10.93-59.68a12.8 12.8 0 0 0 -2.46-10.64c-6.88-9.61-14-19.1-19.4-29.66 4.14-14.2 4.13-28.69 3-43.27-.38-5-.8-9.93-1-14.91-.11-2.73 1.28-4 4.25-4.16 5-.18 10-.2 15-.23l148.47-.68a77.06 77.06 0 0 0 8-.23c11.64-1.23 11.24.27 11 11.11-.38 16.92.16 33.75 5.34 50.09a258.47 258.47 0 0 1 -24.93 37.11c-4.92 6.25-7.24 12.21-5.16 19.82zm-117.81-109.08c8.22 7.48 15.07 14.09 22.35 20.16a30.4 30.4 0 0 0 10.13 5.18 65.65 65.65 0 0 0 37.34 1.08 26.35 26.35 0 0 0 11.19-5.62c7.27-6.66 14.37-13.5 21.93-20.64a91 91 0 0 0 -42.31.32c-6.11 1.44-12.19 1.95-18.17.34-13.57-3.65-27.15-3.56-42.46-.82z" fill="#3c2321"/><path d="m1512.27 1085.93c-3.87-7.09-7.35-14.31-7.08-22.69 10.22 5.15 18.49 12.71 26.09 21.1 2 2.2 4 4.42 6 6.63 22.85 32.64 34.33 69.77 42.6 108.15 5.74 26.58 9.19 53.54 13.64 80.34 5 30.2 9.66 60.46 14.52 90.69a48.33 48.33 0 0 0 1.64 5.68c8 1.16 16.19.11 23.93 2.73 3.6 1.23 7.33 2.09 10.94 3.29 1.66.55 2 2.14 2.1 3.73a643.49 643.49 0 0 0 -6.9 6.92 2.84 2.84 0 0 0 -2.3 2.31c-3.48.62-6.85-.18-10.24-.83-35.31-6.78-70.61 15.54-79.18 50.24a68 68 0 0 0 -1.25 28.46c2.77 15.83 4.83 31.79 7.15 47.7.32 2.26.68 4.62-1.82 6.09l-13.35 1.79c-4.62-22.5-8.73-45.2-9.09-68.13-.55-34.71 22.5-66.34 55.35-78.58 3.53-1.32 7.42-1.78 10.66-4.47q-8.62-53.14-17.29-106.45c-3.32-20.4-6.3-40.87-10.12-61.18-4.61-24.48-11-48.51-20.55-71.61-5.87-14.22-13-27.74-22.61-39.81a58.32 58.32 0 0 0 -4.81-4.75c-1.93-3.28-4.19-6.18-8.03-7.35z" fill="#353434"/><path d="m1331.08 1065.59v10.58c0 5-3.61 8-6.46 11.44a15.19 15.19 0 0 0 -7.95 7.33c-8.53 8-14.27 17.92-19.59 28.09-11.27 21.52-18.53 44.51-23.24 68.23-4.39 22.14-7.9 44.46-11.58 66.74q-7.76 47-15.15 94.09c-1.39 8.69-2.48 17.42-3.7 26.13-4.15 1.9-8.32-1-12.47 0-1.44-3.38-.68-6.78-.13-10.19q11.32-70.36 22.66-140.73c3-18.53 6.29-37 11-55.21 7.54-29.2 19-56.56 36.61-81.19 7.54-8 14.81-16.24 24-22.38 1.86-1.2 3.52-2.91 6-2.93z" fill="#353434"/><path d="m513.92 1029.45v22.93a40.05 40.05 0 0 1 -.45 6.84 6.46 6.46 0 0 1 -12.8 0 17.07 17.07 0 0 1 -.31-3.42c0-17.19 0-34.39 0-51.58a18.52 18.52 0 0 1 .91-5.58 6.48 6.48 0 0 1 6.39-3.92 6 6 0 0 1 5.2 3.94 22.25 22.25 0 0 1 1 6.71c.11 8 0 16 0 24.07z" fill="#ec5b7e"/><path d="m2320.82 1029.21c0-7.63 0-15.27 0-22.9a33.07 33.07 0 0 1 .47-6.83 6.13 6.13 0 0 1 4.71-4.48c2.34-.65 5.45.85 6.81 3.13a12.55 12.55 0 0 1 1.53 6.6v50.39a11.43 11.43 0 0 1 -1.59 6.57 6.78 6.78 0 0 1 -5.72 3.25 6.49 6.49 0 0 1 -5.74-4.79 42.12 42.12 0 0 1 -.45-6.84c-.05-8.06-.02-16.08-.02-24.1z" fill="#ec5b7e"/><path d="m146.23 1029.88c0 10.73.05 21.45 0 32.17a23.24 23.24 0 0 1 -.87 6.76 5.16 5.16 0 0 1 -5.35 3.52 5.34 5.34 0 0 1 -5.33-3.59 17.49 17.49 0 0 1 -.84-5.62q-.09-33.31 0-66.63a17.46 17.46 0 0 1 .86-5.62 5.29 5.29 0 0 1 5.39-3.49c2.46 0 4.61 1.15 5.33 3.56a24.83 24.83 0 0 1 .83 6.77c.03 10.73-.02 21.45-.02 32.17z" fill="#ee4c78"/><path d="m2701 1029.65v30.92a43.32 43.32 0 0 1 -.37 6.84 6.33 6.33 0 0 1 -6.68 5 6.21 6.21 0 0 1 -5.81-4.69 24.86 24.86 0 0 1 -.58-5.65q-.06-32.05 0-64.11a25.43 25.43 0 0 1 .88-6.73c.72-2.59 3.51-4.15 6.27-4s5.35 2 5.78 4.66a51.7 51.7 0 0 1 .49 8c.07 9.92.02 19.84.02 29.76z" fill="#ec5b7e"/><path d="m1316.63 1094.94a15.19 15.19 0 0 1 7.95-7.33c1.06 18.16 6.71 34.51 19 48.22 8 9 17.72 15.8 28.27 21.42a151.79 151.79 0 0 0 36.54 13.52 42 42 0 0 0 20.49-.06c14.49-3.82 28.57-8.8 41.38-16.77a126.78 126.78 0 0 0 13.18-9.2c18.57-15.16 28.57-34.61 28.81-58.81 3.84 1.17 6.1 4.07 8 7.35-1.44 13.22-3.13 26.42-4.23 39.67-.76 9.1-1.57 18.17-2.59 27.25-1.39 12.46-2.62 24.93-4.35 37.36-1.35 9.78-1.71 19.7-2.92 29.51-1.62 13.2-3.63 26.34-5.47 39.51a7.23 7.23 0 0 1 -3.28-4.47 224.44 224.44 0 0 0 -13.09-36.63c-5.7-12.68-12.79-24.55-22.3-34.45-10.51-10.92-23.13-18.87-39.45-17.75a42.14 42.14 0 0 1 -5.73 0c-19.89-1.32-34.36 8.63-46.29 23-10.84 13-18.38 28.07-23.8 44.13-2.08 6.15-4.21 12.29-6.23 18.46-.6 1.84-1.08 3.67-3 4.66-2.79-7.52-3.23-15.45-4.13-23.3-1.18-10.17-2.14-20.39-3.8-30.48-1.24-7.52-.85-15.1-2.38-22.66-2-10-2-20.37-3.09-30.57-1.2-11.69-2.72-23.36-3.85-35.06-.58-6-.62-12.16-.84-18.24-.04-3.1.07-6.22-2.8-8.28z" fill="#a1d6d1"/><path d="m1207.27 1466.39a12.29 12.29 0 0 0 -5.19-5.18c-.68-2.76-1.37-5.51-2.06-8.27 2.17-.63 4.37-1.16 6.48-2a2.23 2.23 0 0 0 1-1.87c0-.47-.93-1.15-1.51-1.22a6.73 6.73 0 0 0 -3.38.19c-6.56 2.79-11.29-.31-14.85-5.16-9.52-12.94-5.64-31.26 3.16-40s16.87-5.76 22.66 3.21a15.9 15.9 0 0 1 2.58 8.68c0 8.36 1.13 16.87-3.78 24.47a3 3 0 0 0 -.35 1.09c-.2 1.11-.66 2.44.53 3.11a2.07 2.07 0 0 0 2.75-1.09c1.47-2.67 3.35-5.3 4-8.19 2.31-9.75 3.15-19.55-1.37-29-1.66-3.47-3.42-6.83-7.18-8.59a7.33 7.33 0 0 1 -3.7-4.19c4.27-2.51 8.48-5.14 12.86-7.47 1.62-.87 3.76-1.74 5.43-1.41 7.88 1.56 15.46 3.41 20.69 10.77 14.46 20.31 12 52.75-7.18 69-7.92 6.71-16.14 10-26.15 4.78a31.09 31.09 0 0 0 -5.44-1.66z" fill="#a1d6d1"/><path d="m1305.58 756.33c10.25-8.17 19.11-13.25 28.86-16.74a17.32 17.32 0 0 1 5.66-.76c11.51 0 23-.07 34.51.16 3 0 6 1 9 1.6 3.17.68 5.38 2.7 7.19 5.33 3 4.43 1.86 7.36-3.31 7.81-2.28.2-4.59.11-6.89.21-19.92.85-39.88.53-59.76 2.34-4.11.37-8.28.05-15.26.05z" fill="#3c2321"/><path d="m1542.49 756.34c-4.16 0-8.34.33-12.46-.05-19.79-1.83-39.67-1.47-59.49-2.34-1.91-.08-3.82-.06-5.73-.15-2.28-.1-4.94.05-6.14-2.22-1.5-2.81.51-5.07 2.21-7.11 3.46-4.18 8.37-5.24 13.38-5.41 9.15-.31 18.36.27 27.47-.47 16.62-1.35 28.91 7.24 40.76 17.75z" fill="#3c2321"/><path d="m1473.86 771.47c18.45-12.55 38.45-5.48 50.91 3.95a4.88 4.88 0 0 1 2 5c-5.6-2.32-11.1-4.92-16.83-6.84-2.11-.71-4.89-2.31-7.32.3.64 1.41 1.26 2.79 1.89 4.16 2.89 6.37 1.12 11.85-3.33 16.72a44.64 44.64 0 0 1 -4.28 3.69c-3.37.09-6.79.58-10.1.2-6.92-.8-12.21-6.82-12.66-13.79a15.79 15.79 0 0 1 2-8.67c-1.24-1.35-2.33-2.75-2.28-4.72z" fill="#3c2321"/><path d="m1327.09 776.47c-.69-1.69.07-2.86 1.44-3.7 15.26-9.38 30.73-11.64 46.58-1.41 0 1.38-.07 2.75-.11 4.12-2.14 3.17.48 6.29.06 9.54-.81 6.29-4 10.88-9.65 12.92-5.93 2.14-12.12 1.75-17-3.05-4.27-4.24-6.52-9.3-4.21-15.45.77-2.06 1.64-4.09 2.69-6.7-4.27-.28-7.75.71-11.36 1.86-2.66.87-5.22 3.11-8.44 1.87z" fill="#3c2321"/><path d="m1476.19 776.15c-7.12.74-10.81 6.31-15.23 10.85-1.27-.82-2.92-1.76-1.68-3.44 3.87-5.19 8.51-9.52 14.58-12.09-.05 1.97 1.04 3.37 2.33 4.68z" fill="#353434"/><path d="m1388.42 786.87a56.32 56.32 0 0 0 -13.42-11.39c0-1.37.07-2.74.11-4.12 6.24 2.38 10.73 7 14.76 12 1.24 1.56.13 2.77-1.45 3.51z" fill="#353434"/><path d="m1327 775.75c1.09 2.91-1 2.36-2.54 2.31-.57-2.3.67-2.63 2.54-2.31z" fill="#3c2321"/><path d="m1324.56 777.92c.39 1.76-.94 2-2.11 2.46-.16-1.57.05-2.81 2.11-2.46z" fill="#3c2321"/><path d="m1373.19 884.63c15.31-2.74 28.89-2.83 42.46.82 6 1.61 12.06 1.1 18.17-.34a91 91 0 0 1 42.31-.32c-7.56 7.14-14.66 14-21.93 20.64a26.35 26.35 0 0 1 -11.19 5.62 65.65 65.65 0 0 1 -37.34-1.08 30.4 30.4 0 0 1 -10.13-5.18c-7.28-6.07-14.13-12.68-22.35-20.16z" fill="#e38456"/></g></svg>