<svg viewBox="0 0 1847.88 1543.26" xmlns="http://www.w3.org/2000/svg"><g transform="translate(-468.43 -561.21)"><path d="m2108.84 1407.49a407.1 407.1 0 0 1 1.51 51.32c-.45 19-.95 37.91-2 56.84-1.92 34.7-3.85 69.38-4.05 104.16-.09 16.63-.67 33.26.43 49.87 2.06 24 4.82 48 8 71.89l.84 13.84c.41 23.39-.43 46.77-.93 70.15q-1.45 25.43-2.89 50.84c-.2 5.27-1.7 10.47-.95 15.79-1.12 16.59-2.9 33.13-3.2 49.77-.3 1.94-.59 3.88-.91 5.82-.42 2.65.71 5.68-1.89 7.81a4.71 4.71 0 0 0 -1.47.17c-16.46 7.64-32.95 8.16-49.55.38-2.5-1.17-3-2.89-3.31-5.44-.8-6.1.08-12.52-3-18.24 1.41-4.73-.15-9.27-.9-13.86.32-2.47-.41-4.79-1-7.13.09-3 .22-6.06-1-8.94-.37-2.36 1-5-1.13-7.07a21.86 21.86 0 0 0 -.94-9.93 313.53 313.53 0 0 0 -4-33c-.24-8.5-1.87-16.84-2.8-25.26-5.82-52.72-14.55-105-21.74-157.57-1.86-13.64-2.52-27.43-3-41.2 2.11-.53 1.45-2.27 1.61-3.67 1.4-11.81 2.77-23.62 4.22-35.42 1.55-12.61 3.19-25.21 4.8-37.82q2-15.72 4.06-31.43a3.64 3.64 0 0 1 2.69-3.29c5.36-1.16 9.34-4.75 13.9-7.36 14.56-8.35 26.16-20.17 37.79-32 .9-.91 2.31-2.09.95-3.33-1.15-1.06-1.94.63-2.81 1.24a323.31 323.31 0 0 1 -40.75 24.67c-9.33 4.71-18.71 9.33-28.06 14-1.05.53-2.55.35-2.29 2.5 1.45 12-.51 24.2 1.33 36.23-3.27 18-4.47 36.26-6.6 54.4-4.55 38.63-8.74 77.3-12.84 116-.75 7-2.51 14-1.62 21.25a266.62 266.62 0 0 1 1.75 50.28q-1.67 25.38-3.34 50.75c-.72 7.6-1.49 15.19-2.14 22.79-2.14 24.82-4.21 49.64-6.36 74.45q-3.87 44.91-7.83 89.8a13.85 13.85 0 0 0 -3.44.36 115.45 115.45 0 0 1 -28.34 7c-12.13 1.3-23.93 1-34.85-6.06-4.29-2.76-7.17-6.89-11.43-9.48.13-1.82.4-3.64.39-5.47 0-41.16 0-82.32-.23-123.47-.07-15 .31-30-1-44.93.34-19.31-1-38.57-1.83-57.84-1.12-26.6-3.34-53.2-2-79.84 2.08-40.4 2.66-80.83 3.06-121.27q.38-38.46 1-76.9c.52-30 1.22-59.9 1.84-89.86 23.09 11 47.86 14.26 73 15.46a350.14 350.14 0 0 0 39.4-.61c18.23-1.19 36.47-2.28 54.33-6.23 19.34-4.25 38.07-9.93 51.52-25.91z" fill="#3a5b66"/><path d="m2108.84 1407.49c-13.45 16-32.18 21.66-51.46 25.93-17.86 3.95-36.1 5-54.33 6.23a350.14 350.14 0 0 1 -39.4.61c-25.13-1.2-49.9-4.47-73-15.46-2.82-1.34-2-3.92-2-6.13q0-87.81 0-175.61c0-2 .51-4-.61-5.85 4.16-4.73 8.2-9.59 12.53-14.18q33.17-35.12 29.92-83.27c-.69-10.53-3.18-20.68-10-29.21a4.46 4.46 0 0 1 3-1.07c4.66.26 8.57-2.74 13.1-3 6.74 11.14 15.3 20.32 27.39 25.82 20.11 9.14 41.1 12.64 63.19 11.48 13-.69 25-3.92 35.8-10.55 15.44-9.45 29.78-22.57 18.71-43.09a1.11 1.11 0 0 1 -.05-.49c18.62 5.84 31.29 17.56 36 36.92 2.78 11.48 3.56 23.21 4.33 35 1.44 22.3.06 44.44-1.95 66.62-.64 7.08-2.78 14-2.14 21.21-2.56 6.16-2.56 12.82-3.68 19.25-2 11.69-4.15 23.38-4.4 35.29-1.61 25.53-2.55 51.07-2 76.66q.52 13.4 1.05 26.89z" fill="#56c2b2"/><path d="m1280.89 1428.48q0 127-.07 254a4.72 4.72 0 0 0 .19 1c-.09 14.65-.08 29.31-.3 44-.17 11.75-5.49 21.13-15.44 26.89q-225.63 130.53-451.45 260.75a22.6 22.6 0 0 1 -8.26 3.27c-6.66-2.87-8-8.2-8-15q.16-249.37.06-498.77a52.13 52.13 0 0 0 19.92-3c0 1.17.14 2.33.14 3.49q0 186.69 0 373.37c0 6.3-.06 12.6 0 18.9.1 9.62 6.12 13.15 14.51 8.37 9.47-5.4 18.86-10.94 28.32-16.37 4-2.31 8.69-4 11.93-7.72 2.07-1 4.19-2 6.19-3.11q73-42.06 146-84.15c2.7-1.61 5.37-3.25 8.08-4.81q16.61-9.58 33.23-19.08a5 5 0 0 0 2.94-4.16c.9-7.7 2.06-15.37 3.12-23.06q3-21.33 6-42.67l16.2-2.06c1.47.2 2.64.74 2.3 2.52-.52 2.76-1.14 5.5-1.7 8.25-3.08 15.08-6.18 30.15-9.16 45.24-.24 1.17-1.58 2.73-.13 3.66s2.85-.47 4.09-1.18c7.23-4.12 14.39-8.33 21.59-12.49q33.9-19.58 67.81-39.17c9.32-5.42 18.51-11 27.77-16.59a135.08 135.08 0 0 0 21-12.23c7.86-2.81 14.44-7.93 21.55-12.07 1.49-.87 3.48-1.54 3.44-3.87 5.21-2.61 6-7.34 6-12.48q0-71.44 0-142.89 0-47.7-.11-95.42c6.08 3.94 12 8 18.27 11.73 2.79 1.63 4.26 3.62 3.97 6.91zm-217.27 393.15c0-19.43-8.4-24.37-21.88-16.64a45.68 45.68 0 0 0 -14.51 13.44c-7.85 11-13.32 23-12.56 36.92.6 11 8 15.64 18.15 11.37a21 21 0 0 0 3.55-1.78c16.93-11.21 25.42-27.31 27.25-43.31z" fill="#3a5b66"/><path d="m1280.89 660.5c-.06 1.66-.16 3.32-.16 5q0 315.28 0 630.57c0 1.83.1 3.66.16 5.48-.15 1.45-.3 2.9-.53 5.23l-21.84-20.9c0-2 .13-4 .13-6q0-260 0-520c0-1 0-2 0-3-.26-6.3-5.49-10.42-11.34-8a90.85 90.85 0 0 0 -21.86 12.71c-2.17 0-3.7 1.41-5.38 2.38q-92.07 53.15-184.07 106.36-101.32 58.54-202.71 117c-11 6.33-15.72 15.38-15.71 27.84q.15 165.23.06 330.44c0 5.66.11 11.32.16 17l-15 27.93-5.08 8.11c0-1.67-.07-3.33-.07-5q0-213.4 0-426.81c0-14.19-2-28.64 4-42.29 3.92-2.79 6-7.33 10.41-9.84 24.39-14 48.64-28.25 73-42.37 12.74-7.39 25.56-14.67 38.31-22 11.88-6.85 23.69-13.81 35.58-20.63 12.22-7 24.63-13.68 36.73-20.89 16.22-9.67 32.61-19 49-28.36 9.76-5.55 19.34-11.43 29.17-16.88 13-7.22 25.43-15.56 38.51-22.66 18.62-10.12 36.68-21.21 55.1-31.67 18.9-10.73 37.81-21.46 56.55-32.48 10.72-6.3 21.81-12 32.16-18.89 3.31-2.2 7.09-3.68 10.43-5.85 4-2.59 8-.29 12-.53 1.49 1.75 1.48 4 2.12 6.09.1.92.14 1.91.17 2.91zm-275.34 201c-.09 2.08 0 4.11 2 5.34 2.88 1.76 5.17-.24 7.37-1.51 21.17-12.16 42.34-24.34 63.39-36.71 5.07-3 11-4.91 14.22-10.51 1.86-3.27 3.63-7 1-10.23-2.74-3.4-6.15-.88-8.94.72-24.36 14-48.72 27.91-72.94 42.09a12.31 12.31 0 0 0 -6.1 10.77zm41-56.53c0-4.36-3.09-7-6.43-5.62-5.26 2.19-9.34 9.32-8.56 15 .48 3.48 3.31 5.18 6.45 3.87 3.88-1.65 8.62-8.99 8.57-13.29zm-49 62.58c.1-3.73-3.08-6-6.56-4.58-4 1.68-7.63 7.69-7.32 12.07.26 3.74 3.52 5.9 6.59 4a15.37 15.37 0 0 0 7.27-11.53z" fill="#3a5b66"/><path d="m651.66 1909.48c-.61-18-10.7-28.87-29.37-32-7-1.16-14-2.33-20.95-4-28.92-6.87-33.59-31.52-22.34-53.45a63.27 63.27 0 0 1 3.9-6.38c6.3-9.32 6.15-18.9 1.47-28.8-4.08-8.64-10.73-15.58-15.39-23.85a39.91 39.91 0 0 1 3.72-45.25c11.9-14.41 27.36-17.61 44.94-13.77 10.33 2.26 19.65 7 28.88 11.86s18.74 8.37 29.16 9.35c3 .28 5.94-.44 8.9-.74 2.64-.06 5.25-.35 7.87-.61 6.92-.68 14-1.26 20.83.12 18.22 3.71 27.78 21.28 30.34 38.25 1 6.93 1.09 14.13 5.12 20.32.19 2.65.54 5.29.54 7.94q0 90.39 0 180.77c0 3.66-.07 7.32-.11 11-.36-3.13-1.08-4.43-5-3.25-15.72 4.66-31.8 6-47.34-.17-21.53-8.59-34.19-25.45-41.19-47-2.17-6.66-2.11-13.68-3.98-20.34zm65.88-80.88c-1.71-.6-3.45-1.13-5.14-1.79-28.09-11-56.46-12-85.09-2.23-1.78.61-4.64 1.14-3.82 3.64s3.26 1.22 5.12.56c23.45-8.33 47.06-8.28 71-2 16.55 4.38 29.67 12.3 36.33 29.13 3.37 8.52 8.18 16.47 12.42 24.82 2-8-2.26-14-5.56-20.28-22.11-41.76-52.19-76.9-89-106.31a211.71 211.71 0 0 0 -42.54-26.71c-1.61-.75-3.59-2-4.81.21s1.17 2.69 2.53 3.32c28.52 13.2 52.27 32.84 74.08 55 12.82 13.06 25 26.72 34.9 42.17z" fill="#56c2b2"/><path d="m1497.47 1444.52c-2.73 10.23-5.58 20.42-8.11 30.7-.8 3.28-2.49 5-5.57 6.11q-56.61 21-113.13 42.1-32.82 12.22-65.66 24.39a20.51 20.51 0 0 1 -2.35.53c3.6-14.59 7.37-29.14 10.77-43.78 7.06-30.46 13.9-61 20.88-91.47 3.32-14.5 6.79-29 10.14-43.46q6.13-26.57 12.18-53.16l2.79-1c14.75-5.36 29.75-10 44.27-16 1.78.45 3.18-.8 4.81-1 2.21-.32 4.57-3 6.36-1.25 1.31 1.24-.58 4-.8 6.05 0 .27.22.57.42 1 3-.83 5.93-1.83 9-2.46 1.9-.4 4.28-.74 5 1.8s-1.07 3.38-3.08 4.3c-5 2.26-9.86 4.82-14.81 7.19-3.47 1.65-5.21 4.42-5.87 8.11-.62 3.46-.29 4.94 3.91 3.42 27.18-9.82 54.38-19.59 81.72-29 4.81-1.65 5.74-4.71 6.26-8.75.31-2.33-.66-3.26-3-3.37-3.95-.17-7.52 1.16-11.18 2.26-.75.23-1.58.93-2.29.23-.87-.86-.29-1.84.12-2.74 1.86-4.07 5.52-6 9.22-8 1.69-.91 4.24-1.16 4.53-3.49.72-5.77 5.15-7.46 9.56-9.3 1.43-.37 2.9-.65 4.3-1.14 12.79-4.5 25.55-9.08 38.38-13.48 1.31-.45 2.94-2.1 4.49-.19q-9.3 34.41-18.59 68.84c-.64 2.38-1.09 4.82-1.64 7.23a28.12 28.12 0 0 0 -1.8 4c-2.41 8.73-4.73 17.48-7.08 26.23-.69 2.58-1.47 5.13-3.83 6.74a118 118 0 0 1 -49.65 19.89c-6.84 1-13.7 2.06-20 5.15-5.19 2.55-7.91 7-7.24 12.51 1.7 14.08 6.58 26.6 19.78 34.15 1.47 2.83 4.37 4.1 6.89 5.33 9.43 4.51 19.23 7.44 29.9 4.78z" fill="#05a990"/><path d="m1991.73 783.32q-37.85 22-75.7 44.07a38.76 38.76 0 0 1 -4.53 1.93c-5.23-1.14-7-4.45-7-9.69.14-34.08.08-68.17.06-102.25a13.09 13.09 0 0 1 1.15-6.28c1.64-3.18 1.16-5.6-2.4-7.29-2.82-1.35-5.27-3.52-8.11-4.81-6.3-2.87-11.46-7.94-18.45-9.44a23.45 23.45 0 0 1 10-10.11q99.57-57.42 199.09-114.94c7.42-4.28 15.12-4.32 22.88-.58 9.45 4.55 17.64 10.19 19.38 21.6a35.63 35.63 0 0 1 .39 5.46q0 49 0 98c0 10.5-4.37 18.35-13.73 23.64-23.87 13.48-47.57 27.26-71.42 40.79a11.77 11.77 0 0 0 -5.75 7c-4.5 13.34-9.26 26.6-13.82 39.92-1.18 3.45-2.57 5.59-6.21 2.48-2.74-7.44-7.54-13.77-11.18-20.73-3-5.78-3-5.76-8.72-2.19-1.93 1.17-3.95 2.27-5.93 3.42zm-65.16-10.53c-.22 8.19 2.49 9.91 8.32 7.06 1.34-.65 2.64-1.4 3.93-2.14q44.19-25.56 88.37-51.11 33.42-19.29 66.89-38.5c6-3.47 10.7-7.94 10.65-15.59 0-5.49-2.74-7.33-7.66-4.78-5.74 3-11.27 6.37-16.88 9.61q-72 41.53-144 83.1c-5.51 3.15-9.19 7.56-9.62 12.35zm0-41.1c-.16 7.38 2.8 9.28 8.18 6.73 1.2-.57 2.32-1.31 3.47-2l107-61.8q25.66-14.83 51.33-29.69a15.85 15.85 0 0 0 8.06-11.93c.34-2.36 1.13-5.41-1.38-6.94s-5.32-.59-8 .94q-80 46.25-160.08 92.4a16.57 16.57 0 0 0 -8.6 12.29z" fill="#56c2b2"/><path d="m1374.84 807.48c-1.22-3.38-5.41-1.57-7.13-4.08-.76-3.82.62-6.69 3.61-9.13 11.32-9.27 20.68-20.63 31.84-30.08a3.57 3.57 0 0 0 1.35-3.5c1.23-1 1.06-2.32 1.11-3.64.45-13.51-1.4-27.13 2-40.5 4.14-3 7.39-7 12-9.61q36-20.24 71.73-40.9c24.11-13.9 48.12-28 72.17-42 16.2-9.43 32.31-19 48.66-28.17 4.88-2.73 9.78-7.66 16.29-3.29a19.21 19.21 0 0 1 1.21 7.33c0 33.82 0 67.65-.05 101.48 0 9.39-4.17 16.53-12.4 21.28q-99.23 57.33-198.45 114.7c-2 1.15-4.2 2-6.3 2.94-5.74-.9-7.15-4.51-7-9.88.32-9 .11-18 .06-27 0-1.85.64-4.23-3-3.49-8.26 1.69-16.56 3.18-24.89 4.52-1.96.33-1.81 2.07-2.81 3.02zm103.93-68.48c.32-4.48-.12-8.82-4.59-10.82s-8.77-.09-12.41 2.93a33.3 33.3 0 0 0 -11.8 21.86c-.55 4 .38 8.11 4.21 10.55 3.53 2.25 7.23 1.21 10.36-.75 8.77-5.51 13.3-13.66 14.23-23.77zm53-29.44c-.09-5.53-.12-9.66-4.35-11.87s-8.08-.41-11.54 2.07c-8.06 5.77-12.26 13.94-13 23.58-.73 9 6 13.4 14 9.06 9.32-5.23 13.65-13.92 14.87-22.88zm52.91-31c0-5.44-.5-9.45-4.43-11.36-3.69-1.79-7.58-.84-10.82 1.55-8.67 6.36-13.77 14.81-13.65 25.76.09 7.24 6.53 11.22 12.89 7.88 10.05-5.39 14.85-14.27 15.99-23.9z" fill="#75cccc"/><path d="m1278.67 651.43c-4 .24-8-2.06-12 .53-3.34 2.17-7.12 3.65-10.43 5.85-10.35 6.93-21.44 12.59-32.16 18.89-18.74 11-37.65 21.75-56.55 32.48-18.42 10.46-36.48 21.55-55.1 31.67-13.08 7.1-25.49 15.44-38.51 22.66-9.83 5.45-19.41 11.33-29.17 16.88-16.41 9.34-32.8 18.69-49 28.36-12.15 7.25-24.56 13.89-36.75 20.89-11.89 6.82-23.7 13.78-35.58 20.63-12.75 7.37-25.57 14.65-38.31 22-24.33 14.12-48.58 28.37-73 42.37-4.37 2.51-6.49 7.05-10.41 9.84-2.09-.1-3.77-1.28-5.46-2.26q-21.24-12.22-42.43-24.65a27.7 27.7 0 0 1 11.52-12.05l362.08-209.1c28.48-16.45 57.07-32.72 85.39-49.44 13.33-7.86 26.18-8.37 39.37-.17 4.37 2.72 9 5.07 13.34 7.77a29.28 29.28 0 0 1 13.16 16.85zm-135.08 32c0 6.66 1.14 8.08 7 9.56a14.13 14.13 0 0 0 10.63-1.37q25-14.13 49.74-28.56c4.14-2.42 3.72-6.81 3.16-10.77-.52-3.62-3.32-5.08-6.65-5.81-5.77-1.27-10.74.64-15.6 3.48-14.21 8.3-28.42 16.6-42.73 24.71-3.8 2.22-6.51 4.64-5.55 8.8z" fill="#2c464f"/><path d="m2112.68 1825.56c.5-23.38 1.34-46.76.93-70.15.87-.43.88-1.3 1.13-2.09 10.9-34.1 24.86-66.85 43.71-97.38 23.16-37.5 51-70.67 88.78-94.39 1.87-1.18 3.43-2.52 2.07-4.76s-3.15-.85-4.71.09a217.36 217.36 0 0 0 -38.77 30.43c-27.88 27-49.44 58.63-67.13 93-10.18 19.76-18.25 40.42-25.92 61.25-3.21-23.9-6-47.86-8-71.89 5.24-11.25 10.19-22.64 15.76-33.72 13.44-26.73 29.65-51.6 51.2-72.6 15.46-15.06 32.7-27.43 54.51-31.29 22.09-3.92 41.54 2.22 57.65 17.73 10.07 9.7 10.88 22 7.12 34.71-4.74 16.09-14.46 29.42-24.43 42.53-17.33 22.8-37.05 43.63-54.88 66-8.57 10.75-17.55 21.23-24.1 33.45-.69 0-.93.48-1 1.07v-.07c-.86.4-.81 1.19-.81 2-10.27 9.62-20.41 19.34-29.68 30a268.8 268.8 0 0 0 -37 55c-1.91 3.78-3.45 7.85-6.43 11.08z" fill="#28b9a1"/><path d="m1591.56 874.66c15.08 6.68 20.33 19.83 22 34.77 3.16 28.45-4.15 55.24-13.89 81.57a7.89 7.89 0 0 1 -4 4.21c-12.4 7.08-24.84 14.11-37.06 21.5-3.63 2.2-4.2.67-5-2.34-4.58-17.1-9.29-34.16-13.91-51.25-.47-1.77-.74-3.6-2.35-4.76-2.73-2-5.78-.17-6.68 3.95q-8.07 37.1-16.1 74.2c-2.64 12.12-5.34 24.22-8.33 37.76-2.49-6.52-4.58-11.77-6.52-17.07-4.55-12.44-9-24.92-13.54-37.37-.9-2.47-1.56-5.51-5.06-5.19-3.3.31-3.8 3.3-4.52 5.84-4 14.17-8.09 28.32-11.88 42.54a10.6 10.6 0 0 1 -5.38 7.2c-13.31 7.5-26.51 15.19-39.73 22.84-1.35.79-3.27 1.2-3 3.45-20.83-33.56-18-68-4-103a2.82 2.82 0 0 0 2.74-1.8 76.31 76.31 0 0 1 13.5-23.44c4.67-5.55 8.19-11.93 13.38-17.11 2.89-2.88 7.3-2.91 9.71-5.75 5.07-5.94 12.45-7.08 18.93-10.09.86-.39 2.32-.9 2.8-.51 3.55 2.91 7.27 1.15 11 .68 9.39 2.55 14.15 10.5 20.1 18.18 4.71-14.94 11.14-28.13 18.06-41.1 1.9 0 4-.06 4.34-2.35.67-4.38 3.89-7.56 6.37-10.36 2.68-3 5.28-6.67 8.7-8.88 7.73-5 15.88-9.32 23.9-13.87a5 5 0 0 1 2.34-.48q9.43-.12 18.86-.14c1.66.02 3.33 0 4.22-1.83z" fill="#56c2b2"/><path d="m1932.83 929.58c-12.4-4.14-19.8-12.2-20.68-25.72-.57-8.88 3.89-13.89 12.82-13.4 6.1.34 12.12 1.95 18.92.88-1.56-2-3-3.75-4.24-5.55a20.81 20.81 0 0 1 -3.48-7.12c-1.6-6.45 1.76-9.81 8.1-7.89a118.69 118.69 0 0 0 20.81 4.79c12.78 1.46 25.15-1.15 37.52-3.65 18.18-3.67 36.17-5 53.81 2.61 12.53 5.42 21.93 13.61 25.5 27.4 1.64.05 1.79-1.6 2.62-2.43a11.93 11.93 0 0 1 15.87-1.21c2.42 1.89 3.46 3.45-.2 5.33-4.12 2.11-8 4.69-12 7.1 15.7 20.66 13.5 43 6.93 65.73-6.24 21.56-17.83 40.28-31.62 57.73-5.65 7.15-10.35 15-16.89 21.48a215.34 215.34 0 0 1 -25.79 1.89c-15.49.14-25.63-6.67-31.39-21-3.84-9.56-6.49-19.16-5.55-29.83 8.78 5.52 14.26 4.85 21.34-1.9a26.31 26.31 0 0 0 8.32-22.5c-.71-7.6-3.31-14.51-11.13-17.47-8-3-14.92-.13-21 5.38-3.41 3.1-5.33 7.16-7.3 11.19-1.42 2.89-2.86 6-6.91 5-3.67-1-4.43-4.15-4.61-7.43a46.45 46.45 0 0 1 4-21.82c1.09-2.43 1-3.49-1.74-4.72-8-3.65-13.58-9.4-14.37-18.72-.13-1.43-.08-3.32-2.42-2.8-5.25 1.22-10.18-.75-15.24-1.35z" fill="#1c2f36"/><path d="m526.51 1179.64c-9.93 4.5-18.86 10.78-28.46 15.89-1.43.76-2.65 2-4.47 1.89v-66.86c5.67-3.35 11.32-6.71 17-10q20.49-12 41-24l-.05-67q26.85-15.46 53.73-30.91c1.42-.81 2.41-1.71 2.37-3.43 2.81.55 3 2.62 2.84 4.91-.81 11-.75 22.05-.72 33.08 0 8-.15 16-.12 24 0 1.58-.87 3.69.72 4.64s3.11-.71 4.47-1.49c13.25-7.54 26.54-15 39.62-22.89 4.18-2.51 9-4.12 12.22-8.19 2.44.82 1.81 2.91 1.81 4.63 0 19.81-.07 39.63.11 59.44 0 3.28-1.5 4.67-4 6.07-16.43 9.39-32.77 18.93-49.24 28.23-3.54 2-5.09 4.27-5 8.56.26 19.15.09 38.3.14 57.44 0 2.48-.27 4.43-2.75 5.84-18.16 10.35-36.25 20.82-54.38 31.23a9.89 9.89 0 0 1 -1.83.64c0-20.82 0-41.64.11-62.46 0-3.93-.72-4.8-4.25-2.39-3.28 2.23-7.12 3.66-10.37 5.93-3.44 2.43-8.11 3.17-10.5 7.2z" fill="#56c2b2"/><path d="m753.81 897.57q21.21 12.36 42.43 24.69c1.69 1 3.37 2.16 5.46 2.26-6 13.65-4 28.1-4 42.29q-.13 213.4 0 426.81c0 1.67 0 3.33.07 5a6 6 0 0 1 -.09.85c-7.3-2.8-13.92-7-20.87-10.46-7.85-4-15.46-8.43-23.4-12.2-3.29-1.56-4.14-3.46-4.13-6.85.11-37.17.07-74.33.07-111.49q0-171.24 0-342.48c0-2.5.09-5 .14-7.49 1-3.8 1.87-7.68 4.32-10.93zm19.82 398c4.06-1.06 6.12-3.53 6.1-7.89-.08-18.49-.05-37-.09-55.49a15.49 15.49 0 0 0 -3.8-10.07c-4.48-5.36-7.41-5.48-12.78-.61-3.69.08-3.59 2.84-3.59 5.32q-.06 28.59 0 57.19c0 4.83 2.24 8.58 5.83 11.58 2.7 2.24 5.56 2.83 8.33-.07zm1.19-96.82c3.8-1.18 4.92-4 4.92-7.67q-.07-58.59 0-117.19a17.75 17.75 0 0 0 -3.94-11c-3.28-4.3-6.19-4.84-11.06-2.13-4.35 1.42-5.38 4.54-5.37 8.88.13 38.43.07 76.86.1 115.28a25.62 25.62 0 0 0 .43 6c2.1 8.58 8.32 11.84 14.92 7.79z" fill="#1c2f36"/><path d="m2112.68 1825.56c3-3.23 4.52-7.3 6.47-11.13a268.8 268.8 0 0 1 37-55c9.27-10.63 19.41-20.35 29.68-30 .48-.56 1.08-1.07.81-2v.07c.78.07 1.26-.16 1-1.07 3.09-.21 4.74-2.76 6.86-4.4 19-14.75 39-27.75 62.48-34.12 22.31-6 38.54-1 51.08 15.59 14.25 18.82 9.82 45-10.26 59.73-15 11-31.66 19.48-47.5 29.2-33.27 20.43-64.66 43.24-91.57 71.73-7.52 8-14.95 16.06-21 25.28-12.21 14.81-21.49 31.42-29.9 48.56-.65 1.32-1.43 2.59-2.14 3.88.3-16.64 2.08-33.18 3.2-49.76a15.54 15.54 0 0 0 1-1.68c20.1-43.56 49.2-80.33 84.51-112.48a461.67 461.67 0 0 1 85.05-61.5c2.36-1.32 7.6-1.63 5.4-5.93-2.4-4.68-5.86-.51-8.37.88a452.79 452.79 0 0 0 -80.35 56.9 400.75 400.75 0 0 0 -60.76 66.53c-9.54 13.23-17.64 27.29-25.57 41.48q1.43-25.32 2.88-50.76z" fill="#56c2b2"/><path d="m1839.78 1282.29c-10.88 11.82-22.84 22.24-37.42 29.35-14.33 7-26.33.84-34.5-10.06-6.87-9.16-9.13-20.21-10.22-31.39-2.43-24.68-2.67-49.46-3.21-74.23-.35-16-.67-31.94-2-47.83-1.43-16.84-3.88-33.61-6.25-50.36-2.71-19.15-2.53-38.13 2.93-56.78 3.18-10.86 10.42-18.28 21-22.48 9.58-3.79 19.89-5.13 29.41-9.28 5.73-2.5 10.53 1.84 10.12 8.22-.3 4.52-2 8.73-3.49 13-4.09 11.81-7.52 23.75-8.27 36.31a8.37 8.37 0 0 0 -.08 1.49c.51 3.64-.75 8.61 3.73 10s7.24-2.61 9.22-6.14a40.56 40.56 0 0 1 12-13.16c2.71-1.95 5.76-3.71 8.67-1.61 3.07 2.22 2.5 5.68 1.34 9.12a208.79 208.79 0 0 1 -24.23 49.05c-7.54 11.34-7 24.37-4.26 37.17 2.72 12.49 6 24.86 8.9 37.3.38 1.61.46 3.29.68 4.93l-19.46 26.73c-12.4 16.6-16.57 33.83-14.83 40.58 2.74-9.23 7.39-16.76 13.07-23.72 1.33-1.63 2.49-3.1 4.8-2.93 7.76 21.25 21.57 37.16 42.35 46.72z" fill="#f7a9a9"/><path d="m748.74 1780.57c-4-6.19-4.07-13.39-5.12-20.32-2.56-17-12.12-34.54-30.34-38.25-6.82-1.38-13.91-.8-20.83-.12-2.62.26-5.23.55-7.87.61-10.82-12.51-23.52-23-36.35-33.3-20.09-16.16-41.87-30-62.53-45.41-7.26-5.41-13.82-11.5-18.52-19.34-7.72-12.87-5.78-27.42 5.1-37.67 9.2-8.65 20.39-12.93 32.75-14.21 28.3-2.93 52.29 8.3 74.67 23.75 28 19.38 48.83 45.36 65.91 74.53a10.9 10.9 0 0 0 3.21 3.78v-195.8l.55.74c0 1.16.12 2.32.12 3.48 0 59.93.13 119.87-.07 179.8-.07 21.62-.77 43.25-.26 64.87.41 17.63-.3 35.29-.42 52.86zm-.29-33.4a25.16 25.16 0 0 0 -2.16-15.55q-31.29-66.37-90.69-109.35c-15.37-11.17-31.71-20.67-50-26.34-1.64-.51-3.58-1.14-4.3.89-.8 2.28 1.4 2.52 3 3a125.15 125.15 0 0 1 20.25 8.29c46 24.25 80.88 59.89 107.16 104.37 6.29 10.69 11.43 21.94 16.74 34.69z" fill="#28b9a1"/><path d="m714.34 1358.69c-1.16 7.16-5.45 13-8.25 19.49-5.79 13.42-12.16 26.58-18.29 39.84a5 5 0 0 1 -2.19 2.62c-10.85-8.78-21.57-17.71-32.77-26.07-14.2-10.59-31-14.13-47.62-18-15.19-3.54-30.53-6.37-44.54-13.88-16.77-9-26.84-22.7-31.14-41.09-2.22-9.46-2.65-19.5-8.27-28a3.75 3.75 0 0 1 -.51-1.39c-.67-3.66-3-7.78.61-10.76 3.29-2.72 6.9-.48 10.27 1 18.82 8.34 37.21 17.82 57.5 22.36 5.65 1.27 11.35 2.51 17.21 1 5.17-1.34 6-3.36 2-6.91a101.14 101.14 0 0 1 -16.91-20.15c-2.64-4-4.91-8.32-4.91-13.39 0-3 .73-5.8 3.37-7.37s5.16-.1 7.33 1.57q5.73 4.4 11.34 9c7.81 6.32 16.59 11.08 25.48 15.6a74.87 74.87 0 0 1 31.13 29.36c5.68 9.57 11.74 18.89 19.62 26.94 8.42 8.54 19.01 13.27 29.54 18.23z" fill="#f7a9a9"/><path d="m1794.37 1221.55 19.46-26.73c11.22-14 22.35-28.12 33.69-42 5-6.19 10.34-12.2 15.81-18 15.48-16.42 35-23.59 57.18-24.22 6.85 8.53 9.34 18.68 10 29.21q3.18 48.06-29.92 83.27c-4.33 4.59-8.37 9.45-12.53 14.18-13.86 14.91-28 29.53-42.65 43.68a5.1 5.1 0 0 1 -5.67 1.4c-20.79-9.56-34.58-25.47-42.36-46.81-1.07-4.68-2.93-9.13-3.01-13.98z" fill="#2c464f"/><path d="m1420.65 1101.46c12.28-5.89 23.33-14.09 35.63-19.82 10.88-5.07 16.84-12.53 18.6-24.48 1.2-8.08 4.42-15.87 7.08-25 5.47 14.9 10.54 28.66 15.59 42.44 1.71 4.66 3.34 9.35 5.1 14 .89 2.35 1.86 5.07 5 4.64 2.92-.4 3.47-3 4-5.55 7.74-35.54 15.57-71.07 24.32-106.8 1.85 6.5 3.74 13 5.53 19.51 2.19 8 4.2 16 6.46 24 1.4 4.95 3.52 5.74 8.06 3.14 12-6.83 23.88-13.73 37.17-21.38-3.58 7.46-6.44 13.7-9.54 19.83-20.61 40.78-46.15 78.43-73.19 115.13-1.5 2-2.7 3.23-6 2.58-25.12-5-48.94-13-70-28.11a2.67 2.67 0 0 0 -3-2v.07c-2.54-4.99-7.96-7.44-10.81-12.2z" fill="#56c2b2"/><path d="m1932.83 929.58c5.06.6 10 2.57 15.23 1.39 2.34-.52 2.29 1.37 2.42 2.8.79 9.32 6.38 15.07 14.37 18.72 2.7 1.23 2.83 2.29 1.74 4.72a46.45 46.45 0 0 0 -4 21.82c.18 3.28.94 6.48 4.61 7.43 4 1 5.49-2.12 6.91-5 2-4 3.89-8.09 7.3-11.19 6-5.51 12.93-8.42 21-5.38 7.82 3 10.42 9.87 11.13 17.47a26.31 26.31 0 0 1 -8.32 22.5c-7.08 6.75-12.56 7.42-21.34 1.9-.94 10.67 1.71 20.27 5.55 29.83 5.76 14.3 15.9 21.11 31.39 21a215.34 215.34 0 0 0 25.79-1.89q.09 3 .19 6.09c0 4.31.38 8.79-4.29 11.37a28.89 28.89 0 0 1 -8.22 3.41c-16.26 3.3-32.66 3.51-49.07 1.67-7.81-.87-7.75-1.24-8.63-9.4a9.9 9.9 0 0 0 -.86-2.3l-.09-4.9a26.51 26.51 0 0 1 0-3c.53-4.17-.58-5.76-5.12-4.19-8.32 2.88-17 3.49-25.77 3.12-1.72-.07-3.66-.7-5.12.93-7.49-5.71-9.18-14.33-10.89-22.71a152 152 0 0 1 -3-29.11 4.51 4.51 0 0 0 -2.2-4.09c.81-.19 1.91-.45 1.89-1.3-.15-7.6 1.43-15.28-.8-22.8 2.79-6.84 1.47-14.15 2.38-21.2a173.52 173.52 0 0 1 5.82-27.71z" fill="#f7a9a9"/><path d="m1975.69 1066.5a9.9 9.9 0 0 1 .86 2.3c.88 8.16.82 8.53 8.63 9.4 16.41 1.84 32.81 1.63 49.07-1.67a28.89 28.89 0 0 0 8.22-3.41c4.67-2.58 4.24-7.06 4.29-11.37 11.31.2 20.44 4.42 26.49 14.34 2.14 3.51 4.34 7 6.51 10.47a5.16 5.16 0 0 0 1.9 3 1.11 1.11 0 0 0 .05.49c11.07 20.52-3.27 33.64-18.71 43.09-10.84 6.63-22.84 9.86-35.8 10.55-22.09 1.16-43.08-2.34-63.19-11.48-12.09-5.5-20.65-14.68-27.39-25.82 6.7-13.65 14.21-26.69 27-35.77 3.95-1.48 7.78-3.47 12.07-4.12z" fill="#06b298"/><path d="m2081.66 1089.6a5.16 5.16 0 0 1 -1.9-3c18.67 1 36 5.59 50.26 18.59 4 3.64 6.86 8.08 9.47 12.74 20.81 37 38 75.85 55.43 114.5 1 2.33.59 4.1-.26 6.09a78.34 78.34 0 0 1 -37.92 30.65c-7.44 2.86-15.31 3.77-23 5.35-1.37.16-1.71-.67-2.34-1.78-4.39-7.85-9-15.59-13.51-23.37-.64-7.2 1.5-14.13 2.14-21.21 2-22.18 3.39-44.32 1.95-66.62-.77-11.77-1.55-23.5-4.33-35-4.65-19.38-17.37-31.1-35.99-36.94z" fill="#2c464f"/><path d="m1628.43 592.62c-6.51-4.37-11.41.56-16.29 3.29-16.35 9.15-32.46 18.74-48.66 28.17-24 14-48.06 28.06-72.17 42q-35.76 20.63-71.73 40.9c-4.6 2.58-7.85 6.59-12 9.61-4.44-2.56-8.74-5.43-13.37-7.58-5.64-2.63-10.1-7.55-16.6-8.45 3-6.48 9-9.55 14.73-12.87q62.42-36 124.82-72c22.3-12.89 44.61-25.76 66.82-38.81 15.94-9.39 40.02-.94 44.45 15.74z" fill="#addedf"/><path d="m2133.71 1274.48c7.72-1.58 15.59-2.49 23-5.35a78.34 78.34 0 0 0 37.92-30.65 253.51 253.51 0 0 1 14.73 39.6c2.76 9.7-1.91 16.74-7.46 23.53-14 17.12-31 31-48.18 44.68-13.66 10.85-27.81 21.08-41.77 31.56-1.32 1-2.79 1.79-4.2 2.68-.55-25.59.39-51.13 2-76.66 7.7-4.09 13.4-10.74 20.35-15.81 7.31-5.31 7.18-5.49 3.61-13.58z" fill="#f7a9a9"/><path d="m1460.65 1434.35c-13.2-7.55-18.08-20.07-19.78-34.15-.67-5.46 2.05-10 7.24-12.51 6.31-3.09 13.17-4.12 20-5.15a118 118 0 0 0 49.65-19.89c2.36-1.61 3.14-4.16 3.83-6.74 2.35-8.75 4.67-17.5 7.08-26.23a28.12 28.12 0 0 1 1.8-4c3.08-2 6.06-4.34 10-2.25s4.75 6 4.09 9.9c-3.51 20.49-.85 41.44-5 61.9-4.8 23.82-21.58 40.69-41 43.53-13 1.92-25.69.83-37.91-4.41z" fill="#f7a9a9"/><path d="m1876.8 689.56c7 1.5 12.15 6.57 18.45 9.44 2.84 1.29 5.29 3.46 8.11 4.81 3.56 1.69 4 4.11 2.4 7.29a13.09 13.09 0 0 0 -1.15 6.28c0 34.08.08 68.17-.06 102.25 0 5.24 1.72 8.55 7 9.69-20.14 4.35-37.65-9.84-37.65-30.53q0-48.42 0-96.83c-.06-4.39.58-8.58 2.9-12.4z" fill="#06b298"/><path d="m1503.54 1264.41c-4.41 1.84-8.84 3.53-9.56 9.3-.29 2.33-2.84 2.58-4.53 3.49-3.7 2-7.36 4-9.22 8-.41.9-1 1.88-.12 2.74.71.7 1.54 0 2.29-.23 3.66-1.1 7.23-2.43 11.18-2.26 2.38.11 3.35 1 3 3.37-.52 4-1.45 7.1-6.26 8.75-27.34 9.38-54.54 19.15-81.72 29-4.2 1.52-4.53 0-3.91-3.42.66-3.69 2.4-6.46 5.87-8.11 5-2.37 9.81-4.93 14.81-7.19 2-.92 3.81-1.86 3.08-4.3s-3.15-2.2-5-1.8c-3 .63-6 1.63-9 2.46-.2-.48-.45-.78-.42-1 .22-2.1 2.11-4.81.8-6.05-1.79-1.71-4.15.93-6.36 1.25-1.63.24-3 1.49-4.81 1 .69-2.25 1.37-4.51 2-6.76 5.17-5 12.22-5.7 18.5-8.14 3.61-1.4 6.68-2.66 8-7 1.26-4 4.64-6.89 8.16-9.2a65.24 65.24 0 0 1 35.14-11.09c3.18-.06 6.44 0 7.43 4.22.6 2.52 2.41 1 3.6.64 5.52-1.77 10.88-4.23 16.91-3.56z" fill="#2c464f"/><path d="m1420.65 1101.46c2.85 4.76 8.27 7.21 10.91 12.17-30-14.4-50.45-35.9-54.1-70.7a124 124 0 0 1 11.23-66.39c1.93-.22 3.46.75 5 1.67 5.5 3.23 10.92 6.65 16.6 9.54 2.87 1.45 3.36 3.12 2.31 5.78-14 34.93-16.82 69.42 4 103z" fill="#099d87"/><path d="m1412.63 993.53c1-2.66.56-4.33-2.31-5.78-5.68-2.89-11.1-6.31-16.6-9.54-1.57-.92-3.1-1.89-5-1.67 9.83-23.36 24.56-42.32 48.06-53.36 11.43-5.37 22.29-4.92 32.76 2.78 3.78 2.78 7.18 6.4 12.06 7.49l3.07 2.06c-3.68.47-7.4 2.23-11-.68-.48-.39-1.94.12-2.8.51-6.48 3-13.86 4.15-18.93 10.09-2.41 2.84-6.82 2.87-9.71 5.75-5.19 5.18-8.71 11.56-13.38 17.11a76.31 76.31 0 0 0 -13.5 23.44 2.82 2.82 0 0 1 -2.72 1.8z" fill="#28b9a1"/><path d="m1591.56 874.66c-.89 1.83-2.54 1.85-4.25 1.85q-9.43 0-18.86.14a5 5 0 0 0 -2.34.48c-8 4.55-16.17 8.88-23.9 13.87-3.42 2.21-6 5.85-8.7 8.88-2.48 2.8-5.7 6-6.37 10.36-.35 2.29-2.44 2.37-4.34 2.35a3.61 3.61 0 0 0 -1.8-2.83l-22.16-12.2c11.85-19.07 27.43-33.26 50.26-37.5 8.32-1.54 16.51-.9 24 3.74 6.1 3.75 12.31 7.25 18.46 10.86z" fill="#28b9a1"/><path d="m1404.51 760.69a3.57 3.57 0 0 1 -1.35 3.5c-11.16 9.45-20.52 20.81-31.84 30.08-3 2.44-4.37 5.31-3.61 9.13-9.36-5.3-18.76-10.53-28.06-15.94-2.82-1.64-3.3-6.12-.71-8.64 11.87-11.53 23.92-22.9 35.91-34.32 2.25 1 4.57 1.94 6.73 3.15 7.68 4.29 15.29 8.68 22.93 13.04z" fill="#addedf"/><path d="m493.61 1130.56v66.86c-8.54-3.22-15.8-8.79-23.81-13-1.48-.78-1.33-2.16-1.33-3.48q0-30.92 0-61.82c0-1.16-.08-2.37 1.12-3.1 7.47 5.71 16.03 9.66 24.02 14.54z" fill="#06b298"/><path d="m551.56 1029.6q0 33.48.05 67c-8.68-4.07-16.71-9.3-25-14 0-20.71 0-41.42.06-62.12 0-1.71-.78-3.67.9-5.13 7.59 5.36 15.99 9.48 23.99 14.25z" fill="#06b298"/><path d="m551.56 1029.6c-8-4.77-16.4-8.89-24-14.34 8-5.93 17-10.2 25.52-15.32 9.38-5.63 19-10.83 28.4-16.46 2.48-1.49 4.32-1.66 6.73-.1 6.39 4.11 13.39 7.21 19.45 11.88 0 1.72-.95 2.62-2.37 3.43q-26.89 15.41-53.73 30.91z" fill="#75cccc"/><path d="m526.6 1082.51c8.3 4.75 16.33 10 25 14q-20.5 12-41 24c-5.68 3.32-11.33 6.68-17 10-8-4.88-16.55-8.83-24-14.52 8.21-6.26 17.63-10.52 26.38-15.9 10.02-6.09 20.39-11.73 30.62-17.58z" fill="#75cccc"/><path d="m1322.08 1438.55q10.13-43.53 20.27-87.07l9.33-38.93 4.94 3.93q-6.09 26.58-12.18 53.16c-3.35 14.5-6.82 29-10.14 43.46-7 30.49-13.82 61-20.88 91.47-3.4 14.64-7.17 29.19-10.77 43.78-4.57-1.89-4.81-5.16-3.78-9.57 7.85-33.38 15.5-66.78 23.21-100.23z" fill="#099d87"/><path d="m1404.51 760.69c-7.64-4.36-15.25-8.75-22.93-13-2.16-1.21-4.48-2.11-6.73-3.15 0-12.14-.71-24.29.43-36.42a19.62 19.62 0 0 1 2.34-7.56c6.5.9 11 5.82 16.6 8.45 4.63 2.15 8.93 5 13.37 7.58-3.37 13.37-1.52 27-2 40.5-.02 1.28.15 2.65-1.08 3.6z" fill="#56c2b2"/><path d="m526.51 1179.64c2.39-4 7.06-4.77 10.55-7.21 3.25-2.27 7.09-3.7 10.37-5.93 3.53-2.41 4.27-1.54 4.25 2.39-.13 20.82-.09 41.64-.11 62.46-7.62-4.3-15.18-8.7-22.89-12.82-2.37-1.27-2.06-3.09-2.06-5q-.06-16.96-.11-33.89z" fill="#06b298"/><path d="m666.69 1029.27c-3.17 4.07-8 5.68-12.22 8.19-13.08 7.86-26.37 15.35-39.62 22.89-1.36.78-2.92 2.43-4.47 1.49s-.72-3.06-.72-4.64c0-8 .07-16 .12-24 1.45.54 2.5-.3 3.66-1 8.72-5 17.51-10 26.19-15.13 2.36-1.4 4.31-1.81 6.78-.19 6.59 4.4 13.94 7.59 20.28 12.39z" fill="#75cccc"/><path d="m1498.84 897.56 22.16 12.2a3.61 3.61 0 0 1 1.8 2.83c-6.92 13-13.35 26.16-18.06 41.1-6-7.68-10.71-15.63-20.1-18.18l-3.07-2.06c4.43-12.61 9.79-24.76 17.27-35.89z" fill="#099d87"/><path d="m1374.84 807.48c1-1 .85-2.69 2.89-3 8.33-1.34 16.63-2.83 24.89-4.52 3.61-.74 3 1.64 3 3.49.05 9 .26 18-.06 27-.2 5.37 1.21 9 7 9.88-10.13 3.43-18.45-1-26.44-6.31-6.74-4.5-10.77-10.72-10.83-19.1a1.93 1.93 0 0 0 -.34-2.36z" fill="#56c2b2"/><path d="m1875.32 972-15.28 9 35.11 16.57-9.41 8.65 15.74 8.44-.18.84c-6.29-1.21-12.62-2.23-18.86-3.69-3.23-.75-8.27.21-9.18-2.76-.69-2.26 3.86-4.87 6.27-7.1 2.9-2.67.81-3.36-1.29-4.27q-16.41-7.1-32.82-14.21c-1.51-.65-3-1.34-5.44-2.45 5.42-2.75 10-5.33 14.71-7.38 3.69-1.6 3-3 .55-5.07a150 150 0 0 1 -16.92-16.29z" fill="#56c2b2"/><path d="m1902.58 1034.24c-5.58 4.39-11.19 8.75-16.73 13.18-2.18 1.73-3.41.77-4.81-1.11-6.06-8.1-6.1-8.07-15.19-3.13-8.71 4.74-8.86 4.82-13.53-4.19-2.09-4-4-5.72-9-3.89-6.9 2.53-14.3 3.71-21.75 4.73 10.1-4.79 20.23-9.53 30.28-14.42 1.73-.83 2.71-.64 3.66.93.6 1 1.42 1.85 2.1 2.8 5.94 8.27 5.94 8.27 15 3.42a20.73 20.73 0 0 0 3-1.7c2.23-1.72 3.55-1.24 5.06 1.15 5 8 5.13 7.9 13.65 4.29 2.54-1.08 5.13-2.07 7.7-3.1z" fill="#56c2b2"/><path d="m1963.58 1070.66c-12.75 9.08-20.26 22.12-27 35.77-4.53.31-8.44 3.31-13.1 3 4-18.67 13.14-32.92 32.71-38.34a21.48 21.48 0 0 1 7.39-.43z" fill="#099d87"/><path d="m1356.62 1316.48-4.94-3.93c2.31-2.66 5.78-2.88 8.78-4 15-5.43 30.17-10.65 45.27-15.95-.68 2.25-1.36 4.51-2 6.76-14.52 6-29.52 10.68-44.27 16z" fill="#56c2b2"/><path d="m1503.54 1264.41v-5.91c13.57-4.92 27.12-9.9 40.73-14.7 3.38-1.2 6.53 1.83 6.47 5.8-1.55-1.91-3.18-.26-4.49.19-12.83 4.4-25.59 9-38.38 13.48-1.43.49-2.87.73-4.33 1.14z" fill="#56c2b2"/><path d="m1991.73 783.32c2-1.15 4-2.25 5.94-3.46 5.7-3.57 5.69-3.59 8.72 2.19 3.64 7 8.44 13.29 11.18 20.73q-9.87-5.62-19.74-11.24c-3.26-1.85-3.66-5.78-6.1-8.22z" fill="#06b298"/><path d="m1910 992.22c-2-1.91-4.08-3.81-6.09-5.74-2.51-2.41-6.31-4.64-.39-7.69 2.36-1.21.42-2.93-.49-4.08-2.25-2.85-4.71-5.54-7-8.24 2.28-3.21 8.14-1.15 8.43-5.76.21-3.44-1.24-7-1.1-10.74 1.64 3.92 3.24 7.84 4.93 11.74 1.15 2.66-1 3.12-2.55 3.8-2.37 1-2.61 2.18-.71 3.93a40.21 40.21 0 0 1 3.43 3.6c1.39 1.63 3.51 3.22 3.81 5.08.38 2.32-2.7 2.89-4.3 4.13s-1.51 2.2-.5 3.71c1.18 1.77 2.09 3.71 3.12 5.57z" fill="#56c2b2"/><path d="m1939.63 1058.5c1.46-1.63 3.4-1 5.12-.93 8.77.37 17.45-.24 25.77-3.12 4.54-1.57 5.65 0 5.12 4.19a26.51 26.51 0 0 0 0 3 99.59 99.59 0 0 1 -30.48-1.07 12.17 12.17 0 0 1 -5.53-2.07z" fill="#f59092"/><path d="m1924.59 978.49c2.23 7.52.65 15.2.8 22.8 0 .85-1.08 1.11-1.89 1.3-10.85-2.17-11.15-2.73-6.16-12.19a75 75 0 0 1 7.25-11.91z" fill="#f59092"/><path d="m1460.65 1434.35c12.22 5.24 24.91 6.33 37.95 4.4.42 2.08-.64 3.87-1.13 5.77-10.67 2.66-20.5-.27-29.93-4.84-2.54-1.23-5.42-2.5-6.89-5.33z" fill="#038774"/><path d="m1431.54 1113.56a2.67 2.67 0 0 1 3 2c-1.18-.35-2.44-.66-3-2z" fill="#099d87"/><path d="m1374.87 812.54a1.93 1.93 0 0 1 .34 2.36 2.32 2.32 0 0 1 -.34-2.36z" fill="#75cccc"/><path d="m1858.79 2030.57 4.9-.34c2.35-.09 4 0 2 3.07-3.39 5.2-5.26 11.09-6.74 17.06-1 3.86.79 5.65 4.77 5.24 3.66-.39 5.4-2.51 6.2-6.06 1.83-8.17 4.51-16 10.87-22 3.3.14 5.71-2.12 8.56-3.2 4.26 2.59 7.14 6.72 11.43 9.48 10.92 7 22.72 7.36 34.85 6.06a115.45 115.45 0 0 0 28.34-7 13.85 13.85 0 0 1 3.44-.36c2.36 14.74 6.14 29.21 8 44-.44.69-1.19 1.34-1.28 2.08-.9 7.24-6.21 10.31-12.11 12.54-12.23 4.62-24.78 5.28-37.63 2.82a246.31 246.31 0 0 0 -31.52-3.66 188.09 188.09 0 0 0 -33.23.42c-13.21 1.53-26.41 2.82-39.58.46-3.15-.56-6.71.46-9.53-1.84-3.14-22.11.22-42 19.19-56.61l17-1.3a37.46 37.46 0 0 0 -8.7 19.58c-.25 2.14-.08 4.16 2.13 5.07a5.24 5.24 0 0 0 6.29-1.61 7.42 7.42 0 0 0 1.37-3.67 41 41 0 0 1 10.98-20.23z" fill="#2c464f"/><path d="m2102.84 1955.59c-.45 9.33 3 18.57.72 28-2 1.72-2.69 4.5-5 6.06-10.23 6.87-20.88 5.84-31.77 2-8.6-3-12.89-10.57-18.16-17.1-9.47-11.73-18.77-23.56-30.52-33.28-5-4.15-10.16-8.55-13.52-14.42 4.63-19.48 18.22-28.42 36.91-31.34 2.1 2.08.76 4.71 1.13 7.07a35.08 35.08 0 0 0 -17.17 14.32c-1.62 2.57-3.53 5.33.16 7.63 3.37 2.1 5.9.74 7.76-2.51a28.41 28.41 0 0 1 10.24-10.5c.6 2.34 1.33 4.66 1 7.13-2.35 1.39-3.58 3.75-5 5.89-1.33 2-3.18 4-1.18 6.61s4.47 2.29 7.1 1.36c3.08 5.72 2.2 12.14 3 18.24.34 2.55.81 4.27 3.31 5.44 16.6 7.78 33.09 7.26 49.55-.38a4.71 4.71 0 0 1 1.44-.22z" fill="#2c464f"/><path d="m2009 1628.46q-.87-25.38-1.74-50.76-.42-12.43-.82-24.87c-1.84-12 .12-24.2-1.33-36.23-.26-2.15 1.24-2 2.29-2.5 9.35-4.68 18.73-9.3 28.06-14a323.31 323.31 0 0 0 40.75-24.67c.87-.61 1.66-2.3 2.81-1.24 1.36 1.24-.05 2.42-.95 3.33-11.63 11.79-23.23 23.61-37.79 32-4.56 2.61-8.54 6.2-13.9 7.36a3.64 3.64 0 0 0 -2.69 3.29q-2 15.72-4.06 31.43c-1.61 12.61-3.25 25.21-4.8 37.82-1.45 11.8-2.82 23.61-4.22 35.42-.16 1.35.5 3.09-1.61 3.62z" fill="#2c464f"/><path d="m1777.61 2070.67c7.69 12 19.15 17.42 32.94 18.72 2.82 2.3 6.38 1.28 9.53 1.84 13.17 2.36 26.37 1.07 39.58-.46a188.09 188.09 0 0 1 33.23-.42 246.31 246.31 0 0 1 31.52 3.66c12.85 2.46 25.4 1.8 37.63-2.82 5.9-2.23 11.21-5.3 12.11-12.54.09-.74.84-1.39 1.28-2.08 2.69 17.26-.42 21.9-17.36 26.25-9.72 2.5-19.46 1.74-29.22.42-18.13-2.46-36.3-4.7-54.58-5.1-9.26-.2-18.55 1.39-27.84 1.93-15.3.88-30.6 1.37-45.44-3.64a57.39 57.39 0 0 1 -17.73-9.88c-5.18-4.18-7.14-9.38-5.65-15.88z" fill="#1c2f36"/><path d="m1994.63 1905.37c1.7 5.79 2.89 11.77 6.14 17a12.47 12.47 0 0 0 3.8 4.43c3.36 5.87 8.49 10.27 13.52 14.42 11.75 9.72 21.05 21.55 30.52 33.28 5.27 6.53 9.56 14.07 18.16 17.1 10.89 3.84 21.54 4.87 31.77-2 2.33-1.56 3-4.34 5-6.06.35 9.59-2 13.37-10.64 16.9-14 5.71-29.85 2-40.36-9.79-4.74-5.33-9-11.15-13.24-16.86a193.38 193.38 0 0 0 -30.73-31.86c-11.07-9.31-15.89-21.85-13.94-36.56z" fill="#1c2f36"/><path d="m1101.44 1206.57c10.2 2.13 18.81 7.53 26.55 14a277.36 277.36 0 0 1 51.14 56.12c9.61 14.09 18.51 28.85 22.88 45.64 4.24 16.33 3.76 32.48-3.36 48.09q-4.58 8.57-9.16 17.13c-1.18 1.38-2.67 2.6-3.48 4.17-1.8 3.5-5.74 5.28-6.53 9.72-3.86 21.43-4.17 43.15-5.8 64.76-1.35 18.08 3.43 35.54 6.49 53.13 2.75 15.81 6.53 31.43 9.32 47.23 4.13 23.29 9.35 46.38 12.55 69.83 1 7.11 3.72 14.16 1.39 21.5-3.3-.4-4.85 2.43-7 4-20 14.06-42.64 22.09-65.92 28.65-12 3.37-24.27 5.2-36.37 8l-16.2 2.06c-14.77.85-29.52 2.12-44.33 1.94.08-1.66.06-3.33.25-5q2.37-20.94 4.79-41.88c1.43-12.49 2.81-25 4.29-37.47 1.86-15.6 3.88-31.17 5.67-46.76 1.53-13.31 2.75-26.66 4.29-40 2-16.93 4.6-33.79 4.85-50.88 1.16-1 .8-2.44.91-3.74q1-11.86 2.24-23.72c1.69-17 2.73-34 3.59-51 1.23-24.26-.16-48.36-5.74-72.2-6.43-27.49-13.8-54.66-23.51-81.18q-5.73-15.63-11.54-31.25c1.15-.23 1.87.51 2.59 1.2a71.59 71.59 0 0 0 28.46 16.92c12.93 4.15 26 6.7 39.56 3 5-1.37 9.65-3.48 13.3-7.41a9.61 9.61 0 0 0 2.37-10.05c-1.65-5.66-5.33-9.93-8.54-14.55z" fill="#addedf"/><path d="m906.08 1588.43c-5.08 22-7 44.49-9.54 66.88-2.18 19.28-4.62 38.53-6.74 57.81-1.89 17.15-3.43 34.34-5.23 51.51-1.84 17.48-3.86 34.95-5.71 52.43-.86 8.09-1.51 16.2-2.25 24.3-.14 1.47.17 3-1 4.27-4.34 2.42-8.68 4.82-13 7.25-15 8.43-29.61 17.7-45 25.53q0-186.67 0-373.37c0-1.16-.09-2.32-.14-3.49 15-8.31 26.09-20.92 37-33.72 8.3-9.79 16.45-19.73 24.13-30 3.39-4.52 6.66-9.24 9.76-14 2.58-4 7-6.86 10-10.89 10.18-13.71 20.54-27.29 31.41-41.7 2.06 8.23 4 15.66 5.79 23.13 5.22 21.68 10.38 43.38 15.63 65.06.69 2.86.8 5.47-.59 8.19a517.07 517.07 0 0 0 -43.44 116 31.75 31.75 0 0 0 -.43 3.92v.06z" fill="#56c2b2"/><path d="m748.74 1780.57c.12-17.62.83-35.23.42-52.86-.51-21.62.19-43.25.26-64.87.2-59.93.07-119.87.07-179.8 0-1.16-.08-2.32-.12-3.48 2.41-.26 3.37 1.87 4.8 3.07 12.73 10.79 26.49 19.5 43.42 21.95q0 249.39-.06 498.77c0 6.78 1.37 12.11 8 15-10.09 2.34-19.33.32-27.95-5.25-3.2-2.06-6.51-3.95-9.87-5.73-11-5.8-16.93-14.94-18.56-27.1 0-3.65.11-7.31.11-11q0-90.37 0-180.77c.02-2.64-.33-5.28-.52-7.93z" fill="#1c2f36"/><path d="m1225.81 1388.25 32.74 21.52q.06 47.71.11 95.42 0 71.44 0 142.89c0 5.14-.82 9.87-6 12.48a234.29 234.29 0 0 0 -30-17.09c3.13-6.13 3-12.72 3-19.38q-.09-115.18 0-230.37c-.09-1.83.07-3.65.15-5.47z" fill="#1c2f36"/><path d="m1203.43 1657.92q1.62 15.4 3.25 30.81c-9.26 5.54-18.45 11.17-27.77 16.59q-33.86 19.67-67.81 39.17c-7.2 4.16-14.36 8.37-21.59 12.49-1.24.71-2.64 2.11-4.09 1.18s-.11-2.49.13-3.66c3-15.09 6.08-30.16 9.16-45.24.56-2.75 1.18-5.49 1.7-8.25.34-1.78-.83-2.32-2.3-2.52 12.1-2.76 24.4-4.59 36.37-8 23.28-6.56 45.9-14.59 65.92-28.65 2.18-1.49 3.73-4.32 7.03-3.92z" fill="#038774"/><path d="m1024.59 1794.33c2.84-30.63 5.34-61.29 9-91.84 14.81.18 29.56-1.09 44.33-1.94q-3 21.33-6 42.67c-1.06 7.69-2.22 15.36-3.12 23.06a5 5 0 0 1 -2.94 4.16q-16.67 9.46-33.23 19.08c-2.63 1.56-5.34 3.2-8.04 4.81z" fill="#038774"/><path d="m1063.62 1821.63c-1.83 16-10.32 32.1-27.25 43.31a21 21 0 0 1 -3.55 1.78c-10.15 4.27-17.55-.34-18.15-11.37-.76-14 4.71-25.87 12.56-36.92a45.68 45.68 0 0 1 14.51-13.44c13.48-7.73 21.88-2.79 21.88 16.64z" fill="#56c2b2"/><path d="m817.64 1878.41c15.38-7.83 30-17.1 45-25.53 4.33-2.43 8.67-4.83 13-7.25l-3.24 36c-3.24 3.68-7.88 5.41-11.93 7.72-9.46 5.43-18.85 11-28.32 16.37-8.39 4.78-14.41 1.25-14.51-8.37-.06-6.35 0-12.64 0-18.94z" fill="#2c464f"/><path d="m1227.64 1676.5-5.73-33h.34l.34-.06a234.29 234.29 0 0 1 30 17.09c0 2.33-2 3-3.44 3.87-7.07 4.17-13.65 9.29-21.51 12.1z" fill="#2c464f"/><path d="m1225.57 1255.33c-9.31-9-18.7-18-27.91-27.14-8.28-8.2-16.64-16.29-26.23-23a16.42 16.42 0 0 0 1.27-2.07c6.22-14.36 8.12-29.47 6.71-44.89-.71-7.84-2.13-15.75-6.7-22.59a211.61 211.61 0 0 0 6.21-45.42c.33-9.28-.78-18.49-.13-27.72 10.79-5.86 16.91-15.45 19.73-26.88 5.5-22.28.82-43.32-10.32-62.84-20.17-35.37-52.9-49.66-91.67-53.28-17.33-1.61-34.56-.48-51.74 1.94q-36.31 5.1-58.79 34c-4.93 6.35-7.86 13.78-10.74 21.62-8.5-12.8-21.82-14.78-31.23-5 7.07 5.82 14.1 11.65 21.19 17.4 1.81 1.46 2.83 2.24.09 4.15a36.88 36.88 0 0 0 -11.19 13.23 86.16 86.16 0 0 0 -9.76 50.12c1.35 13.55-1.35 24.57-13.11 32.7-7 4.85-13.09 10.85-16.43 19-4.93 12.07-5 24.17 1.28 35.63 6.49 11.94 5.45 22.5-3.71 32.4-.67.73-1.24 1.57-1.88 2.33a66 66 0 0 0 -12.3 22.08c-3.25 10.17-5.11 20.5-2.73 31.18-20.43 27-35.85 57-52.66 86.19-7.27 12.63-14.1 25.51-21.5 38.07-1.15 1.95-.21 5.28-3.51 5.94 0-5.66-.16-11.32-.16-17q0-165.22-.06-330.44c0-12.46 4.7-21.51 15.71-27.84q101.46-58.2 202.7-116.87 92-53.18 184.06-106.37c1.68-1 3.21-2.42 5.38-2.38 0 2.66.11 5.33.11 8q.01 242.87.02 485.75z" fill="#56c2b2"/><g fill="#1c2f36"><path d="m1225.57 1255.33q0-242.88 0-485.76c0-2.66-.08-5.33-.11-8a90.85 90.85 0 0 1 21.86-12.71c5.85-2.38 11.08 1.74 11.34 8v3q0 260 0 520c0 2-.09 4-.13 6z"/><path d="m1005.55 861.46a12.31 12.31 0 0 1 6.08-10.81c24.22-14.18 48.58-28.13 72.94-42.09 2.79-1.6 6.2-4.12 8.94-.72 2.62 3.23.85 7-1 10.23-3.17 5.6-9.15 7.53-14.22 10.51-21 12.37-42.22 24.55-63.39 36.71-2.2 1.27-4.49 3.27-7.37 1.51-2.02-1.23-2.07-3.26-1.98-5.34z"/><path d="m1046.58 804.93c.05 4.3-4.69 11.64-8.54 13.23-3.14 1.31-6-.39-6.45-3.87-.78-5.66 3.3-12.79 8.56-15 3.34-1.37 6.38 1.28 6.43 5.64z"/><path d="m997.53 867.51a15.37 15.37 0 0 1 -7.29 11.49c-3.07 1.9-6.33-.26-6.59-4-.31-4.38 3.34-10.39 7.32-12.07 3.48-1.46 6.66.85 6.56 4.58z"/><path d="m895.48 1232.38c-2.38-10.68-.52-21 2.73-31.18a66 66 0 0 1 12.3-22.08c.64-.76 1.21-1.6 1.88-2.33 9.16-9.9 10.2-20.46 3.71-32.4-6.24-11.46-6.21-23.56-1.28-35.63 3.34-8.17 9.42-14.17 16.43-19 11.76-8.13 14.46-19.15 13.11-32.7a86.16 86.16 0 0 1 9.76-50.12 36.88 36.88 0 0 1 11.19-13.23c2.74-1.91 1.72-2.69-.09-4.15-7.09-5.75-14.12-11.58-21.19-17.4 9.41-9.81 22.73-7.83 31.23 5 2.88-7.84 5.81-15.27 10.74-21.62q22.49-28.93 58.79-34c17.18-2.42 34.41-3.55 51.74-1.94 38.77 3.62 71.5 17.91 91.67 53.28 11.14 19.52 15.82 40.56 10.32 62.84-2.82 11.43-8.94 21-19.73 26.88a211.49 211.49 0 0 0 -3.34-36.24c-2.69-15.59-6.49-30.92-16.13-44-3.77-5.1-8.26-9.43-14.68-12-.24 2.88-.51 5.34-.63 7.81-.86 19-9 34.44-23.1 46.92a128.75 128.75 0 0 1 -67.12 31.54c-8 1.22-15.9 2.41-24.34 3.68a26.87 26.87 0 0 1 4.38 7.31 17.73 17.73 0 0 1 -12.63 23.65c-2.85.64-3.81 0-3.74-3 .13-6.32-.16-12.65-.17-19 0-2.08-.27-3.89-1.91-5.42-7.48-7-16.06-11.37-26.28-7.81-10.47 3.64-18.09 10.71-19.52 22.44-2.07 17 5.54 29.93 18.22 40.31 8.24 6.75 17.32 9.79 27.93 4.18v50.83c-6.54-.62-10.43 3.13-13.55 8.18l-14.58 23.57a221.36 221.36 0 0 0 -32 3.37c-10.89.67-21.81.79-32.37 4.29-11.18 3.62-20.15 10.34-27.75 19.17z"/></g><path d="m1143.59 683.47c-1-4.16 1.75-6.58 5.59-8.76 14.31-8.11 28.52-16.41 42.73-24.71 4.86-2.84 9.83-4.75 15.6-3.48 3.33.73 6.13 2.19 6.65 5.81.56 4 1 8.35-3.16 10.77q-24.76 14.46-49.74 28.56a14.13 14.13 0 0 1 -10.63 1.37c-5.9-1.48-7.09-2.9-7.04-9.56z" fill="#099d87"/><path d="m1015.73 1173.7v-50.83c-10.61 5.61-19.69 2.57-27.93-4.18-12.68-10.38-20.29-23.29-18.22-40.31 1.43-11.73 9-18.8 19.52-22.44 10.22-3.56 18.8.82 26.28 7.81 1.64 1.53 1.9 3.34 1.91 5.42 0 6.33.3 12.66.17 19-.07 3.07.89 3.69 3.74 3a17.73 17.73 0 0 0 12.63-23.65 26.87 26.87 0 0 0 -4.38-7.31c8.44-1.27 16.39-2.46 24.34-3.68a128.75 128.75 0 0 0 67.12-31.54c14.12-12.48 22.24-27.91 23.1-46.92.12-2.47.39-4.93.63-7.81 6.42 2.54 10.91 6.87 14.68 12 9.64 13.09 13.44 28.42 16.13 44a211.49 211.49 0 0 1 3.34 36.24c-.65 9.23.46 18.44.13 27.72a211.61 211.61 0 0 1 -6.21 45.42 74 74 0 0 1 -8.63 19.38c-6.94 10.8-16.41 16.77-29.64 16.73-11.66 0-23.1-1.74-34.6-3.15-7.55-1.71-15.21-3-22.62-5.22-15.24-4.49-30.69-8.75-42.19-20.87-.58-.61-1.32-1-2.25.2 4 5.94 7.53 12.43 13.66 16.64 16.1 11.07 34.53 16.43 53.18 21.14 2 6.58.29 13.32.89 20 .19 2-.78 4.29.93 6.11 3.21 4.62 6.89 8.89 8.51 14.52a9.61 9.61 0 0 1 -2.37 10.05c-3.65 3.93-8.25 6-13.3 7.41-13.54 3.69-26.63 1.14-39.56-3a71.59 71.59 0 0 1 -28.46-16.92c-.72-.69-1.44-1.43-2.59-1.2v.08a2.21 2.21 0 0 0 -1-2.39 33.67 33.67 0 0 1 -6.28-21.72c.31-6.56 1.12-13.23-.66-19.73zm110.33-118.7-1.45.41c0 6.1-.25 12.21.05 18.29.49 9.67-1.5 19.22-1.05 28.87.09 2-.07 4.66 3 3.66 7.12-2.33 14.56-3.11 21.75-5.07 3.52-1 3.66-2.6 1.91-5.34-2.31-3.62-4.49-7.32-6.67-11q-8.8-14.82-17.54-29.82zm-35.5 66.82c.17 7.63 4 12.89 10.67 15a14.31 14.31 0 0 0 15.85-5.39c2.59-3.68 2.08-5.41-2.19-6.79-6.46-2.1-13-3.9-19.42-6.19-4.2-1.45-5.58-.33-4.91 3.4zm5.17-57.63c0-5.42-4-9.66-9.15-9.74a10.16 10.16 0 0 0 -9.93 9.78c-.11 5.18 4.6 10.09 9.69 10.13 5.24.06 9.4-4.44 9.39-10.14zm58.91-12.75a9 9 0 0 0 -.16 18.09 8.92 8.92 0 0 0 9.12-9 8.82 8.82 0 0 0 -8.96-9.06zm2.79-24c-4.53 0-7.93 2-9.88 5.37-.9 1.57-1.2 2.66.77 3.43q9.43 3.67 18.86 7.37c1.68.66 2.24.14 2.52-1.67 1.22-7.94-4.22-14.5-12.27-14.48z" fill="#f7a9a9"/><path d="m1222.59 1643.47-.34.06h-.34c-7.5-42.65-16.77-85-25.78-127.3a378.13 378.13 0 0 1 -7.89-70c-.46-19.59.83-39.08 1.26-58.61l9.15-17.13a276.33 276.33 0 0 1 27.16 17.8c-.08 1.82-.24 3.64-.24 5.47q0 115.18 0 230.37c.03 6.62.15 13.21-2.98 19.34z" fill="#56c2b2"/><path d="m1099.84 1168.61c11.5 1.41 22.94 3.12 34.6 3.15 13.23 0 22.7-5.93 29.64-16.73a74 74 0 0 0 8.63-19.38c4.57 6.84 6 14.75 6.7 22.59 1.41 15.42-.49 30.53-6.71 44.89a16.42 16.42 0 0 1 -1.27 2.07c-10.72-6.53-22.74-7.61-34.85-8.24-4.57-.24-8.26-1.62-10.78-5.75-1.64-2.67-3.83-5-5.61-7.59-4.92-7.16-11.65-10.55-20.33-10.08-.01-1.64-.01-3.28-.02-4.93z" fill="#1c2f36"/><path d="m1099.84 1168.61v4.93l-.24 7c-18.65-4.71-37.08-10.07-53.18-21.14-6.13-4.21-9.68-10.7-13.66-16.64.93-1.24 1.67-.81 2.25-.2 11.5 12.12 27 16.38 42.19 20.87 7.43 2.15 15.09 3.47 22.64 5.18z" fill="#f59092"/><path d="m774.82 1198.71c-6.6 4-12.87.79-15-7.92a25.62 25.62 0 0 1 -.43-6c0-38.42 0-76.85-.1-115.28 0-4.34 1-7.46 5.37-8.89 8.83 5.87 9.14 14.64 9.06 24.11-.3 35.94-.14 71.88-.08 107.83.05 2.1-.8 4.44 1.18 6.15z" fill="#038774"/><path d="m773.63 1295.53c-2.77 2.9-5.62 2.31-8.34 0-3.59-3-5.83-6.75-5.83-11.58q0-28.59 0-57.19c0-2.48-.1-5.24 3.59-5.33 6.31.78 10.55 6 10.57 13.33.05 20.24.01 40.53.01 60.77z" fill="#038774"/><path d="m774.82 1198.71c-2-1.73-1.13-4-1.13-6.1-.06-35.95-.22-71.89.08-107.83.08-9.47-.23-18.24-9.06-24.11 4.87-2.7 7.78-2.16 11.06 2.14a17.75 17.75 0 0 1 3.94 11q0 58.59 0 117.19c.03 3.76-1.09 6.53-4.89 7.71z" fill="#099d87"/><path d="m773.63 1295.53c0-20.24 0-40.49 0-60.74 0-7.32-4.26-12.55-10.57-13.33 5.37-4.86 8.3-4.74 12.78.62a15.49 15.49 0 0 1 3.8 10.07c0 18.5 0 37 .09 55.49.02 4.36-2.04 6.83-6.1 7.89z" fill="#099d87"/><path d="m1794.37 1221.55c.08 4.85 1.94 9.3 3 13.93-2.31-.17-3.47 1.3-4.8 2.93-5.68 7-10.33 14.49-13.07 23.72-1.7-6.75 2.5-23.98 14.87-40.58z" fill="#f59092"/><path d="m1001.67 1287.6c4.77 2.71 9 5.51 9.1 12.08.05 4.79 1 9.58.84 14.41 0 1.3-.12 2.54 1.4 3.4 12.52 7 18.52 19.49 26 30.86 9.47 14.47 10.6 30.41 9.61 46.91a5.19 5.19 0 0 1 -2 4.3c-1.72-1-3.59-.91-5.48-.76-2.53-2.32-1.41-5.3-1.3-8 .26-7 1.32-14.34-.8-20.79a104.37 104.37 0 0 0 -26-42.52c-3.83-3.76-6.37-3.56-10.16.37s-6.46 8.4-9.14 13c-9.44 16.19-16.49 32.88-12.36 52.38.52 2.45 2.44 5.8-.57 8.35a7.66 7.66 0 0 0 -5.17.93c-3.3-2.68-2.18-6.71-2.94-10.11-4.59-20.66 3.87-38.32 13.4-55.56 4.08-7.37 8.53-14.69 16.21-19.11a2.34 2.34 0 0 0 1.3-2.42c-.61-9.24-.61-18.53-1.94-27.72z" fill="#56c2b2"/><path d="m1041.11 1398.8c1.89-.15 3.76-.26 5.48.76-1 12-2.37 24-4.26 35.84-1.76 8.62-3.65 17.22-5.24 25.88-2 10.86-8.59 18.7-16.86 25.6 2.78 2.86 6.56 2.89 9.41 4.75l-.06 5a5.38 5.38 0 0 1 -1-.06c-8.21-2-19.46-1.39-28.07 1.6.42-2-.53-3.76-1-5.61a32.48 32.48 0 0 0 9.37-4.62c-.24-.48-.35-1.08-.69-1.3-11.76-7.42-17.12-18.88-20.73-31.72a477.46 477.46 0 0 1 -11.88-52.42 7.66 7.66 0 0 1 5.17-.93c.29 1.62.57 3.24.87 4.86a415 415 0 0 0 13.62 55c3 9.26 9.19 15.52 16.68 21 1.77 1.3 3.13 1.47 4.82 0 6.75-5.83 12.58-12.12 14.81-21.25a372.84 372.84 0 0 0 9.56-62.38z" fill="#3a5b66"/><path d="m999.56 1492.58c.43 1.85 1.38 3.62 1 5.61-2.68 5.41-6.19 7.45-10.33 5.88a7.66 7.66 0 0 1 -5.34-7.09 7.42 7.42 0 0 1 4.73-7.47c4.09-1.83 7.28-.1 9.94 3.07z" fill="#1c2f36"/><path d="m1029.58 1496.65.06-5c1.95-1.18 2.83-3.59 5.34-4.23 4.06-1.05 8 .49 9.65 4a7.76 7.76 0 0 1 -3 10c-3.84 2.13-7.34 1.47-10.23-1.84a21.68 21.68 0 0 1 -1.82-2.93z" fill="#1c2f36"/><path d="m717.9 1828.22c.43.26.78.55.2 1 0 0-.36-.4-.56-.61z" fill="#56c2b2"/><path d="m1126.06 1055q8.76 14.9 17.53 29.8c2.18 3.7 4.36 7.4 6.67 11 1.75 2.74 1.61 4.37-1.91 5.34-7.19 2-14.63 2.74-21.75 5.07-3.06 1-2.9-1.62-3-3.66-.45-9.65 1.54-19.2 1.05-28.87-.3-6.08-.05-12.19-.05-18.29z" fill="#f59092"/><path d="m1090.56 1121.85c-.67-3.73.71-4.89 4.91-3.38 6.39 2.29 13 4.09 19.42 6.19 4.27 1.38 4.78 3.11 2.19 6.79a14.31 14.31 0 0 1 -15.85 5.39c-6.63-2.1-10.5-7.36-10.67-14.99z" fill="#f59092"/><path d="m1095.73 1064.22c0 5.7-4.15 10.2-9.39 10.17-5.09 0-9.8-5-9.69-10.13a10.16 10.16 0 0 1 9.93-9.78c5.16.08 9.13 4.32 9.15 9.74z" fill="#1c2f36"/><path d="m1154.64 1051.47a8.82 8.82 0 0 1 9 9.1 8.92 8.92 0 0 1 -9.12 9 9 9 0 0 1 .16-18.09z" fill="#1c2f36"/><path d="m1157.43 1027.46c8 0 13.49 6.5 12.27 14.5-.28 1.81-.84 2.33-2.52 1.67q-9.42-3.7-18.86-7.37c-2-.77-1.67-1.86-.77-3.43 1.95-3.39 5.35-5.35 9.88-5.37z" fill="#1c2f36"/><path d="m1023.67 1217.5c-1-.49-1-1.43-1-2.38a2.19 2.19 0 0 1 1 2.38z" fill="#addedf"/></g></svg>