<svg viewBox="0 0 1777.24 1287.72" xmlns="http://www.w3.org/2000/svg"><g transform="translate(-532.6 -873.48)"><path d="m714.07 2121.07a165.09 165.09 0 0 1 -22.81-18.74c-5.93-5.74-12.8-10.64-18.11-16.88-7.43-8.73-16-16.36-22.94-25.57-3.18-4.24-7-8-10.43-12.09a464.55 464.55 0 0 1 -34.36-48.1c-11.8-18.79-21.76-38.65-31-58.79a396.45 396.45 0 0 1 -18.11-47q-8.94-28.61-15-58c-1.71-8.3-2-16.91-3.94-25.16-1.58-6.81-.53-13.85-2.69-20.54-.55-1.72-.29-3.71-.33-5.58-.13-5.32.36-10.65-1.34-15.89-.63-2-.26-4.24-.26-6.38 0-11-.05-21.93 0-32.9 0-5-.47-10.14 1.3-15.09a11.06 11.06 0 0 0 .25-4.77c-.94-8.6 1.18-17 1.9-25.47.74-8.69 3.19-17.22 4.27-25.9 1.38-11.13 4-22 6.74-32.79a452.85 452.85 0 0 1 19.6-60.84c5.42-13.36 11-26.65 17.6-39.45 7.29-14.23 15.18-28.16 23.79-41.67 8.75-13.73 18.33-26.84 28.3-39.64q11-14.14 23.34-27.34c5.82-6.21 11-13.18 17.55-18.58 8.85-7.31 16.66-15.7 25.51-23 7-5.75 14-11.54 21-17.15 9-7.11 18.11-14 28-19.81 2.54-1.48 5-3 7.41-4.75 7.17-5.15 15.19-8.87 22.69-13.47 8.9-5.46 18.28-10 27.63-14.56 5-2.45 10.07-4.88 15.62-5.93a34.39 34.39 0 0 1 -.71 3.93 691 691 0 0 0 -19.76 86.64c-1.41 8.7-2.32 17.48-3.85 26.15-1 5.54.89 9.26 5.58 12 3.44 2 6.69 4.4 10.1 6.5a349.77 349.77 0 0 0 35.39 18.88 1.73 1.73 0 0 0 1.94 1.06l.25.13c.44 1.56 1.54 1.78 2.92 1.4l.32.19c.5 2.92 3.21 3.35 5.21 4.48 9.76 5.51 19.65 10.79 29.29 16.51 2.37 1.41-.55 1.55-1.24 2.15-20-3.55-40-7.18-60-10.62-9.48-1.63-19-3.05-28.68-2.89-3.88.06-4.63.76-4.73 4.76-.47 19.26-.57 38.54.69 57.76a518.53 518.53 0 0 0 6.13 54.15c2 11.58 4.27 23.12 6.66 34.62.45 2.2.3 5 2.85 6.33 1.54 1.72 3.79 1.87 5.79 2.51 4.3 1.38 8.66 2.59 13 3.84 11.5 3.3 23 6.68 34.53 9.87 9.73 2.7 19.52 5.23 29.3 7.75 2 .5 3.5 1.24 4 3.33-3.69.53-7.37 1.3-11.09 1.56-10.65.77-21.32 1.31-32 2-7.19.47-14.38 1-21.56 1.61-3.45.31-6.88.93-10.29 1.56-2.7.5-3.55 1.88-2.61 4.59 2.71 7.82 5.36 15.67 8.41 23.36 10.92 27.59 23.94 54.21 37.35 80.66a134.27 134.27 0 0 0 -26.68 12.7c-12.1 7.42-23.58 15.66-33.34 26a151.63 151.63 0 0 0 -14.03 17.29c-11.46 16.46-18.94 34.55-21 54.66-.17 1.59-.14 3.25-1.89 4.22-2.22-1.16-3.26-3.37-4.39-5.41-4-7.23-8-14.47-11.75-21.85-3.6-7.14-6.87-14.46-10.22-21.72a339 339 0 0 1 -14-35.74 13.6 13.6 0 0 1 -.9-7c17-8 30.72-20.15 43-34.07s22.17-29.41 30.7-45.82a280.9 280.9 0 0 0 12-27.09 3.08 3.08 0 0 0 .16-2.27c-.6-1-1.79-.86-2.85-.57a74.54 74.54 0 0 0 -16.23 6.73 137.14 137.14 0 0 0 -45.15 38.93 123.79 123.79 0 0 0 -23.59 57.14 4.74 4.74 0 0 1 -3-3.47c-1.12-4.12-2.3-8.22-3.48-12.32-4.43-15.38-7.64-31-10.76-46.72a8.71 8.71 0 0 1 1.6-6.81 55.59 55.59 0 0 0 4.63-8.39c6.3-14.28 6.21-29.62 7.68-44.7a18.08 18.08 0 0 0 -.48-4 29.67 29.67 0 0 1 -.6-4.75c.27-12.33-1.66-24.46-3.57-36.56-1-6.21-1.73-12.51-3.8-19-3.9 1.79-5.21 5.27-6.55 8.21a113.33 113.33 0 0 0 -10.34 42.48c-.33 7.94-1 15.82-.32 23.86a229.12 229.12 0 0 0 4 27.66c.81 3.91 2 7.76 2.57 11.71a458 458 0 0 0 13.84 63.2 59.27 59.27 0 0 1 1.1 6.28l-.74.62c-2.49-.34-4.46-1.78-6.39-3.18a124.61 124.61 0 0 0 -26-14.2c-12.93-5.34-26.25-8.58-40.51-5.63-16.17 3.36-29.24 11.23-38.72 24.85-1.29 1.85-1.13 3.07.74 3.85a56.89 56.89 0 0 0 8.27 3c12.45 3 25 5.5 37.9 5.33 11.73-.15 23.44.45 35.17-1.32 8.7-1.3 17.41-2.3 25.93-4.59 1.54-.41 3.14-.61 4.69-1a2.37 2.37 0 0 1 3.12 1.66c1 2.48 1.81 5 2.69 7.53a444.38 444.38 0 0 0 19.6 48.26c6.78 13.93 13.78 27.75 22 40.92.66 1 1.62 2.3 0 3.44-3.22-2.38-6.37-4.87-9.68-7.11-15.21-10.29-31.44-18-49.9-20.57-24.74-3.44-46.48 3.23-65.86 18.55-1 .81-2.17 1.62-2.13 3.21 1.11 1.62 3 2.09 4.63 2.83 12.3 5.4 25.22 8.7 38.41 11a330.4 330.4 0 0 0 33.41 3.71 232.22 232.22 0 0 0 57.45-2.72 15.41 15.41 0 0 1 4.92 5.17c16.23 24.63 35.32 46.91 56 67.91 1.08 1.1 2.61 2 2.49 4-6.83-1-13.63-2.14-20.47-2.91-9.26-1-18.54-2-27.84-2.53a84.48 84.48 0 0 0 -19.16.95c-6.27 1.08-12.71.72-19.11 1.68a221 221 0 0 0 -54.55 15.47c-3.86 1.66-7.82 3.3-11 6a4.69 4.69 0 0 0 2.89 3c3.81 2 7.57 4 11.43 5.84 15.65 7.49 32.26 11 49.52 11.52a123.07 123.07 0 0 0 19.14-1.24 159.33 159.33 0 0 0 46-13.16 145.06 145.06 0 0 0 28.94-17.06c2.32-1.78 2.61-1.62 4.76.28 5.81 5.13 11.38 10.54 17.44 15.36 17.35 13.8 34.93 27.31 54.36 38.16.7.39 1.27.94.31 1.6a4.65 4.65 0 0 1 -1.54.4 130.94 130.94 0 0 0 -38.57-6.18c-16.67-.22-32.91 2.65-48.86 7.38a173.38 173.38 0 0 0 -35.42 14.66c-1.94 1.09-1.95 2.32-.16 3.5 4.25 2.81 9 4.69 13.63 6.69 24.14 10.36 49 12.44 74.37 5.75 17.52-4.62 33.39-12.66 46.48-25.53 3.74-.54 6.64 1.6 9.5 3.35 7.44 4.55 15.37 8.13 23.12 12.06 1.86.94 3.66 2.17 5.9 2.05 1.29 2.62 2.61 5.23 3.85 7.87q15.59 33.14 49.94 45.8c2 .72 3.93 1.57 5.89 2.36a4.94 4.94 0 0 1 -4.18 1.93c-2.41 0-4.81 0-7.22 0h-269.34c-2.93 0-6-.34-8.75.45a39.79 39.79 0 0 1 -11.09 1.11c-4.81.13-9.62.12-14.43.12z" fill="#cbe9f8"/><path d="m1057.63 873.48c3.2.13 6.4.36 9.6.36q234.29 0 468.57 0a102.21 102.21 0 0 1 25.41 2.88c31.29 7.94 57.72 34.83 63.31 69.52a94 94 0 0 1 1.22 15.16v32.9a56.44 56.44 0 0 1 -24.08 4.71q0-20.87-.05-41.73a52.38 52.38 0 0 0 -5.46-24c-10.42-20.51-27.48-31-50.28-31.34-26.2-.42-52.42-.13-78.64-.09-6.32 0-6.34.15-6.52 6.13v2.41c.24 14.6-12.8 28.39-28.16 28.14-1.87 0-3.74 0-5.62 0h-258.4c-2.41 0-4.82 0-7.22-.12a28.43 28.43 0 0 1 -26.75-27.07c-.11-2.13-.08-4.28-.13-6.41s-1.29-2.78-3.05-3a19.28 19.28 0 0 0 -2.4-.11c-27.56 0-55.11-.11-82.66.07a51.5 51.5 0 0 0 -24.71 6c-18.87 10.33-29.61 26.11-29.94 47.8-.42 27-.07 54 0 81.05a21.55 21.55 0 0 0 .26 2.39c-.13 2.92-.36 5.85-.36 8.77q0 126.86.13 253.71c0 2.93.15 5.86.23 8.79-.14 2.93-.39 5.86-.39 8.78q.06 151 .19 302.09c0 1.86.17 3.72.27 5.58-.84 2.8-1.59 5.63-2.53 8.4-4.28 12.62-8.75 25.17-12.89 37.84-3.4 10.37-7 20.69-9.44 31.37l-1.74-.12c.09-13.06.2-26.12.25-39.17 0-2.12-.3-4.23-.47-6.35a53.63 53.63 0 0 0 0-16c1.06-6.36.46-12.77.43-19.15 0-8.78.63-17.59-.4-26.36a46.49 46.49 0 0 0 .45-4.69q.06-20.6 0-41.18c0-1.83-.31-3.66-.47-5.49.9-2.6.51-5.29.51-7.94q0-107.28 0-214.54c0-2.65-.32-5.31-.49-8 .16-1.58.47-3.16.48-4.74q.06-21.94 0-43.9a42.13 42.13 0 0 0 -.55-4.72c.95-3.42.52-6.91.52-10.37q0-142.77 0-285.53c0-8.28.15-16.52 1.91-24.72 7.19-33.33 35-60.18 68.56-66.34 7.13-1.25 14.33-1.02 21.5-1.67z" fill="#0f67aa"/><path d="m714.07 2121.07h14.43a39.79 39.79 0 0 0 11.09-1.11c2.73-.79 5.82-.45 8.75-.45h269.34 7.22a4.94 4.94 0 0 0 4.18-1.93c13.43 3.13 27.1 2.45 40.72 2.45q231.51 0 463 0c8 0 16-.38 24.06-.58a4 4 0 0 0 3.48 1.58h7.21q177.5 0 355 0c20.53 0 41.09 1 61.54-1.7 9.52.06 19.05-.07 28.56.23a60.23 60.23 0 0 0 24-4c2.76 1.4 5.74.83 8.62.83q32.66.08 65.3 0a11.22 11.22 0 0 1 -7.27 5.88 222.4 222.4 0 0 1 -27.84 6.91c-7.84 1.35-15.7 2.58-23.57 3.78-6.28 1-12.6 1.68-18.88 2.68-7.86 1.24-15.88 1.06-23.68 2.87a30.72 30.72 0 0 1 -6.38.31c-2.93.06-5.87-.11-8.69 1a6.75 6.75 0 0 1 -3.13.5c-7.79-.8-15.28 2.34-23.05 1.72a4.11 4.11 0 0 0 -3.54 1.5c-4 0-8 0-12 .08s-8-.18-11.9 1.15c-2.19.74-4.77.37-7.17.43-4.79.12-9.59-.34-14.29 1.3-1.69.59-3.71.26-5.58.31-5.85.15-11.66-.16-17.51 1.3-3.78.95-8 .25-12 .32-4.26.07-8.49-.21-12.7 1.19-2.19.73-4.77.32-7.17.4-7.18.26-14.33-.33-21.52 1.33-4.58 1-9.59.22-14.4.29-5.06.08-10.13-.44-15.1 1.28-1.69.58-3.71.29-5.58.3-5.88 0-11.77 0-17.65 0a20.81 20.81 0 0 0 -4.81.11c-10.81 2.74-21.82 1-32.72 1.48-4.26.18-8.51-.23-12.7 1.22-1.94.67-4.24.36-6.37.37-7.76 0-15.52 0-23.28 0-5.32.05-10.65-.38-15.9 1.3-2 .62-4.24.27-6.38.27-11.24 0-22.47 0-33.71 0-4.79 0-9.57-.26-14.3 1.24-2.2.71-4.77.32-7.18.32q-27.69 0-55.37.05a38.41 38.41 0 0 0 -10.32 1c-2.76.76-5.82.54-8.76.54q-101.52 0-203 0-55 0-110 0c-4.26 0-8.5.21-12.71-1.17-2.2-.72-4.77-.37-7.17-.38q-30.49 0-61-.05c-4 0-8 .16-11.9-1.14-2.2-.73-4.77-.4-7.17-.41-12 0-24.08 0-36.11-.06-5.06 0-10.13.45-15.1-1.26-1.69-.59-3.71-.29-5.58-.29-9.1 0-18.19 0-27.29 0-4.52 0-9.05.29-13.49-1.25-1.7-.58-3.71-.31-5.58-.32-7.22 0-14.45 0-21.67 0-4.26 0-8.52.29-12.7-1.21-1.68-.61-3.7-.34-5.57-.35-5.88 0-11.77 0-17.65 0-4 0-8 .23-11.9-1.19-1.69-.61-3.7-.31-5.57-.39-9-.34-18.08.5-27.14-1.37-5.13-1.06-10.66-.22-16-.26a36.46 36.46 0 0 1 -10.31-1.05c-2.49-.73-5.29-.44-8-.53-5.85-.2-11.68.28-17.51-1.31-3.25-.88-6.91-.24-10.38-.31-4.26-.09-8.53.32-12.7-1.21-1.68-.61-3.7-.34-5.57-.38-4.79-.1-9.62.36-14.29-1.34a12.46 12.46 0 0 0 -4-.26c-5.32-.11-10.65.28-15.89-1.41-1.95-.62-4.25-.19-6.39-.21-3.2 0-6.42.2-9.49-1.11a5 5 0 0 0 -2.35-.4c-7.27.79-14.27-1.58-21.47-1.86-5.27-.21-10.49-1.54-15.73-2.39-.26 0-.51-.24-.76-.24-8.32-.06-16.34-2.19-24.43-3.69-7.31-1.35-14.56-3.06-21.79-4.82-3.64-.98-6.93-2.76-8.74-6.43z" fill="#cad5e9"/><path d="m852 1453.34a349.77 349.77 0 0 1 -35.36-18.81c-3.41-2.1-6.66-4.46-10.1-6.5-4.69-2.77-6.55-6.49-5.58-12 1.53-8.67 2.44-17.45 3.85-26.15a691 691 0 0 1 19.76-86.64 34.39 34.39 0 0 0 .71-3.93c2.18-4 3-8.44 4.42-12.71 5.81-17.9 12-35.67 19.44-53 1.91 1.63 2.4 3.89 3.05 6.2a243.8 243.8 0 0 0 9.13 27.57c.37 1.17.41 2.57 2 3-.43 3.69.06 7.08 3.19 9.58v.07c-.72 3.28.31 6.29 1.29 9.36q7.1 22.07 14 44.19 14.56 46.51 29.07 93.06c5.1 16.27 10.4 32.48 15.43 48.77 1.32 4.29 3.31 8.49 2.88 13.18l-.09.1c-3.75-.54-7-2.3-10.39-3.9q-27-13-53.87-26c-2.38-1.15-4.66-2.62-7.44-2.66l-.33-.18a3.41 3.41 0 0 0 -2.92-1.4l-.25-.13a1.9 1.9 0 0 0 -1.89-1.07z" fill="#f4ab63"/><path d="m861.32 1267.36a243.8 243.8 0 0 1 -9.13-27.57c-.65-2.31-1.14-4.57-3.05-6.2.76-2.16 2.33-1.93 3.8-1.07 6 3.52 12 7 17.79 10.73 11 7 21.9 14.19 32.4 22 2.56 1.9 5.35 3.48 8 5.21 1.56 1.44 3 3 4.69 4.3 5.44 4.28 10.92 8.53 16.47 12.68a12.77 12.77 0 0 1 5.23 9.36 114.75 114.75 0 0 1 1 18.32c-.48 14.38-1.07 28.75-1.61 43.12a5.29 5.29 0 0 1 -.05.8c-2.24 10.75-1 21.77-2.6 32.62-1.5 10.52-1.53 21.24-2.24 31.87a26.2 26.2 0 0 1 -.61 3.13c-1.3 5.08-.55 10.56-3.13 15.83-1.94-2.08-2.84-4.57-3.75-7-2.22-6-4.33-12-6.53-18-8-21.77-16-43.51-23.91-65.31-7.64-21-15.12-42.13-22.7-63.2-1.16-3.23-2.08-6.61-4.93-8.91v-.07c.43-3.69 0-7.09-3.19-9.58a14.21 14.21 0 0 0 0-2.35c-.17-1.56-.9-1.74-1.95-.71z" fill="#f4c290"/><path d="m931.46 1426.62a24.39 24.39 0 0 0 .62-3.13c.71-10.63.74-21.35 2.24-31.87 1.55-10.85.36-21.87 2.6-32.62a5.29 5.29 0 0 0 .05-.8c.54-14.37 1.13-28.74 1.61-43.12a114.75 114.75 0 0 0 -1-18.32 12.77 12.77 0 0 0 -5.23-9.36c-5.55-4.15-11-8.4-16.47-12.68-1.66-1.31-3.13-2.86-4.69-4.3 9-2 18.06-3.87 27.21-5.29 8.89-1.37 17.7-3.1 26.73-3a42.13 42.13 0 0 1 .55 4.72q.06 21.94 0 43.9c0 1.58-.32 3.16-.48 4.74a54.46 54.46 0 0 0 -4.41 10.22c-4.44 14.18-8.89 28.35-12.36 42.8-1.86 7.72-4.23 15.34-5 23.29-.35.69-.7 1.38-1.06 2.07l-.42 3c-1.89 2-2.42 4.52-3 7.1-1.48 6.36-3.2 12.67-4.73 19a5 5 0 0 1 -2.76 3.65z" fill="#cbe9f8"/><path d="m2110.61 2116.28q-32.66 0-65.3 0c-2.88 0-5.86.57-8.62-.83 14.67-7.6 24.13-19.15 26.69-35.74a74.31 74.31 0 0 0 .54-11.17q0-80.93 0-161.85c0-19 .11-37.93-.09-56.89-.14-13.86-5.93-25.31-16.22-34.44-7.21-6.4-16-9.52-25.38-10.89a5.9 5.9 0 0 0 -4.5-1.19c-13 .61-26-.74-39 1.21-8.56 1.28-17.52.84-26.28-.18.16-1.1 0-2.1-1.12-2.64-4.57-2.13-9-4.51-13.75-6.32a168.82 168.82 0 0 0 -61.58-11.35c-.32-.42-.8-.8-.93-1.27a103.53 103.53 0 0 0 -14.13-30.28 288.45 288.45 0 0 0 18.58-26.25c4.35-.64 8.42 1.31 12.68 1.41 20.83.46 41.65 1 62.25-3.14a159.14 159.14 0 0 0 32.85-10c2-.9 2.3-2.34.68-3.59-17.85-13.83-37.56-19.43-60-14.08a100 100 0 0 0 -32.74 14.54c-2.38 1.6-4.49 3.91-7.78 3.58a12.75 12.75 0 0 1 .85-3c11.45-20.16 21.44-41 28.87-63 1.19-3.52 2.6-7 3.78-10.5.62-1.84 2-2.32 3.63-2.53 2.59.64 5.16 1.37 7.78 1.92 16.61 3.45 33.43 4 50.28 2.94a105.46 105.46 0 0 0 29.76-6c3.31-1.21 3.66-2.29 1.33-5.16-13-16-29.78-22-49.94-18-14.19 2.81-26.46 9.8-37.78 18.58-1.86-.87-1.83-2.44-1.43-4.06 1.75-7 3.79-13.88 5.25-20.9 1.6-7.79 4.17-15.42 4.09-23.51.94-5 1.67-10 2.86-14.93a143.82 143.82 0 0 0 3.5-43.8 99.67 99.67 0 0 0 -8.31-34.1c-1.09-2.42-2.11-4.95-4.2-6.75a1.18 1.18 0 0 0 -1.94.31 8 8 0 0 0 -.82 2.25c-3.19 17.92-6 35.9-5 54.17.73 13.41 2.33 26.7 10.46 38.13 1 1.4.69 3.08.74 4.67a48.93 48.93 0 0 0 -1.63 5.34 379.57 379.57 0 0 1 -9.07 39 41.62 41.62 0 0 0 -.9 5.49v.07l-1.68.59a118.93 118.93 0 0 0 -8.51-27.42c-5.91-12.82-14.52-23.53-24.69-33.22-9.44-9-20.34-15.5-32.16-20.67a8.58 8.58 0 0 0 -4.64-1 1.9 1.9 0 0 0 -1.77 2.19 6.79 6.79 0 0 0 .65 2.29c6.07 14.28 13 28.11 21.91 40.85 11 15.69 23.83 29.45 40.4 39.41 2.29 1.38 4.5 2.88 7.18 3.43a27.6 27.6 0 0 1 -.68 3.88c-7.45 23.31-17.93 45.28-29.67 66.69a7.77 7.77 0 0 1 -1.88 2.51c-.45.34-1.43 0-2.17-.06a87.68 87.68 0 0 0 -8.83-31.34 110.65 110.65 0 0 0 -29.68-37.19c-8.67-7.17-18.25-12.91-28.15-18.15 1.33-3.48 2.68-7 4-10.44q.83-2.23 1.49-4.55c.63-2.26 0-3.3-2.22-4.27s-4.16-.84-6.28-.85c-6.14 0-12.27 0-18.4-.07-1.86 0-3.86.25-5.56-.32-4.44-1.5-9-1.17-13.46-1.18-13.87 0-27.73 0-41.6 0-7.47 0-15 .24-22.39-.13-4.77-.24-7.48 1.57-9.2 5.86-2 4.93-4.15 9.8-6.5 14.57q-12.93 26.16-26 52.24c-1 1.91-2 3.77-3 5.67a3.69 3.69 0 0 1 -3.2 2c-2.56-2.68-3.21-6-3.39-9.55a5.08 5.08 0 0 0 1.07-1.16c4.69-10.16 9.24-20.39 14-30.51 7.08-14.95 14.35-29.81 21.48-44.74 1.15-2.4 2-5 3-7.43a6.87 6.87 0 0 0 -.79-6.8c-5-7.55-9.88-15.19-14.76-22.82-5.73-9-11.53-17.94-17-27.06a12.81 12.81 0 0 0 -5.89-5.11 109.88 109.88 0 0 1 -17-10.47c-5.56-4-11-8.44-17.5-11-.12-2.4-.33-4.8-.34-7.19q0-99.4 0-198.81c0-1.87 0-3.74.11-5.61.08-1.55 1.15-2.28 2.51-2.7 8.86 3 18 4.7 27.24 6.32a352.15 352.15 0 0 0 53.27 5.74c26.17.58 52.35 1.17 78.48-1.32 9.57-.91 19.19-1.25 28.74-2.26 11.13-1.19 22.2-2.95 33.33-4.25a170.12 170.12 0 0 0 41.1-10c23.18-8.87 42.81-22.69 58.33-42.26 10.24-12.92 17.72-27.27 23.53-42.6 1-2.71 1.35-5.72 3.31-8.06 1.56.28 3.29.22 4.67.89 14.44 6.91 29.11 13.27 43.11 21.17 12.79 7.22 25.59 14.41 37.78 22.54 11.29 7.52 22.93 14.6 33.22 23.56 2.21 1.91 4.63 3.58 7 5.36 7 5.35 13.51 11.24 20.25 16.86 17.08 14.26 31.73 31 47.66 46.38 4 3.87 7.42 8.37 11 12.69 3.71 4.52 7.24 9.19 10.86 13.78 4.45 5.65 9.15 11.11 13.34 16.95 11 15.38 21.6 31.09 31.1 47.48 9 15.49 17.09 31.48 24.55 47.74 6.56 14.28 12.3 28.93 17.74 43.71a502.45 502.45 0 0 1 14.96 49.67c3.74 14.64 6.54 29.56 9.05 44.52 1.53 9.16 2.12 18.47 4.27 27.53a23.19 23.19 0 0 1 .19 4.8c0 1.87-.37 3.87.16 5.59 2.16 7.08 1.23 14.32 1.45 21.49a17.7 17.7 0 0 0 .11 4c2.66 9.74 1.21 19.67 1.42 29.51.14 6.64.68 13.32-1.31 19.9-.68 2.21-.15 4.78-.23 7.19-.19 6.11.74 12.3-1.41 18.28a9.09 9.09 0 0 0 -.17 3.18c.22 8.31-1.27 16.4-2.84 24.51-.81 4.16-1 8.42-1.73 12.63-2.39 14.71-5.55 29.24-9 43.72a489.9 489.9 0 0 1 -15.08 49.72c-4.84 13.56-10.38 26.84-16.06 40.08-4 9.34-8.42 18.48-13.12 27.46-6.43 12.29-13.24 24.37-20.73 36.06-3.31 5.16-6.45 10.44-9.84 15.54-9.3 14-19.51 27.29-30 40.43-7 8.78-14.65 16.91-21.92 25.39s-15.37 16.32-23.19 24.34c-8.19 8.41-17.21 15.91-26.3 23.31-2.08 1.63-4.08 3.38-6.11 5.1zm-306.55-746.45a22.94 22.94 0 0 1 -.85 4.67c-1.67 4.22-3.58 8.33-5.36 12.5-6.36 15-12.75 29.93-19 44.92-5 11.79-9.72 23.67-14.71 35.45-6.66 15.71-13.47 31.36-20.17 47.05-.79 1.86-1.73 3.81-.74 6 7.67 1.28 15-1 22.3-1.83 12.12-1.43 24-4.36 35.86-7.58a120.33 120.33 0 0 0 35.44-16.29 8.59 8.59 0 0 0 4.26-8c-.18-5.34-.3-10.71 0-16 .68-10.72-.63-21.36-2-31.87-1.6-12.62-4.5-25.09-7.23-37.55-4.11-18.73-9.21-37.21-14.95-55.51-.89-2.83-1.37-3.21-3.89-2-6.71 3.25-13.35 6.64-20 9.92-13.21 6.46-25.65 14.23-38 22.22-11.64 7.56-10.7 4.75-15.16 21.85a220.65 220.65 0 0 0 -4.59 22.63c-1.33 8.66-3.27 17.22-3.52 26.05-.31 10.77 3.09 21 3.86 31.64.52 7.14 1.75 14.22 2.67 21.32.13 1-.14 2.21 1.43 2.32 1.84-.94 2.3-2.89 3.07-4.51 3.09-6.51 6-13.12 9.07-19.62 7.61-15.89 15.3-31.75 23-47.63.35-.72.69-1.44 1-2.17q9.06-19.62 18.11-39.24c2-4.35 4.49-8.48 5.92-13.12.65-2.31 1.67-4.61 4.18-5.62zm-70.69 141c1-4.21-1.67-8.45-1.53-13 .23-7.5-2.51-14.75-1.78-22.29a5.36 5.36 0 0 0 -.47-2.34c-1.15-2.82-.93-5.77-1-8.7-.06-2.14.25-4.42-.4-6.37-1.32-3.94-1.12-7.91-1.21-11.91 0-1.86.19-3.84-.34-5.58-2.06-6.7-1.47-13.73-2.54-20.57-.82-5.19-2.22-10.42-2.12-15.8a8.42 8.42 0 0 0 -1-3c-.94-2.21-2.4-2.48-4.38-.89-2.7 2.17-5.49 4.24-8.1 6.51-8.85 7.69-17.92 15.15-26.39 23.25-13.89 13.3-27.43 27-40 41.55-.87 1-1.36 2.34-2.29 3.27-2.78 2.79-2.12 4.49-.12 7.06 4.73 6.1 9.67 12 14.54 18 7.39 9.1 14.86 18.13 22.16 27.3 9.45 11.87 18.7 23.91 28.18 35.76 3.35 4.18 4.71 4.61 7.18-.58q10-21 20.14-41.9c1.45-2.99 1.63-6.09 1.47-9.76zm106 21.92c0-4.4-.23-4.55-4.61-5.94a29.53 29.53 0 0 0 -9.46-1.28c-5.08.06-10.16 0-15.24 0-2.67 0-5.46-.22-8 .48a37.53 37.53 0 0 1 -10.31 1c-6.68 0-13.36 0-20 .07-2.4 0-5-.38-7.17.3-5.26 1.6-10.59 1.14-15.9 1.27-2.41 0-4.82 0-7.22.09a5 5 0 0 0 -4.55 2.76c-1 1.89-2 3.77-2.9 5.72-5.3 11.65-10.81 23.22-15.74 35-2.37 5.68-5.22 11.1-7.67 16.73-1.18 2.72-.21 3.9 2.81 3.84 3.24-.07 6.15-1.52 9.43-1.66 6.63-.28 13.27-.89 19.84-1.83 8.15-1.17 16.23-2.84 24.5-2.94a9 9 0 0 0 3.18-.31c3.59-1.46 7.34-1.18 11.07-1.27 1.6 0 3.33.19 4.78-.33 4.15-1.49 8.42-1.18 12.68-1.28 1.6 0 3.32.2 4.78-.31 4.68-1.63 9.49-1.2 14.28-1.3 2.41 0 4.81 0 7.22-.11a4.78 4.78 0 0 0 4.44-2.91 24.11 24.11 0 0 0 1.68-4.47c2.06-8.53 4.22-17 6-25.64.98-5.07 1.36-10.43 2.05-15.67z" fill="#afe1f4"/><path d="m1975.71 1193.15c-2 2.34-2.28 5.35-3.31 8.06-5.81 15.33-13.29 29.68-23.53 42.6-15.52 19.57-35.15 33.39-58.33 42.26a170.12 170.12 0 0 1 -41.1 10c-11.13 1.3-22.2 3.06-33.33 4.25-9.55 1-19.17 1.35-28.74 2.26-26.13 2.49-52.31 1.9-78.48 1.32a352.15 352.15 0 0 1 -53.27-5.74c-9.2-1.62-18.38-3.28-27.24-6.32-5.93-1.15-11.85-2.29-17.46-4.78-2.85-1.27-5.84-2.48-9.09-2.52-1.41-1.68-3.45-2.3-5.33-3.2-5-2.39-10.12-4.46-14.78-7.33s-8.8-2.74-13.14.19c-.66.44-1.36.8-2 1.2a2.06 2.06 0 0 0 -1.94 1.17l-4.5 1.83a3.41 3.41 0 0 0 -3.4 1.43l-11 3.49a3.54 3.54 0 0 0 -3.58 1.22l-2.85.39c-1.88-.28-3.68-.26-5.12 1.25l-2.9.26-19.38-.08a2.73 2.73 0 0 0 -1.36-.14c-1.39-1.53-3.19-1.61-5.06-1.42-2.41-1.15-4.84-2.25-7.23-3.45a28.06 28.06 0 0 1 -7.2-5c-2-2-2-3.78.2-5.29 2.43-1.65 5-3 7.51-4.6 4.07-2.56 8.28-4.93 12.11-7.81 7.55-5.68 13.9-12.47 18-21.17 1.78-3.81 2.11-7.08-.57-11.08-13.84-20.69-20.3-44-22.49-68.49-1-11.42-1-22.93-1.55-34.4-.58-12.84 1-25.6 1.5-38.4a25.53 25.53 0 0 1 .57-4q2-10.58 4.13-21.16a14.31 14.31 0 0 0 1.17-2.08c6.76-18.46 19.5-31.46 36.67-40.52 13.3-7 27.47-11.54 42-15.24 3.86-1 7.68-2.13 11.51-3.21a56.44 56.44 0 0 0 24.08-4.71c7 .62 13.75-1.64 20.65-2.29 12.75-1.21 25.5-2.55 38.18-4.28 11.69-1.59 23.48-1.18 35.17-2.47 5-.55 10.14-.46 15.22-.52 8.55-.09 17.11-.07 25.66-.1 17.91-.05 35.74 1.27 53.58 2.87a414.48 414.48 0 0 1 61.58 10c19.51 4.76 38.49 11.08 56.22 20.71a123.15 123.15 0 0 1 30.16 22.33c13.38 13.8 20.6 30.16 21.92 49.42.69 10.13 1.31 20.25 1.34 30.4.06 23.36-2.64 46.35-9.13 68.85a26.91 26.91 0 0 0 -.74 4.04zm-218.23-51.15a16.3 16.3 0 1 0 -16.35 16 16 16 0 0 0 16.35-16zm-96.82 16a16.3 16.3 0 0 0 16.45-16 16.4 16.4 0 1 0 -32.8-.12c-.09 8.82 7.4 16.12 16.35 16.12zm174.12-16.28c.55-8.24-6.82-16.4-16.21-16.33a16.18 16.18 0 0 0 -16.22 16.37 16.22 16.22 0 1 0 32.43 0z" fill="#6d6eb3"/><path d="m1556.87 2119.34c-8 .2-16 .58-24.06.58q-231.49.06-463 0c-13.62 0-27.29.68-40.72-2.45-2-.79-3.9-1.64-5.89-2.36q-34.43-12.6-49.94-45.8c-1.24-2.64-2.56-5.25-3.85-7.87-.16-2.12.35-4.38-1.28-6.2-.25-1.56-.49-3.12-.74-4.68a1.58 1.58 0 0 0 -.49-1.92q-.64-5.53-1.27-11.06c-.22-6.6-.55-13.2-.63-19.81-.11-8.74 0-17.5 0-26.25 0-7.15-.18-14.3-.28-21.45a5.36 5.36 0 0 0 .19-1.12 1.65 1.65 0 0 0 .59-2.1c.3-10 .53-20.08-.13-30.11.1-1.59.29-3.18.3-4.77q0-48.69 0-97.37c0-1.84-.35-3.68-.53-5.52a63 63 0 0 0 .11-18l.84-10.27a26 26 0 0 1 1.42 3.69c5.38 24.38 13.1 48 22.13 71.27.95 2.45 1.55 5 2.31 7.57a21.14 21.14 0 0 0 -.27 2.38c0 52.14-.09 104.28.2 156.42.09 14.58 6.51 27 17 36.84a53.37 53.37 0 0 0 38.66 14.79c8.55-.17 17.11 0 25.67 0 2.13.13 4.26.36 6.39.36q80.25 0 160.5 0c2.39 0 4.77-.34 7.16-.52 1.86.08 3.72.23 5.58.23q61.88 0 123.77 0c1.59 0 3.19-.12 4.78-.19 2.38.17 4.77.48 7.15.48q72.85 0 145.71 0c2.66 0 5.35.27 7.93-.66 5.64.75 11.13 0 16.68-1.15 14.39-3 25.33-11.13 33.43-23 6.61-9.71 9.52-20.67 9.51-32.52q-.09-101.89 0-203.79c0-2.4-.14-4.81-.21-7.21 1.76-2.13 4.39-2.91 6.66-4.24a149.63 149.63 0 0 0 16.07-10.31 2.92 2.92 0 0 1 1.5 2.6c0 3.19.07 6.38.09 9.56q.15 22.69.28 45.4c-.12 3.2-.36 6.39-.36 9.59q0 77 0 153.95a87 87 0 0 1 -1.68 19.11c-3.89 17.42-12 32.56-24.84 44.9a84.57 84.57 0 0 1 -38.89 21.39c-1.32.31-2.68.39-3.55 1.59z" fill="#0f67aa"/><path d="m965.17 1597.33c1 8.77.36 17.58.4 26.36 0 6.38.63 12.79-.43 19.15a191.16 191.16 0 0 1 -27-1.78c-6.29-1-12.67-1.34-19-2.13-6.58-.82-13.13-1.82-19.7-2.74-9.2-1.28-18.41-2.49-27.59-3.86-8.39-1.26-16.73-2.95-25.15-4-8.7-1.07-17.29-2.72-25.91-4.29-2.33-.42-4.74-.48-7.11-.7-2.55-1.37-2.4-4.13-2.85-6.33-2.39-11.5-4.67-23-6.66-34.62a518.53 518.53 0 0 1 -6.13-54.15c-1.26-19.22-1.16-38.5-.69-57.76.1-4 .85-4.7 4.73-4.76 9.67-.16 19.2 1.26 28.68 2.89 20 3.44 40 7.07 60 10.62 1.19 1.3 2.82 1.38 4.42 1.47a18.15 18.15 0 0 1 7.63 2.23c9.38 5.07 18.67 10.32 28 15.46a9.3 9.3 0 0 1 4.8 6c2 6.91 4.27 13.74 6.46 20.59q11.51 36.19 23.1 72.35z" fill="#f4ab63"/><path d="m968.12 2055.26c1.63 1.82 1.12 4.08 1.28 6.2-2.24.12-4-1.11-5.9-2.05-7.75-3.93-15.68-7.51-23.12-12.06-2.86-1.75-5.76-3.89-9.5-3.35-.79-1.9-2.42-2.56-4.25-3.21-2.46-.86-5.23-1.07-7.22-3.06a4.65 4.65 0 0 0 1.54-.4c1-.66.39-1.21-.31-1.6-19.43-10.85-37-24.36-54.36-38.16-6.06-4.82-11.63-10.23-17.44-15.36-2.15-1.9-2.44-2.06-4.76-.28a145.06 145.06 0 0 1 -28.94 17.07 159.33 159.33 0 0 1 -46 13.16 123.07 123.07 0 0 1 -19.14 1.24c-17.26-.54-33.87-4-49.52-11.52-3.86-1.84-7.62-3.89-11.43-5.84a4.69 4.69 0 0 1 -2.89-3c3.17-2.74 7.13-4.38 11-6a221 221 0 0 1 54.49-15.46c6.4-1 12.84-.6 19.11-1.68a84.48 84.48 0 0 1 19.16-.95c9.3.52 18.58 1.5 27.84 2.53 6.84.77 13.64 1.92 20.47 2.91.12-2-1.41-2.88-2.49-4-20.63-21-39.72-43.28-56-67.91a15.41 15.41 0 0 0 -4.92-5.17 4.83 4.83 0 0 0 -2.34-5.34c-1.56-.94-3.19-1.77-4-3.56 1.62-1.14.66-2.39 0-3.44-8.21-13.17-15.21-27-22-40.92a444.38 444.38 0 0 1 -19.48-48.22c-.88-2.51-1.73-5-2.69-7.53a2.37 2.37 0 0 0 -3.12-1.66c-1.55.41-3.15.61-4.69 1-8.52 2.29-17.23 3.29-25.93 4.59-11.73 1.77-23.44 1.17-35.17 1.32-12.89.17-25.45-2.3-37.9-5.33a56.89 56.89 0 0 1 -8.27-3c-1.87-.78-2-2-.74-3.85 9.48-13.62 22.55-21.49 38.72-24.85 14.26-3 27.58.29 40.51 5.63a124.61 124.61 0 0 1 26 14.2c1.93 1.4 3.9 2.84 6.4 3.18a14.78 14.78 0 0 0 .58 1.37c.1.19.38.29.58.43.16-.42.51-.88.43-1.25s-.56-.79-.86-1.17a59.27 59.27 0 0 0 -1.1-6.28 458 458 0 0 1 -13.84-63.2c-.55-4-1.76-7.8-2.57-11.71a229.12 229.12 0 0 1 -4-27.66c-.65-8 0-15.92.32-23.86a113.33 113.33 0 0 1 10.34-42.47c1.34-2.94 2.65-6.42 6.55-8.21 2.07 6.44 2.82 12.74 3.8 19 1.91 12.1 3.84 24.23 3.57 36.56a29.67 29.67 0 0 0 .6 4.75 18.08 18.08 0 0 1 .48 4c-1.47 15.08-1.38 30.42-7.68 44.7a55.59 55.59 0 0 1 -4.63 8.39 8.71 8.71 0 0 0 -1.6 6.81c3.12 15.68 6.33 31.34 10.76 46.72 1.18 4.1 2.36 8.2 3.48 12.32a4.74 4.74 0 0 0 3 3.47c.6 2.36-.68 5.23 1.94 7a13.6 13.6 0 0 0 .9 7 339 339 0 0 0 14 35.74c3.35 7.26 6.62 14.58 10.22 21.72 3.72 7.38 7.75 14.62 11.75 21.85 1.13 2 2.17 4.25 4.39 5.41 1.75-1 1.72-2.63 1.89-4.22 2.06-20.11 9.54-38.2 21-54.66a151.63 151.63 0 0 1 14.15-17.32c9.76-10.35 21.24-18.59 33.34-26a134.27 134.27 0 0 1 26.68-12.7c1.8-.41 3.59-.94 5.41-1.21s2.9 1 2.31 3c-.84 2.79-1.8 5.54-2.72 8.31-2.47 2.63-3 6.22-4.51 9.32a272.59 272.59 0 0 1 -36 55.67 215.85 215.85 0 0 1 -32.45 30.8c-6.53 5.14-13.66 9.33-20.64 13.77-4.05 2.59-4.29 3.87-2 7.73.28.45.62.87.93 1.31 7 10.09 14 20.15 21.8 29.67 6.24 7.65 12.72 15.11 18.9 22.81s13.46 14.47 20.41 21.49a4.09 4.09 0 0 0 3.64 1.18c.42 1.51.7 3.1 2.23 4a36.37 36.37 0 0 0 3.19 3.58c7.84 6.84 15.59 13.8 23.66 20.36a442.07 442.07 0 0 0 60 41.21c1.15.66 2.21 1.53 3.91.75.18-.86.42-1.88.62-2.91s.32-2.11.54-3.15c4.55-21.08 13-40.64 23.25-59.47.9-1.66 1.73-3.34 3.62-4.1.1 7.15.24 14.3.28 21.45 0 8.75-.07 17.51 0 26.25.08 6.61.41 13.21.63 19.81-1.85.09-3.78-.16-5.52.32a133.61 133.61 0 0 1 -15.44 3.5c-1.07.16-2.65.27-3 2.31 7.3 5.15 15.62 8.58 23.66 12.53 1.12.43 2.07-.27 2.82-1.09z" fill="#9e98ca"/><path d="m873.56 1776.09c.92-2.77 1.88-5.52 2.72-8.31.59-1.93-.42-3.26-2.31-3s-3.61.8-5.41 1.21c-13.41-26.45-26.43-53.07-37.35-80.66-3.05-7.69-5.7-15.54-8.41-23.36-.94-2.71-.09-4.09 2.61-4.59 3.41-.63 6.84-1.25 10.29-1.56 7.18-.65 14.37-1.14 21.56-1.61 10.66-.69 21.33-1.23 32-2 3.72-.26 7.4-1 11.09-1.56a17.38 17.38 0 0 1 9.25-.09c4.28 1.28 8.8 1.76 13.19 2.67a272.27 272.27 0 0 0 42.37 5.54c.17 2.12.47 4.23.47 6.35-.05 13-.16 26.11-.25 39.16a4.37 4.37 0 0 0 -.09 4.46c-1 4.13-1.84 8.29-2.89 12.4a83.38 83.38 0 0 0 -2.62 22 293 293 0 0 0 4 41.92c.84 5.23 1.5 10.49 2.25 15.73l-.84 10.26c-12.76 2.49-25.51 5.07-38.31 7.44-7.57 1.4-15.19 2.5-22.8 3.66-3.5.53-6.19-.51-7.79-4-1.32-2.89-3.07-5.59-4.58-8.4q-9.09-16.75-18.15-33.66z" fill="#f4ab63"/><path d="m919.41 2037.73c2 2 4.76 2.2 7.22 3.06 1.83.65 3.46 1.31 4.25 3.21-13.09 12.87-29 20.91-46.48 25.53-25.36 6.69-50.23 4.61-74.37-5.75-4.66-2-9.38-3.88-13.63-6.69-1.79-1.18-1.78-2.41.16-3.5a173.38 173.38 0 0 1 35.44-14.66c15.95-4.73 32.19-7.6 48.86-7.38a130.94 130.94 0 0 1 38.55 6.18z" fill="#6d6eb3"/><path d="m768.54 1888.38c.8 1.79 2.43 2.62 4 3.56a4.83 4.83 0 0 1 2.34 5.34 232.22 232.22 0 0 1 -57.45 2.72 330.4 330.4 0 0 1 -33.41-3.71c-13.19-2.3-26.11-5.6-38.41-11-1.67-.74-3.52-1.21-4.63-2.83 0-1.59 1.1-2.4 2.13-3.21 19.38-15.32 41.12-22 65.86-18.55 18.46 2.57 34.69 10.28 49.9 20.57 3.3 2.24 6.45 4.73 9.67 7.11z" fill="#6d6eb3"/><path d="m965.17 1597.33q-11.58-36.15-23.17-72.33c-2.19-6.85-4.5-13.68-6.46-20.59a9.3 9.3 0 0 0 -4.8-6c-9.34-5.14-18.63-10.39-28-15.46a18.15 18.15 0 0 0 -7.63-2.23c-1.6-.09-3.23-.17-4.42-1.47.69-.6 3.61-.74 1.24-2.15-9.64-5.72-19.53-11-29.29-16.51-2-1.13-4.71-1.56-5.21-4.48 2.79 0 5.07 1.5 7.45 2.65q26.94 13 53.87 26c3.34 1.6 6.64 3.36 10.39 3.9l.73.6-.64-.7c.43-4.69-1.56-8.89-2.88-13.18-5-16.29-10.33-32.5-15.43-48.77q-14.58-46.51-29.07-93.06-6.93-22.12-14-44.19c-1-3.07-2-6.08-1.29-9.36 2.85 2.3 3.77 5.68 4.93 8.91 7.58 21.07 15.06 42.16 22.7 63.2 7.9 21.8 15.94 43.54 23.91 65.31 2.2 6 4.31 12 6.53 18 .91 2.44 1.81 4.93 3.75 7 2.58-5.27 1.83-10.75 3.13-15.83a5 5 0 0 0 2.66-3.62c1.53-6.35 3.25-12.66 4.73-19 .61-2.58 1.14-5.11 3-7.1a24.5 24.5 0 0 1 -.13 4.78c-1.23 5.7-2.69 11.36-4 17q-3.36 14.76-6.62 29.54a12 12 0 0 0 .69 7c3.5 9.2 6.82 18.48 10.23 27.72 3.5 9.49 7 19 10.53 28.46q6.31 17.24 12.55 34.51c.16 1.83.46 3.66.47 5.49q.06 20.6 0 41.18a46.49 46.49 0 0 1 -.45 4.78z" fill="#fbcba9"/><path d="m730.22 1789.17c-2.62-1.79-1.34-4.66-1.94-7a123.79 123.79 0 0 1 23.59-57.17 137.14 137.14 0 0 1 45.13-38.92 74.54 74.54 0 0 1 16.23-6.73c1.06-.29 2.25-.47 2.85.57a3.08 3.08 0 0 1 -.16 2.27 280.9 280.9 0 0 1 -12 27.09c-8.53 16.41-18.42 31.92-30.7 45.82s-25.96 26.12-43 34.07z" fill="#6d6eb3"/><path d="m965.14 1658.79a272.27 272.27 0 0 1 -42.37-5.54c-4.39-.91-8.91-1.39-13.19-2.67a17.38 17.38 0 0 0 -9.25.09c-.54-2.09-2.09-2.83-4-3.33-9.78-2.52-19.57-5-29.3-7.75-11.54-3.19-23-6.57-34.53-9.87-4.35-1.25-8.71-2.46-13-3.84-2-.64-4.25-.79-5.79-2.51 2.37.22 4.78.28 7.11.7 8.62 1.57 17.21 3.22 25.91 4.29 8.42 1 16.76 2.71 25.15 4 9.18 1.37 18.39 2.58 27.59 3.86 6.57.92 13.12 1.92 19.7 2.74 6.32.79 12.7 1.18 19 2.13a191.16 191.16 0 0 0 27 1.78 53.63 53.63 0 0 1 -.03 15.92z" fill="#fbcba9"/><path d="m854.19 1454.53a3.41 3.41 0 0 1 2.92 1.4c-1.38.38-2.48.16-2.92-1.4z" fill="#fbcba9"/><path d="m852 1453.34a1.9 1.9 0 0 1 1.94 1.06 1.73 1.73 0 0 1 -1.94-1.06z" fill="#fbcba9"/><path d="m966 1800.85c-.75-5.24-1.41-10.5-2.25-15.73a293 293 0 0 1 -4-41.92 83.38 83.38 0 0 1 2.62-22c1-4.11 1.93-8.27 2.88-12.4 1.13-1.23 2.09-2.52 1.84-4.33 2.4-10.68 6-21 9.44-31.37 4.14-12.67 8.61-25.22 12.89-37.84.94-2.77 1.69-5.6 2.53-8.4a21.09 21.09 0 0 0 1.55-2.72c8-20.91 15.83-41.92 24.09-62.74 10.91-27.55 22.49-54.8 36.17-81.12a203.34 203.34 0 0 1 12.8-21.23 35.85 35.85 0 0 1 9.56-9.54 210.06 210.06 0 0 1 23.35-13.94c13.1-6.63 26.18-13.29 39.68-19.08l30.85-13.29c5.14-2.21 10.28-4.44 15.45-6.6a11.71 11.71 0 0 0 5.9-5.07c3.39-5.74 7.14-11.26 10.66-16.92 1.69-2.71 4.33-4.78 5.36-7.93 6.65-6.54 13.15-13.24 20-19.59 5.84-5.43 11.84-10.75 19.27-14.06.3 2.57.59 5.14.89 7.7-1 3.93-.57 7.94-.55 11.91 0 12.76.22 25.51.35 38.27-.19 12.51-.54 25-.55 37.55 0 29.57.14 59.15.15 88.73 0 5.32-.44 10.64-.67 16-1.87-6.66-3.57-13.38-5.67-20a65.26 65.26 0 0 0 -9.32-18.47c-4.85-6.7-11-11.47-19.18-13.49-1.68-.42-3.82-.06-5.07-2.31 0-11.18 0-22.64 0-34.1 0-4.79 0-9.59.13-14.39 0-1.84 0-3.71 1.06-5.42.93-1.54-1.31-4.73-3.24-4.45-1.75.26-3.85.15-4.77 2.28-6-.6-11.58 1.29-17.29 2.42-2.34.47-4.57 1.35-7.08-.15a22.86 22.86 0 0 1 .87-3c2.23-5.13 4.53-10.22 6.8-15.33.33-.74.63-1.6-.12-2.17s-1.45-.12-2 .53a15.32 15.32 0 0 0 -.9 1.32c-3.7 5.84-7.42 11.68-11.08 17.54a26 26 0 0 0 -1.77 3.59c-.77 1.82.19 3.38 2.16 3.09 4.45-.65 8.84-1.66 13.29-2.37 5.75-.92 11.36-2.91 17.31-2.4a21.39 21.39 0 0 1 -.09 8.17c-2.49 1.17-4.09 3.38-6 5.25q-15.6 15.51-31.1 31.1c-2.64 2.64-5.2 5.37-7.94 7.9a8.64 8.64 0 0 0 -3 7.84c.24 1.84.46 3.68.8 5.5.77 4.17 1.65 8.33 2.44 12.49q3.35 17.58 6.65 35.16a3.44 3.44 0 0 0 1.94 2.37c-.67 6.07-1.37 12.14-2 18.22-1.77 16.94-2.23 34-2.76 51a67.32 67.32 0 0 0 .17 8.76 14.67 14.67 0 0 0 8.67 12.49c2.16 1 4.39 1.88 6.58 2.81 1.16 2.11 2.21 4.2 4.93 4.87 2 .5 2.73 2.28 3.06 4.27 1.24 7.34 2.46 14.68 3.86 22 3.5 18.27 7.12 36.52 10.66 54.79 2.88 14.87 5.67 29.76 8.55 44.64q5.31 27.39 10.71 54.77 3.75 19.17 7.5 38.33 2.68 13.71 5.32 27.41c2 10.17 4.19 20.3 5.9 30.52 2.15 12.85 5.31 25.5 7.3 38.39.87 5.65 1.24 11.65 4.27 16.84.09 2.4.26 4.81.26 7.21v52.13q0 31.28.09 62.56c-2.39.18-4.77.52-7.16.52q-80.25 0-160.5 0c-2.13 0-4.26-.23-6.39-.36.79-11.44 1.49-22.89 2.39-34.33.71-9 1.76-18 2.46-27.08.27-3.58.88-7.24-.08-11.39-2.61 1.36-4.67 2.49-6.77 3.53a3.11 3.11 0 0 1 -4.26-.91c-1.27-1.71-2.5-3.46-3.65-5.26-26.57-41.43-50-84.54-68.69-130.1-.7-1.7-1.11-3.61-2.65-4.86-.76-2.53-1.36-5.12-2.31-7.57-9-23.24-16.75-46.89-22.13-71.27a26 26 0 0 0 -1.42-3.77zm126.89-37.75c.26.77.5.9.63.35 0-.06-.42-.23-.64-.35a7.93 7.93 0 0 0 -1.37-5.26c-3-4-5.78-8.23-9-12.11a71.91 71.91 0 0 0 -7.36-7.24 2.26 2.26 0 0 0 -2.14-.21c-1 .6-.94 1.79-.6 2.83a3.89 3.89 0 0 0 .81 1.35c4.36 5 8.66 10 13.14 14.85 2.03 2.12 3.81 4.52 6.56 5.79zm-9.63 3.19a5.49 5.49 0 0 0 1 1.06c.55.37 1 .13 1-.51 0-.11-.36-.33-.58-.37a14.22 14.22 0 0 0 -1.45-.14c.06-2.47-1.56-3.65-3.38-5-14.43-10.45-30.84-16.57-47.6-21.91-1.61-.51-3.45-1-5.31.4 14.3 6.83 28.42 13.56 42.53 20.32 3.12 1.5 6.16 3.15 9.3 4.61a40.81 40.81 0 0 0 4.52 1.54zm35.26 260h-.06c3.19.29 4.91-2 6.5-4.06a196.78 196.78 0 0 0 16.26-23.76c12.9-23 21.14-47.71 25.73-73.69a18.37 18.37 0 0 0 -.74-10.08c-3.48-9.24-7-18.47-10.42-27.73-4.16-11.26-8.16-22.59-12.37-33.83-7.13-19-14.37-37.92-21.57-56.88a45.73 45.73 0 0 1 -3.37-19.54c.35-5.33.06-10.7.15-16a23.49 23.49 0 0 1 .57-6.35c1-3.16.91-6.33.93-9.53 0-6.42 0-12.84.09-19.26 0-1.87-.24-3.87.33-5.58 1.5-4.45 1.14-9 1.19-13.51.06-7 0-13.91.09-20.86 0-1.87-.25-3.87.3-5.58 1.54-4.72 1-9.53 1.23-14.32.58-14.38-1.3-28.86 1.52-43.17a17.16 17.16 0 0 0 0-3.21c0-11.5 0-23 0-34.51 0-1.49.49-3.12-.69-4.47-.25.46-.71.9-.72 1.35-.16 8.26-2.51 16.36-1.85 24.69a9.62 9.62 0 0 1 -.64 3.92 21.57 21.57 0 0 0 -.83 7.93c.3 9.37-2.54 18.53-1.75 27.92-1.82 5.16-1.41 10.54-1.54 15.87a9.84 9.84 0 0 1 -.31 3.18c-1.59 4.13-1.14 8.43-1.25 12.69-.08 2.93 0 5.85-.91 8.73a15.43 15.43 0 0 0 -.62 5.54c.5 8.32-2.49 16.37-1.82 24.7a5.52 5.52 0 0 1 -.48 2.34c-1.13 2.82-.9 5.78-1 8.71a33.59 33.59 0 0 1 -.25 5.6c-1.74 8.91-1.33 18.08-3.16 26.91-1.25 6-.84 12.21-2.47 18.18-1.3 4.72-.56 9.44 1 14.16 9 27.11 17.79 54.28 26.7 81.42 5.58 17 11.11 34 17 50.92 1.63 4.69 1.52 8.77-1 13-5.53 9.13-10.52 18.62-16.57 27.39a227.12 227.12 0 0 1 -33.45 38.7 32.28 32.28 0 0 0 -4.42 4.64c-1.39 1.91-.08 2.83 1.76 3.25l15 20.9c.19 1.67.73 3.42 2.74 2.07 3.08-2.08 5.87-4.5 5.2-8.78zm-31.63-10.2c.06-.69-.24-.83-.86-.37-.06 0 .1.38.15.59z" fill="#fdfdfe"/><path d="m1601.66 999c-3.83 1.08-7.65 2.23-11.51 3.21-14.48 3.7-28.65 8.23-42 15.24-17.17 9.06-29.91 22.06-36.67 40.52a14.31 14.31 0 0 1 -1.17 2.08c-4.74-.32-9.58.67-14.22-1.24a6 6 0 0 0 -5.39.6 10.46 10.46 0 0 1 -9.86.89c-1.63-.66-3.69-.28-5.55-.28-33.29 0-66.59.06-99.88-.09-4.49 0-8.38.79-11.81 3.67a43.39 43.39 0 0 1 -3.85-2.69 49.09 49.09 0 0 0 -21.59-10.87c-1.15-1.5-2.65-1.47-4.26-1-.79 0-1.59 0-2.38-.09-9-1.09-16.76 1.19-23 7.91a10.4 10.4 0 0 1 -6.28 3.12c-8.1 1.15-16.21 2.19-24.33 3.27-.58-1.61-1.6-2.86-3.39-3-2.66-.18-5.34-.22-8-.22q-60.19 0-120.38 0a42.75 42.75 0 0 1 -14.88-2.49 70.89 70.89 0 0 0 -24.3-4q-29.68 0-59.39 0c-2.93 0-5.92.29-8.59-1.33-3.14-1.9-6.59-1.93-10.1-1.9-6.95.07-13.91-.13-20.86.06-6.32.18-11-1.81-12.89-8.31a4.82 4.82 0 0 0 -1.06-2.09 6.61 6.61 0 0 0 -2.17-.89 21.55 21.55 0 0 1 -.26-2.39c0-27-.39-54 0-81.05.33-21.69 11.07-37.47 29.94-47.8a51.5 51.5 0 0 1 24.71-6c27.55-.18 55.1-.07 82.66-.07a19.28 19.28 0 0 1 2.4.11c1.76.21 3 1 3.05 3s0 4.28.13 6.41a28.43 28.43 0 0 0 26.75 27.07c2.4.15 4.81.12 7.22.12h258.4c1.88 0 3.75-.07 5.62 0 15.36.25 28.4-13.54 28.16-28.14 0-.8 0-1.61 0-2.41.18-6 .2-6.11 6.52-6.13 26.22 0 52.44-.33 78.64.09 22.8.37 39.86 10.83 50.28 31.34a52.38 52.38 0 0 1 5.46 24q.05 20.88.08 41.77z" fill="#cbe9f8"/><path d="m991.89 1039.1a6.61 6.61 0 0 1 2.17.89 4.82 4.82 0 0 1 1.06 2.09c1.91 6.5 6.57 8.49 12.89 8.31 7-.19 13.91 0 20.86-.06 3.51 0 7 0 10.1 1.9 2.67 1.62 5.66 1.33 8.59 1.33q29.7 0 59.39 0a70.89 70.89 0 0 1 24.3 4 42.75 42.75 0 0 0 14.88 2.49q60.19-.15 120.38 0c2.67 0 5.35 0 8 .22 1.79.12 2.81 1.37 3.39 3-1.57 1.14-3.45 1.31-5.28 1.73a87.89 87.89 0 0 0 -22.47 8.3 64.82 64.82 0 0 0 -17.25 12.94c-3.72 4-6.54 8.55-6.44 14.24 0 2.77-.92 4.29-3.39 5.59-9.89 5.23-15.16 13.92-17.77 24.52a72.11 72.11 0 0 0 -1.86 15.9 232.06 232.06 0 0 0 4.28 47c.68 3.63 2 7.24 1.23 11-3.23 0-4.94 1.77-5.16 4.89a78.72 78.72 0 0 0 .48 18.35 187.63 187.63 0 0 0 9.28 35.49c2.65 7 5.37 13.93 9.72 20.09 2 2.82 3.9 5.78 7.54 6.81a12.73 12.73 0 0 1 1.59 2.75 121.91 121.91 0 0 0 14.12 31.3 9.47 9.47 0 0 1 .7 2.3l-.6 6.56c-7.43 3.3-13.43 8.62-19.27 14-6.83 6.35-13.33 13.05-20 19.59-.78-.2-2-.15-2.26-.65-2.71-4.31-6.83-4.35-11.27-4.32-18.45.12-36.9 0-55.35.11a19.71 19.71 0 0 1 -10.69-2.71c-7.29-4.4-14.29-9.27-21.4-13.92-4.27-2.79-8.24-4.41-13.28-4.35-14.17.16-28.34.06-42.52 0-2.65 0-5.32.22-7.86-1-7.17-3.53-14.33-7.08-21.61-10.38-5.78-2.63-11.67-5.18-18.31-3.76a3.45 3.45 0 0 1 -3-.38c-2.53-2-5-4.11-4.79-7.85a26.47 26.47 0 0 0 -.23-4.79c-.22-1.56-1.53-2-2.89-2.32-.08-2.93-.23-5.86-.23-8.79q-.09-126.86-.13-253.71c0-2.8.23-5.8.36-8.7z" fill="#afe1f4"/><path d="m991.89 1310.37c1.36.28 2.67.76 2.89 2.32a26.47 26.47 0 0 1 .23 4.79c-.18 3.74 2.26 5.82 4.79 7.85a3.45 3.45 0 0 0 3 .38c6.64-1.42 12.53 1.13 18.31 3.76 7.28 3.3 14.44 6.85 21.61 10.38 2.54 1.25 5.21 1 7.86 1 14.18 0 28.35.12 42.52 0 5-.06 9 1.56 13.28 4.35 7.11 4.65 14.11 9.52 21.4 13.92a19.71 19.71 0 0 0 10.69 2.71c18.45-.13 36.9 0 55.35-.11 4.44 0 8.56 0 11.27 4.32.31.5 1.48.45 2.26.65-1 3.15-3.67 5.22-5.36 7.93-3.52 5.66-7.27 11.18-10.66 16.92a11.71 11.71 0 0 1 -5.9 5.07c-5.17 2.16-10.31 4.39-15.45 6.6l-30.85 13.25c-13.5 5.79-26.58 12.45-39.68 19.08a210.06 210.06 0 0 0 -23.35 13.94 35.85 35.85 0 0 0 -9.56 9.54 203.34 203.34 0 0 0 -12.8 21.23c-13.68 26.32-25.26 53.57-36.17 81.12-8.26 20.82-16.06 41.83-24.09 62.74a21.09 21.09 0 0 1 -1.55 2.72c-.1-1.86-.27-3.72-.27-5.58q-.12-151-.19-302.09c.03-2.93.28-5.86.42-8.79z" fill="#85c4e1"/><path d="m965.15 1546q-6.27-17.25-12.55-34.51c-3.48-9.5-7-19-10.53-28.46-3.41-9.24-6.73-18.52-10.23-27.72a12 12 0 0 1 -.69-7q3.29-14.77 6.62-29.54c1.3-5.69 2.76-11.35 4-17a24.5 24.5 0 0 0 .13-4.78l.42-3a2.24 2.24 0 0 0 1.06-2.07c.8-7.95 3.17-15.57 5-23.29 3.47-14.45 7.92-28.62 12.36-42.8a54.46 54.46 0 0 1 4.41-10.22c.17 2.65.49 5.31.49 8q0 107.27 0 214.54c.02 2.53.41 5.22-.49 7.85z" fill="#f4c290"/><path d="m967.1 1704.43c.25 1.81-.71 3.1-1.84 4.33a4.4 4.4 0 0 1 .1-4.46z" fill="#fbcba9"/><path d="m1556.87 2119.34c.87-1.2 2.23-1.28 3.52-1.6a84.57 84.57 0 0 0 38.89-21.39c12.83-12.34 21-27.48 24.84-44.9a87 87 0 0 0 1.68-19.11q0-77 0-153.95c0-3.2.24-6.39.36-9.59 3.74 0 7.49.08 11.23.08h367.26c3.2 0 6.41 0 9.62.06.06 2.93.18 5.86.18 8.79q0 47.22 0 94.43 0 51.21 0 102.43c0 3.19.23 6.49-.46 9.56-3.09 13.69-10.49 24.3-23.09 31-2.34 1.23-5 2-6.8 4.08-20.45 2.66-41 1.68-61.54 1.7q-177.49.09-355 0c-2.4 0-4.8 0-7.21 0a4 4 0 0 1 -3.48-1.59zm221.67-90.2c0-9.63-.08-19.26 0-28.89.05-4.9.86-5.61 5.56-5.81 1.87-.07 3.74 0 5.62 0h39.32a50.68 50.68 0 0 0 6.41-.2c7.67-1 14.33-10.19 12.93-17.62a17.29 17.29 0 0 0 -15.42-14.17 55.17 55.17 0 0 0 -5.61-.1h-39.25c-10.17 0-9.53.5-9.54-9.63 0-12 .15-24.08-.1-36.11a15.25 15.25 0 0 0 -14-15.06 16.56 16.56 0 0 0 -16.57 10.24 25.41 25.41 0 0 0 -1.46 9.43c.06 10.44 0 20.87 0 31.3 0 1.87 0 3.75-.06 5.62-.19 3.39-.85 4-4.47 4.17-1.86.09-3.74 0-5.61 0-13.11 0-26.22 0-39.32 0a25 25 0 0 0 -9.44 1.49c-7 2.75-11.32 10.22-10.06 17.34 1.37 7.8 7 12.81 14.85 13.24 1.86.1 3.74 0 5.61 0q20.07 0 40.13 0c8.52 0 8.39 0 8.38 8.4v49.75a26.62 26.62 0 0 0 1.59 10.22c3.06 7.55 13.31 12.56 21.39 8.33 5.75-3 9.11-7.25 9.11-13.88q0-14.01.01-28.06z" fill="#9e98ca"/><path d="m1984.09 2119.22c1.83-2.09 4.46-2.85 6.8-4.08 12.6-6.68 20-17.29 23.09-31 .69-3.07.46-6.37.46-9.56q0-51.21 0-102.43 0-47.2 0-94.43c0-2.93-.12-5.86-.18-8.79 2.24-5.41 1.29-11.1 1.17-16.65a80 80 0 0 0 -4.46-25.91c-3-8.12-8-14.4-16.21-17.85a20.26 20.26 0 0 1 -2.92-1.33c-1-.64-2.78-.13-3.16-2.51h7.92l25.64-.26c9.44 1.37 18.18 4.49 25.39 10.89 10.29 9.13 16.08 20.58 16.22 34.44.2 19 .09 37.92.09 56.89q0 80.92 0 161.85a74.31 74.31 0 0 1 -.54 11.17c-2.56 16.59-12 28.14-26.69 35.74a60.23 60.23 0 0 1 -24 4c-9.57-.25-19.1-.12-28.62-.18z" fill="#6d6eb3"/><path d="m863.29 1270.34c3.18 2.49 3.62 5.89 3.19 9.58-3.13-2.5-3.62-5.92-3.19-9.58z" fill="#fbcba9"/><path d="m861.32 1267.36c1-1 1.78-.85 2 .61a14.21 14.21 0 0 1 0 2.35c-1.59-.39-1.63-1.79-2-2.96z" fill="#fbcba9"/><path d="m943.37 1391.84a2.24 2.24 0 0 1 -1.06 2.07c.36-.69.69-1.38 1.06-2.07z" fill="#fbcba9"/><path d="m1624.29 1811.24a149.63 149.63 0 0 1 -16.07 10.31c-2.27 1.33-4.9 2.11-6.66 4.24a6.31 6.31 0 0 0 -1.53.34c-16.82 8.64-34.55 14.83-52.73 19.85-1.75.48-3.71.61-5 2.13-7.15-.18-13.73 2.36-20.45 4.25-8.6 1.85-17.19 3.8-25.81 5.53-23.3 4.69-46.83 7.88-70.41 10.72-3.61.43-7.34 1.42-11-.09.23-6.35.46-12.46.68-18.57 0-9.85.4-19.72-.1-29.54a207.83 207.83 0 0 0 -3-24.46c-1.16-6.76-1.83-13.7-4.76-20.06-.33-5.48-2.69-10.49-3.66-15.82-.22-1.21-.94-2.5.69-3.31 1.79 0 3.67.11 4.58-2l-.12.08a17.37 17.37 0 0 0 7.07-.73c20.27-5.43 40.58-10.7 60.87-16.08 4.88-1.3 9.87-2.4 14.52-4.31 15-6.15 30.14-12.12 44.77-19.11 17.78-8.49 35.11-17.94 52.62-27a9.31 9.31 0 0 0 1.74-1.6c.72-.25.84-.47.35-.56-.06 0-.2.39-.31.6-3.31-.43-6.34.68-9.35 1.76-12.3 4.37-24.58 8.83-36.88 13.2a18.39 18.39 0 0 1 -4.64 1c-2.19.19-3.64-1-3.56-3.32.26-6.71-2.52-13.11-1.87-19.85a14 14 0 0 0 -.43-3.16c-.89-6.3-1.89-12.59-2.65-18.91s-1.26-12.68-1.93-19c0-.48-.49-.93-.75-1.39 0-7.85 0-15.71 0-23.57 0-2.84.62-5.78-1.1-8.41l-2.37-.25c-20.61.37-41.14-1.45-61.71-2.18-1.83-1.56-4-.86-6.1-1-5.26-.46-8.28-3.47-7.89-8.75s1.38-10.4 2.24-15.57c.11-.65 1-1.16 1.55-1.73l7.76 4.06c0 1.58-.56 3.59.19 4.66 2.39 3.42 4.35 7.17 8 9.73 5.08 3.57 10.57 4.46 16.58 4.5 9.69.06 16.89-4.34 22.29-11.87 2.62-3.67 4.52-7.85 4-12.71-.24-2.11 0-4.27-.06-6.39-.45-8.66-4.43-15.06-12.31-18.9-.69-1.59-.26-3.77-2.41-4.59.26-4.36-2.37-7.44-4.87-10.46a75.45 75.45 0 0 0 -6.21-6c.45-6.13-.41-12.11-1.32-18.18-1.49-9.93-2.68-19.89-4.94-29.7a242.21 242.21 0 0 0 -19.31-54.65 102.77 102.77 0 0 0 -8.14-12.75 3.52 3.52 0 0 0 -3.5-1.37l-11-19.48c3.07-.77 5.75.44 8.46 1.62 17.6 7.67 35.4 14.87 52.83 23 15.75 7.31 31.41 14.73 46.4 23.5 9.29 5.44 17.82 11.75 23.38 21.32 6.43 11.08 13 22.11 18.45 33.69 4.12 8.67 7.93 17.49 11.94 26.21a13.82 13.82 0 0 0 1.92 2.51c.4 1.26.71 2.56 1.22 3.77q10.9 26 21.85 52c.2 3.89 2.79 6.83 4.08 10.29 8 21.43 16.23 42.8 23.66 64.45 2.32 6.78 4 13.83 7.44 20.2.18 3.52.83 6.87 3.39 9.55a17.79 17.79 0 0 0 .77 5.5c3 11.58 6.76 23 8 35-1.06 3.94-.42 8-.67 12-.21 3.47-.14 7-.63 10.39-2.11 14.67-8.5 27.29-17.94 38.68-5.47 6.61-11.54 12.58-17.41 18.79z" fill="#fdfdfe"/><path d="m1624.29 1811.24 10.7-8.1c1.56 1.82 3.68 1.78 5.8 1.77l18.93-.07 30.67-.34 46.47.19 70.41-.07h3.32l28.46.16 39.39-.23h48.57c8.49 0 17-.16 25.47-.25 8.76 1 17.72 1.46 26.28.18 13-2 26-.6 39-1.21a5.9 5.9 0 0 1 4.5 1.19l-25.65.26c-2.59 0-5.18 0-7.92 0 .38 2.38 2.16 1.87 3.16 2.51a20.26 20.26 0 0 0 2.92 1.33c8.16 3.45 13.26 9.73 16.21 17.85a80 80 0 0 1 4.46 25.91c.12 5.55 1.07 11.24-1.17 16.65-3.21 0-6.42-.06-9.62-.06h-367.26c-3.74 0-7.49-.05-11.23-.08q-.14-22.69-.28-45.4c0-3.18 0-6.37-.09-9.56a2.92 2.92 0 0 0 -1.5-2.63z" fill="#cad5e9"/><path d="m1804.06 1369.83c-2.51 1-3.53 3.31-4.23 5.57-1.43 4.64-3.91 8.77-5.92 13.12q-9 19.63-18.11 39.24c-.34.73-.68 1.45-1 2.17-7.65 15.88-15.34 31.74-23 47.63-3.1 6.5-6 13.11-9.07 19.62-.77 1.62-1.23 3.57-3.07 4.51-1.57-.11-1.3-1.35-1.43-2.32-.92-7.1-2.15-14.18-2.67-21.32-.77-10.61-4.17-20.87-3.86-31.64.25-8.83 2.19-17.39 3.52-26.05a220.65 220.65 0 0 1 4.59-22.63c4.46-17.1 3.52-14.29 15.16-21.85 12.3-8 24.74-15.76 38-22.22 6.7-3.28 13.34-6.67 20-9.92 2.52-1.21 3-.83 3.89 2 5.74 18.3 10.84 36.78 14.95 55.51 2.73 12.46 5.63 24.93 7.23 37.55 1.34 10.51 2.65 21.15 2 31.87-.33 5.32-.21 10.69 0 16a8.59 8.59 0 0 1 -4.26 8 120.33 120.33 0 0 1 -35.48 16.33c-11.81 3.22-23.74 6.15-35.86 7.58-7.31.86-14.63 3.11-22.3 1.83-1-2.22-.05-4.17.74-6 6.7-15.69 13.51-31.34 20.17-47.05 5-11.78 9.75-23.66 14.71-35.45 6.3-15 12.69-30 19-44.92 1.78-4.17 3.69-8.28 5.36-12.5a22.94 22.94 0 0 0 .85-4.67c1.84-1.17 1.56-3 1.61-4.82a5.28 5.28 0 0 0 1.06-.93c.37-.53.15-1-.47-1-.11 0-.33.35-.38.57a13.61 13.61 0 0 0 -.17 1.43c-1.79 1.12-1.53 2.99-1.56 4.76z" fill="#85c4e1"/><path d="m1671.63 1723.33c-1.21-12-5-23.41-8-35a17.79 17.79 0 0 1 -.77-5.5 3.69 3.69 0 0 0 3.2-2c1-1.9 2-3.76 3-5.67q13-26.12 26-52.24c2.35-4.77 4.52-9.64 6.5-14.57 1.72-4.29 4.43-6.1 9.2-5.86 7.44.37 14.92.12 22.39.13h41.6c4.51 0 9-.32 13.46 1.18 1.7.57 3.7.31 5.56.32 6.13 0 12.26 0 18.4.07 2.12 0 4.23-.06 6.28.85s2.85 2 2.22 4.27q-.66 2.31-1.49 4.55c-1.3 3.49-2.65 7-4 10.44-3-1.13-5.88-2.34-8.86-3.36a59.89 59.89 0 0 0 -6.81-1.92 1.49 1.49 0 0 0 -1.91 1.78 31.48 31.48 0 0 0 1.95 6c2.54 5.77 5.21 11.48 7.83 17.22-.25 1-.43 2.07-.76 3.07-5.65 16.82-13.31 32.83-19.94 49.25-.47 1.15-1.61 2-2.44 3-1.68-2-3.41-4.08-5-6.16-4.13-5.22-8-10.66-13.11-15a2.73 2.73 0 0 0 -2.09-.73 2.3 2.3 0 0 0 -1.32 1.7c-.51 7.17-2.23 14.22-1.9 21.47.22 4.8.12 9.6.17 14.4-20.79.83-41.62-1.28-62.39 1.45a77.21 77.21 0 0 0 -19.29 4.78 26.14 26.14 0 0 1 -7.68 2.08z" fill="#85c4e1"/><path d="m1671.63 1723.33a26.14 26.14 0 0 0 7.67-2.12 77.21 77.21 0 0 1 19.29-4.78c20.77-2.73 41.6-.62 62.38-1.45a10.66 10.66 0 0 0 5.36 1.36c9.34-.11 18.68-.17 28-.25 3.16.27 6.41.17 9.48.85 18.17 4 34.55 11.52 47.6 25.25 2.18 2.29 4.62 4.34 6.93 6.49a4.07 4.07 0 0 0 2.58 3.79 103.47 103.47 0 0 1 14.14 30.29c.13.47.61.85.94 1.27.12 6.92 1.54 13.7 2.42 20.53l-39.39.23.06-1.63c.77-8.61-3.48-15.57-7.42-22.64-1-6.1-5.44-9.42-10.06-12.62l.08.08-1.45-1.68c-9.07-7.71-19.41-11.91-31.47-11.53-5.06.16-10.12.07-15.19.09-2.06-1.75-4.55-1.23-6.91-1.23q-26 0-52 0c-2.67 0-5.35-.08-7.92.87-9 .54-17.41 3-24.69 8.65-7.67 3.4-12.28 9.83-16.34 16.73-4.53 7.7-7.34 15.85-6 25l-18.93.07c-2.12 0-4.24 0-5.8-1.77 5.86-6.21 11.93-12.18 17.4-18.79 9.44-11.39 15.83-24 17.94-38.68.49-3.42.42-6.92.63-10.39.25-4.02-.39-8.05.67-11.99z" fill="#9e98ca"/><path d="m1733.37 1510.84c.16 3.67 0 6.77-1.5 9.81q-10.18 20.89-20.14 41.9c-2.47 5.19-3.83 4.76-7.18.58-9.48-11.85-18.73-23.89-28.18-35.76-7.3-9.17-14.77-18.2-22.16-27.3-4.87-6-9.81-11.94-14.54-18-2-2.57-2.66-4.27.12-7.06.93-.93 1.42-2.27 2.29-3.27 12.58-14.58 26.12-28.25 40-41.55 8.47-8.1 17.54-15.56 26.39-23.25 2.61-2.27 5.4-4.34 8.1-6.51 2-1.59 3.44-1.32 4.38.89a8.42 8.42 0 0 1 1 3c-.1 5.38 1.3 10.61 2.12 15.8 1.07 6.84.48 13.87 2.54 20.57.53 1.74.3 3.72.34 5.58.09 4-.11 8 1.21 11.91.65 1.95.34 4.23.4 6.37.07 2.93-.15 5.88 1 8.7a5.36 5.36 0 0 1 .47 2.34c-.73 7.54 2 14.79 1.78 22.29-.11 4.51 2.52 8.75 1.56 12.96z" fill="#85c4e1"/><path d="m1659.5 1673.29c-3.48-6.37-5.12-13.42-7.44-20.2-7.43-21.65-15.62-43-23.66-64.45-1.29-3.46-3.88-6.4-4.08-10.29 2.41-2.13 1.38-5 1.39-7.51.09-18.63 0-37.26.07-55.88 0-2.92.2-5.84.32-8.76 6.52 2.55 11.94 7 17.5 11a109.88 109.88 0 0 0 17 10.47 12.81 12.81 0 0 1 5.89 5.11c5.5 9.12 11.3 18.07 17 27.06 4.88 7.63 9.76 15.27 14.76 22.82a6.87 6.87 0 0 1 .79 6.8c-1 2.48-1.81 5-3 7.43-7.13 14.93-14.4 29.79-21.48 44.74-4.79 10.12-9.34 20.35-14 30.51a5.08 5.08 0 0 1 -1.06 1.15z" fill="#85c4e1"/><path d="m1839.34 1532.76c-.69 5.27-1.07 10.6-2.12 15.79-1.75 8.6-3.91 17.11-6 25.64a24.11 24.11 0 0 1 -1.68 4.47 4.78 4.78 0 0 1 -4.44 2.91c-2.41.08-4.81.06-7.22.11-4.79.1-9.6-.33-14.28 1.3-1.46.51-3.18.27-4.78.31-4.26.1-8.53-.21-12.68 1.28-1.45.52-3.18.29-4.78.33-3.73.09-7.48-.19-11.07 1.27a9 9 0 0 1 -3.18.31c-8.27.1-16.35 1.77-24.5 2.94-6.57.94-13.21 1.55-19.84 1.83-3.28.14-6.19 1.59-9.43 1.66-3 .06-4-1.12-2.81-3.84 2.45-5.63 5.3-11 7.67-16.73 4.93-11.82 10.44-23.39 15.74-35 .88-2 1.9-3.83 2.9-5.72a5 5 0 0 1 4.55-2.76c2.4-.06 4.81 0 7.22-.09 5.31-.13 10.64.33 15.9-1.27 2.21-.68 4.77-.29 7.17-.3 6.69-.05 13.37 0 20-.07a37.53 37.53 0 0 0 10.31-1c2.5-.7 5.29-.44 8-.48 5.08-.06 10.16 0 15.24 0a29.53 29.53 0 0 1 9.46 1.28c4.42 1.28 4.68 1.43 4.65 5.83z" fill="#85c4e1"/><path d="m1626.1 1506.2c-.12 2.92-.32 5.84-.32 8.76 0 18.62 0 37.25-.07 55.88 0 2.53 1 5.38-1.39 7.51q-10.93-26-21.85-52c-.51-1.21-.82-2.51-1.22-3.77.13-2.4.37-4.79.38-7.18q.07-102.57.09-205.13c0-2.65-.29-5.31-.45-8q.29-8.84.56-17.67c3.25 0 6.24 1.25 9.09 2.52 5.61 2.49 11.53 3.63 17.46 4.78-1.36.42-2.43 1.15-2.51 2.7-.1 1.87-.11 3.74-.11 5.61q0 99.4 0 198.81c.01 2.38.24 4.78.34 7.18z" fill="#0f67aa"/><path d="m1807.42 1644c-2.62-5.74-5.29-11.45-7.83-17.22a31.48 31.48 0 0 1 -1.95-6 1.49 1.49 0 0 1 1.91-1.78 59.89 59.89 0 0 1 6.81 1.92c3 1 5.91 2.23 8.86 3.36 9.9 5.24 19.48 11 28.15 18.15a110.65 110.65 0 0 1 29.68 37.19 87.45 87.45 0 0 1 8.82 31.35c-.44 1-.82 2.33 0 3 2.42 1.76.75 3.85.79 5.79h-2.89c-.33-1.79-1.77-2.5-3.15-3.33-3.87-2.34-7.81-4.6-11.53-7.17-22.73-15.78-40.34-36.21-54.26-60-1.04-1.77-2.26-3.5-3.41-5.26z" fill="#f4ab63"/><path d="m1887.47 1715c3.29.33 5.4-2 7.78-3.58a100 100 0 0 1 32.74-14.54c22.44-5.35 42.15.25 60 14.08 1.62 1.25 1.34 2.69-.68 3.59a159.14 159.14 0 0 1 -32.85 10c-20.6 4.17-41.42 3.6-62.25 3.14-4.26-.1-8.33-2.05-12.68-1.41l3.15-6.46c2.06.09 3.44-1.2 4.85-2.41 0-.81 0-1.63 0-2.45z" fill="#fbcba9"/><path d="m1916.28 1638c-2.68-.55-4.89-2-7.18-3.43-16.57-10-29.43-23.72-40.4-39.41-8.91-12.74-15.84-26.57-21.91-40.85a6.79 6.79 0 0 1 -.65-2.29 1.9 1.9 0 0 1 1.77-2.19 8.58 8.58 0 0 1 4.64 1c11.82 5.17 22.72 11.68 32.16 20.67 10.17 9.69 18.78 20.4 24.69 33.22a119.44 119.44 0 0 1 8.52 27.42c.08 2.07.46 4.3-1.64 5.86z" fill="#fbcba9"/><path d="m1926 1630.14c11.33-8.78 23.6-15.77 37.79-18.58 20.16-4 36.92 2 49.94 18 2.33 2.87 2 4-1.33 5.16a105.46 105.46 0 0 1 -29.76 6c-16.85 1.06-33.67.51-50.28-2.94-2.62-.55-5.19-1.28-7.78-1.92-.67-2.14.42-3.93 1.42-5.72z" fill="#f4ab63"/><path d="m1931.22 1581.62c0-1.59.26-3.27-.74-4.67-8.13-11.43-9.73-24.72-10.46-38.13-1-18.27 1.82-36.25 5-54.17a8 8 0 0 1 .82-2.25 1.18 1.18 0 0 1 1.94-.31c2.09 1.8 3.11 4.33 4.2 6.75a99.67 99.67 0 0 1 8.31 34.1 143.82 143.82 0 0 1 -3.5 43.8c-1.19 4.92-1.92 10-2.86 14.93z" fill="#f4ab63"/><path d="m1878.44 1804.56c-.88-6.83-2.3-13.61-2.42-20.53a168.8 168.8 0 0 1 61.59 11.29c4.7 1.81 9.18 4.19 13.75 6.32 1.16.54 1.28 1.54 1.12 2.64-8.49.09-17 .22-25.47.25-16.19.04-32.38.02-48.57.03z" fill="#f4ab63"/><path d="m1931.22 1581.62 2.72.05c.08 8.09-2.49 15.72-4.09 23.51-1.46 7-3.5 13.93-5.25 20.9-.4 1.62-.43 3.19 1.43 4.06-1.08 1.79-2.12 3.58-1.43 5.79-1.65.21-3 .69-3.63 2.53-1.18 3.53-2.59 7-3.78 10.5-7.43 22-17.42 42.82-28.87 63a12.75 12.75 0 0 0 -.85 3v-.07c-1.71.85-1 1.65 0 2.45-1.41 1.21-2.79 2.5-4.85 2.41 0-1.94 1.63-4-.79-5.79-.86-.62-.48-1.94 0-3 .75 0 1.73.39 2.18 0a7.77 7.77 0 0 0 1.88-2.51c11.74-21.41 22.22-43.38 29.67-66.69a27.6 27.6 0 0 0 .68-3.88c2.1-1.53 1.7-3.76 1.64-5.89l1.67-.59c.09.51.15 1 .29 1.52.07.23.34.61.44.58.64-.17.84-.65.45-1.19a6.07 6.07 0 0 0 -1.15-1 41.62 41.62 0 0 1 .9-5.49 379.57 379.57 0 0 0 9.07-39 48.93 48.93 0 0 1 1.67-5.2z" fill="#f4c290"/><path d="m1882.68 1719.77-3.15 6.46a288.45 288.45 0 0 1 -18.58 26.25 4.09 4.09 0 0 1 -2.59-3.8 200.51 200.51 0 0 0 13.48-17.91c2.59-3.71 5.3-7.33 8-11z" fill="#f4c290"/><path d="m1601.83 1284.59q-.28 8.84-.56 17.67c-4.2.53-8.22 2.26-12.59 1.85a7.73 7.73 0 0 0 -3.07.77c-6.52 2.3-13 4.7-19.61 6.75-6.4 2-12.75 3.61-19.47 3.6q-28 0-56.11 0a34.43 34.43 0 0 0 -8 .51c-5.67 1.38-11.46 2-17.11 3.75a44.08 44.08 0 0 1 -13.32 2.26 26.75 26.75 0 0 0 -11.55 2.81 22.79 22.79 0 0 1 -10.1 1.91c-14.69 0-29.39.06-44.08-.07a49.27 49.27 0 0 0 -14.22 1.59l-.54-3c.63-1.72 1-3.62 1.93-5.15a128.67 128.67 0 0 0 13.35-29.58 10.15 10.15 0 0 0 7.06-4.73c1.79-2.63 3.57-5.29 5.12-8.06 9.2-16.46 13.78-34.39 16.27-52.9.66-5 .29-10.07.2-15.11-.06-3.07-1.81-4.87-5-5.17-1.93-1.74-1.41-3.86-.9-6a225.93 225.93 0 0 0 5.33-35.56c1.14-15 1-29.88-5.73-43.88l-.72-5.36a61.06 61.06 0 0 0 -.91-19c-2-9.27-7.21-15.7-16-19.32a65.29 65.29 0 0 0 -13-3.47c-5.94-1.1-11-3.58-14.92-8.23 3.43-2.88 7.32-3.69 11.81-3.67 33.29.15 66.59.08 99.88.09 1.86 0 3.92-.38 5.55.28a10.46 10.46 0 0 0 9.86-.89 6 6 0 0 1 5.39-.6c4.64 1.91 9.48.92 14.22 1.24q-2.07 10.57-4.13 21.16a25.53 25.53 0 0 0 -.57 4c-.52 12.8-2.08 25.56-1.5 38.4.51 11.47.53 23 1.55 34.4 2.19 24.52 8.65 47.8 22.49 68.49 2.68 4 2.35 7.27.57 11.08-4.07 8.7-10.42 15.49-18 21.17-3.83 2.88-8 5.25-12.11 7.81-2.48 1.57-5.08 3-7.51 4.6-2.23 1.51-2.2 3.31-.2 5.29a28.06 28.06 0 0 0 7.2 5c2.39 1.2 4.82 2.3 7.23 3.45 1.32 1.77 3.18 1.63 5.06 1.42a2.73 2.73 0 0 1 1.36.14c.89.49 1.77 1.36 2.67 1.39 4.66.14 9.34.14 14 0 .91 0 1.8-.86 2.7-1.32l2.9-.26c1.87.25 3.72.41 5.12-1.25l2.85-.38a3.35 3.35 0 0 0 3.58-1.23l11-3.49a3.37 3.37 0 0 0 3.4-1.43l4.51-1.83 1.93-1.17c.68-.4 1.38-.76 2-1.2 4.34-2.93 8.47-3.06 13.14-.19s9.82 4.94 14.78 7.33c2.07.99 4.11 1.61 5.52 3.29z" fill="#afe1f4"/><path d="m1757.48 1142a16.3 16.3 0 0 1 -32.6-.17 16.3 16.3 0 1 1 32.6.17z" fill="#fdfdfe"/><path d="m1660.66 1158c-9 0-16.44-7.28-16.35-16.12a16.4 16.4 0 1 1 16.35 16.12z" fill="#fdfdfe"/><path d="m1834.78 1141.7a16.22 16.22 0 1 1 -32.43 0 16.18 16.18 0 0 1 16.22-16.37c9.43-.03 16.76 8.13 16.21 16.37z" fill="#fdfdfe"/><path d="m1531.21 1286.49c-.9.46-1.79 1.3-2.7 1.32-4.67.13-9.35.13-14 0-.9 0-1.78-.9-2.67-1.39z" fill="#85c4e1"/><path d="m1510.47 1286.27c-1.88.21-3.74.35-5.06-1.42 1.87-.19 3.67-.11 5.06 1.42z" fill="#85c4e1"/><path d="m1539.23 1285c-1.4 1.66-3.25 1.5-5.12 1.25 1.44-1.53 3.24-1.55 5.12-1.25z" fill="#85c4e1"/><path d="m1545.66 1283.37a3.35 3.35 0 0 1 -3.58 1.23 3.53 3.53 0 0 1 3.58-1.23z" fill="#85c4e1"/><path d="m1560.1 1278.45a3.37 3.37 0 0 1 -3.4 1.43 3.41 3.41 0 0 1 3.4-1.43z" fill="#85c4e1"/><path d="m1566.54 1275.45-1.93 1.17a2 2 0 0 1 1.93-1.17z" fill="#85c4e1"/><path d="m1247.19 2093.65q0-31.28-.09-62.56c0-17.38 0-34.75 0-52.13 0-2.4-.17-4.81-.26-7.21a185.57 185.57 0 0 0 -.12-22.62c.08-3.73.23-7.47.23-11.2q0-154.58-.13-309.14c3.68-4.69 6.52-9.67 6.31-15.94-.89-26.69-1.85-53.37-6.88-79.7.23-5.32.67-10.64.67-16 0-29.58-.18-59.16-.15-88.73 0-12.52.36-25 .55-37.55 1.35 1.28 2.77 2.51 4 3.86a35.93 35.93 0 0 0 13.37 8.62 94.53 94.53 0 0 0 32 6.63c6.42.15 12.84.09 19.26.15a102.1 102.1 0 0 0 31.55-4.82c9.66-3 18.11-7.8 24.4-15.94.51 15.18 1.14 30.35 1.5 45.53.81 34.42-.23 68.86 1.57 103.28.58 11.18.22 22.42.36 33.63.1 8.54.31 17.07.47 25.61-1.81.89-3.77.68-5.69.71l-60.01-2.13c-2.4-.09-4.81-.19-7.21-.19-4 0-4.33.39-4.53 4.72v2.4q-.54 28.44-1.09 56.89c-.59 33.4-.27 66.8-1.52 100.18-.11 2.93.1 5.87.17 8.79-.22.83-.43 1.68-.64 2.52l-4.64 6.23c-7.23 1.49-10 6.37-10.09 13.29-2 3.85-.7 7.79-.29 11.7a11.5 11.5 0 0 0 -3 7.75c-.1 3.08-.35 6.16.46 9.19 0 3.38 1.52 6.22 3.08 9.06-2.69 3.54-2.08 7.55-1.61 11.53-.15 4.4 2.18 7.85 4.42 11.33.08 4.29 2.37 7.53 5.08 10.54 1.79 2 3.64 3.89 5.47 5.83q-.39 31.26-.78 62.51v2.4c.14 2.12.94 3 2.92 2.88 12.54-.5 25.08-1.06 37.63-1.54q23.2-.87 46.42-1.64c.32 16.36 2.16 32.67 1.4 49.06a10.74 10.74 0 0 0 .17 1.58c-.1 2.67-.27 5.34-.27 8v65c0 12.56-.21 25.13-.32 37.69-1.59.07-3.19.19-4.78.19q-61.89 0-123.77 0c-1.87-.01-3.73-.16-5.59-.24z" fill="#66c6bd"/><path d="m1381.32 2093.69c.11-12.56.29-25.13.32-37.69.06-21.66 0-43.32 0-65 0-2.67.17-5.34.27-8 .33-.41.87-.78 1-1.24.77-4.15 1.37-8.33 2.2-12.47.72-3.57.89-7.34 3.06-10.5 10.26-2.15 20.65-1.35 31-1.47h4.8a12.69 12.69 0 0 0 4-.26c4.92-1.83 10-1.26 15-1.31 6.13-.06 12.27 0 18.4 0 1.86 0 3.88.24 5.55-.37 4.17-1.53 8.42-1.17 12.66-1.21 6.67-.05 13.34 0 20 0 2.12 0 4.39.16 6.34-.49 3.4-1.15 6.82-1.06 10.27-1.08q6 0 12 0c9.47 0 9.39.36 9.38-9q0-37.2 0-74.41l4.64-1.58c.09 2.4.26 4.8.25 7.2q-.13 72.13-.32 144.27-.06 37.26 0 74.53c-2.58.93-5.27.66-7.93.66q-72.86 0-145.71 0c-2.41-.1-4.8-.41-7.18-.58z" fill="#fdfdfe"/><path d="m1542.11 2093.49q0-37.26 0-74.53.15-72.14.32-144.27c0-2.4-.16-4.8-.25-7.2a132 132 0 0 0 0-19.38c1.34-1.52 3.3-1.65 5-2.13 18.18-5 35.91-11.21 52.73-19.85a6.31 6.31 0 0 1 1.53-.34c.07 2.4.21 4.81.21 7.21q0 101.89 0 203.79c0 11.85-2.9 22.81-9.51 32.52-8.1 11.9-19 20-33.43 23-5.47 1.21-10.96 1.93-16.6 1.18z" fill="#3ba0d7"/><path d="m873.56 1776.09q9.08 16.86 18.15 33.71c1.51 2.81 3.26 5.51 4.58 8.4 1.6 3.5 4.29 4.54 7.79 4 7.61-1.16 15.23-2.26 22.8-3.66 12.8-2.37 25.55-5 38.31-7.44a63 63 0 0 1 -.11 18c-14.66 8.37-29.44 16.54-43.13 26.48-.31-2.66-.56-5.31-.93-8-.48-3.44-1-6.87-1.6-10.29a1.5 1.5 0 0 0 -2.41-1 39 39 0 0 0 -7.26 7.43 368.93 368.93 0 0 0 -50.92 81.39c-6.6 14.35-12.21 29.09-15.19 44.69a4.09 4.09 0 0 1 -3.64-1.18c-7-7-14.2-13.75-20.41-21.49s-12.66-15.16-18.9-22.81c-7.76-9.52-14.81-19.58-21.8-29.67-.31-.44-.65-.86-.93-1.31-2.3-3.86-2.06-5.14 2-7.73 7-4.44 14.11-8.63 20.64-13.77a215.85 215.85 0 0 0 32.45-30.8 272.59 272.59 0 0 0 36-55.67c1.52-3.06 2.04-6.65 4.51-9.28z" fill="#cbe9f8"/><path d="m991.89 1883.38c1.54 1.25 2 3.16 2.65 4.86 18.74 45.56 42.12 88.67 68.69 130.1 1.15 1.8 2.38 3.55 3.65 5.26a3.11 3.11 0 0 0 4.26.91c2.1-1 4.16-2.17 6.77-3.53 1 4.15.35 7.81.08 11.39-.7 9-1.75 18.05-2.46 27.08-.9 11.44-1.6 22.89-2.39 34.33-8.56 0-17.12-.14-25.67 0a53.37 53.37 0 0 1 -38.66-14.79c-10.48-9.8-16.9-22.26-17-36.84-.29-52.14-.17-104.28-.2-156.42a21.14 21.14 0 0 1 .28-2.35z" fill="#3ba0d7"/><path d="m964.67 1970.09c-1.89.76-2.72 2.44-3.62 4.1-10.29 18.83-18.7 38.39-23.25 59.47-.22 1-.34 2.11-.54 3.15s-.44 2-.62 2.91c-1.7.78-2.76-.09-3.91-.75a442.07 442.07 0 0 1 -60-41.21c-8.07-6.56-15.82-13.52-23.66-20.36a36.37 36.37 0 0 1 -3.19-3.58c3.39-.77 6.84-1.33 10.16-2.32 21.83-6.54 39.49-18.7 51.38-38.5 7.68-12.82 11.76-26.84 13.75-41.57 1.11-8.23 1.28-16.51 1.66-24.79 1.48 2.2 3.07 4.32 4.4 6.59 8.07 13.75 16 27.6 24.16 41.28 4.49 7.51 8.41 15.39 13.94 22.25.66 10 .43 20.07.13 30.11a1.76 1.76 0 0 0 -.59 2.1 5.36 5.36 0 0 1 -.2 1.12z" fill="#cbe9f8"/><path d="m965.32 1936.76c-5.53-6.86-9.45-14.74-13.94-22.25-8.18-13.68-16.09-27.53-24.16-41.28-1.33-2.27-2.92-4.39-4.4-6.58a41.6 41.6 0 0 1 -.87-11.07c13.69-9.94 28.47-18.11 43.13-26.48.18 1.84.52 3.68.53 5.52q0 48.69 0 97.37c0 1.59-.19 3.18-.29 4.77z" fill="#f4ab63"/><path d="m968.12 2055.26c-.75.82-1.7 1.52-2.77 1-8-4-16.36-7.38-23.66-12.53.32-2 1.9-2.15 3-2.31a133.61 133.61 0 0 0 15.44-3.5c1.74-.48 3.67-.23 5.52-.32l1.26 11.06c-.08.23-.29.51-.22.68a8.15 8.15 0 0 0 .72 1.24c.22 1.56.46 3.12.71 4.68z" fill="#cbe9f8"/><path d="m964.86 1969a1.76 1.76 0 0 1 .59-2.1 1.65 1.65 0 0 1 -.59 2.1z" fill="#9e98ca"/><path d="m967.38 2050.58a8.15 8.15 0 0 1 -.72-1.24c-.07-.17.14-.45.22-.68a1.57 1.57 0 0 1 .5 1.92z" fill="#3ba0d7"/><path d="m922 1855.58a41.6 41.6 0 0 0 .87 11.07c-.38 8.27-.55 16.55-1.66 24.78-2 14.73-6.07 28.75-13.75 41.57-11.89 19.8-29.55 32-51.38 38.5-3.32 1-6.77 1.55-10.16 2.32-1.53-.88-1.81-2.47-2.23-4 3-15.6 8.59-30.34 15.19-44.69a368.93 368.93 0 0 1 50.92-81.39 39 39 0 0 1 7.26-7.43 1.5 1.5 0 0 1 2.41 1c.58 3.42 1.12 6.85 1.6 10.29.32 2.67.57 5.32.93 7.98z" fill="#6d6eb3"/><path d="m720.78 1778.92c.3.38.77.74.86 1.17s-.27.83-.43 1.25c-.2-.14-.48-.24-.58-.43a14.78 14.78 0 0 1 -.58-1.37z" fill="#cbe9f8"/><path d="m929.23 1488.55.64.7-.73-.6z" fill="#f4ab63"/><path d="m1095.65 2012c-1.84-.42-3.15-1.34-1.76-3.25a32.28 32.28 0 0 1 4.42-4.64 227.12 227.12 0 0 0 33.45-38.7c6-8.77 11-18.26 16.57-27.39 2.55-4.2 2.66-8.28 1-13-5.85-16.91-11.38-33.93-17-50.92-8.91-27.14-17.72-54.31-26.7-81.42-1.57-4.72-2.31-9.44-1-14.16 1.63-6 1.22-12.14 2.47-18.18 1.83-8.83 1.42-18 3.16-26.91a33.59 33.59 0 0 0 .25-5.6c.08-2.93-.15-5.89 1-8.71a5.52 5.52 0 0 0 .48-2.34c-.67-8.33 2.32-16.38 1.82-24.7a15.43 15.43 0 0 1 .62-5.54c.93-2.88.83-5.8.91-8.73.11-4.26-.34-8.56 1.25-12.69a9.84 9.84 0 0 0 .31-3.18c.13-5.33-.28-10.71 1.54-15.87-.79-9.39 2-18.55 1.75-27.92a21.57 21.57 0 0 1 .83-7.93 9.62 9.62 0 0 0 .64-3.92c-.66-8.33 1.69-16.43 1.85-24.69 0-.45.47-.89.72-1.35 1.18 1.35.68 3 .69 4.47v34.51a17.16 17.16 0 0 1 0 3.21c-2.82 14.31-.94 28.79-1.52 43.17-.19 4.79.31 9.6-1.23 14.32-.55 1.71-.29 3.71-.3 5.58 0 7 0 13.91-.09 20.86 0 4.53.31 9.06-1.19 13.51-.57 1.71-.31 3.71-.33 5.58 0 6.42 0 12.84-.09 19.26 0 3.2 0 6.37-.93 9.53a23.49 23.49 0 0 0 -.57 6.35c-.09 5.35.2 10.72-.15 16a45.73 45.73 0 0 0 3.37 19.54c7.2 19 14.44 37.9 21.57 56.88 4.21 11.24 8.21 22.57 12.37 33.83 3.42 9.26 6.94 18.49 10.42 27.73a18.37 18.37 0 0 1 .74 10.08c-4.59 26-12.83 50.66-25.73 73.69a196.78 196.78 0 0 1 -16.26 23.76c-1.59 2.06-3.31 4.35-6.5 4.06 0-2 1.32-3.39 2.34-4.94a350.07 350.07 0 0 0 30.27-57 9 9 0 0 0 1.13-4.58 1.87 1.87 0 0 0 -.66-1.31 1.68 1.68 0 0 0 -1.45.28 15.92 15.92 0 0 0 -2.84 2.78c-8.07 11.3-17.9 21-27.65 30.81a152.32 152.32 0 0 1 -23.99 19.78z" fill="#cad5e9"/><path d="m1372 1389.41c-6.29 8.14-14.74 12.92-24.4 15.94a102.1 102.1 0 0 1 -31.55 4.82c-6.42-.06-12.84 0-19.26-.15a94.53 94.53 0 0 1 -32-6.63 35.93 35.93 0 0 1 -13.37-8.62c-1.28-1.35-2.7-2.58-4-3.86-.13-12.76-.31-25.51-.35-38.27 0-4-.5-8 .55-11.91.7.35 1.64.5 2.08 1.06 13.23 16.44 30.43 27.19 49.82 34.76 3.44 1.34 7 2.76 10.76 2.26 3.11-.42 6.13-1.68 9.14-2.7 9.4-3.18 18-8 26.3-13.34 8.46-5.47 16.93-11.14 22.52-20a4.24 4.24 0 0 1 3.3-2c1.1 3.11.68 6.33.68 9.5-.1 13.08-.22 26.11-.22 39.14z" fill="#f4c290"/><path d="m1246.25 1533.15c5 26.33 6 53 6.88 79.7.21 6.27-2.63 11.25-6.3 15.94-3.68 1.5-6.9 3.93-10.89 4.87-3.25.77-6.43 1.59-9.24 4.1-3 2.7-7.66.53-8.71-3.49a24.75 24.75 0 0 1 -.84-5.53 6 6 0 0 1 3.4-5.87 5.24 5.24 0 0 1 6 .62 6.21 6.21 0 0 1 1.19 1c1.37 1.74 3.06 1.81 5 1.14 1.25-.44 2.61-.57 3.86-1 6.87-2.49 8.93-5.6 9-13.17a462.54 462.54 0 0 0 -1.93-50.36c-1.34-13-3-26-6.52-38.58-2.45-8.69-5.09-17.41-11.44-24.33.06-.86-.41-1.24-1.19-1.34l-.14-.17a1.4 1.4 0 0 0 -1.45-1.51l-.09-.09c-.8-2.18-2.79-3.16-4.57-4.2-9.17-5.39-18.62-5.32-27 2.44a41.39 41.39 0 0 0 -7.57 9.18 84.51 84.51 0 0 0 -11.94 40.71 152.41 152.41 0 0 0 -3.3 30.42c-.43 2.62-1.05 5.23-1.27 7.87-.63 7.72-1.12 15.45-1.63 23.18-.15 2.13-.31 4.27-.27 6.4.17 8.84 3.56 12.51 12.92 14.13 2.29 1.63 4.91 1.47 7.5 1.29 1.59-.12 2.11-1.28 2.29-2.67a21.63 21.63 0 0 1 3.58-1.7 5.25 5.25 0 0 1 6.18 2.6c1.92 3.19 1.65 6.74.62 10.07s-4.15 3.77-7.22 3.79c-2-1.11-3.63-3-6.19-3.08-3.38-.13-6.74-.39-10.12-.59-2.19-.93-4.42-1.79-6.58-2.81a14.67 14.67 0 0 1 -8.67-12.49 67.32 67.32 0 0 1 -.17-8.76c.53-17 1-34 2.76-51 .64-6.08 1.34-12.15 2-18.22 1.4-5.92 2.82-11.83 4.2-17.76.29-1.26.84-2.54.15-3.85 2.14-1.56 2.11-4.16 2.91-6.32a87.11 87.11 0 0 1 6.94-15.18c4.68-7.67 10.49-14.08 19.54-16.61 2.2-.62 2.86-2.08 2.84-4.15q-.17-19.52-.32-39a7.9 7.9 0 0 0 -.07-4.69 21.39 21.39 0 0 0 .09-8.17c-.07-1-.14-2.05-.22-3.08.92-2.13 3-2 4.77-2.28 1.93-.28 4.17 2.91 3.24 4.45-1 1.71-1 3.58-1.06 5.42-.12 4.8-.12 9.6-.13 14.39v34.1c1.25 2.25 3.39 1.89 5.07 2.31 8.17 2 14.33 6.79 19.18 13.49a65.26 65.26 0 0 1 9.32 18.47c2.04 6.59 3.74 13.31 5.61 19.97zm-52.54 97.3c-.23-2.09.54-4.21-1.86-5.07-1.6-.57-2.48 1.14-2.41 4.81a9.22 9.22 0 0 0 .38 3.12 2.28 2.28 0 0 0 1.75 1.21 2.4 2.4 0 0 0 1.74-1.3 9.94 9.94 0 0 0 .4-2.77zm32.26 1a41.46 41.46 0 0 0 -.92-4.74 2.67 2.67 0 0 0 -1.74-1.29 1.36 1.36 0 0 0 -1.66 1.23 51.69 51.69 0 0 0 .39 7c.06.49 1.17 1.18 1.8 1.18s1.33-.68 1.79-1.23c.29-.29.18-.95.37-2.13z" fill="#2d465e"/><path d="m1174.78 1634.94c3.38.2 6.74.46 10.12.59 2.56.09 4.17 2 6.19 3.08a41.21 41.21 0 0 0 .86 11.89c2.12 9.32 3.59 18.8 5.25 28.23 1.93 11 3.72 22 5.7 33 1.74 9.68 3.76 19.31 5.48 29 1.95 11 3.6 22 5.57 33 1.74 9.68 4.17 19.25 5.56 29 2 13.7 5.2 27.15 7.12 40.86s5 27.17 7.53 40.76c1.56 8.36 3.18 16.7 4.55 25.09 1.66 10.24 4.1 20.33 5.32 30.65.36 3 .85 6.33 2.69 9.06a185.57 185.57 0 0 1 .12 22.62c-3-5.19-3.4-11.19-4.27-16.84-2-12.89-5.15-25.54-7.3-38.39-1.71-10.22-3.92-20.35-5.9-30.52q-2.65-13.71-5.32-27.41-3.73-19.15-7.5-38.33-5.35-27.39-10.71-54.77c-2.88-14.88-5.67-29.77-8.55-44.64-3.54-18.27-7.16-36.52-10.66-54.79-1.4-7.3-2.62-14.64-3.86-22-.33-2-1-3.77-3.06-4.27-2.71-.67-3.77-2.76-4.93-4.87z" fill="#cad5e9"/><path d="m1371.44 1340.82a4.2 4.2 0 0 0 -3.3 2c-5.59 8.82-14.06 14.49-22.52 20-8.26 5.34-16.9 10.16-26.3 13.34-3 1-6 2.28-9.14 2.7-3.71.5-7.32-.92-10.76-2.26-19.39-7.57-36.59-18.32-49.82-34.76-.44-.56-1.38-.71-2.08-1.06-.3-2.56-.59-5.13-.89-7.7.2-2.18.4-4.37.59-6.55 4 3.89 8 7.81 12 11.68a78.84 78.84 0 0 0 7.22 6.28c8.67 6.53 18.49 10.53 28.81 13.33 4.82 1.3 10 2.63 14.88 2.09 7.86-.86 15.76-2.47 23.1-5.81 13.78-6.27 26-14.49 35-27a5 5 0 0 1 3.33-2l.54 3v4.92z" fill="#f4ab63"/><path d="m1095.65 2012a152.32 152.32 0 0 0 24-19.68c9.75-9.8 19.58-19.51 27.65-30.81a15.92 15.92 0 0 1 2.84-2.78 1.68 1.68 0 0 1 1.45-.28 1.87 1.87 0 0 1 .66 1.31 9 9 0 0 1 -1.13 4.58 350.07 350.07 0 0 1 -30.27 57c-1 1.55-2.35 2.92-2.34 4.94h.06c-3.35 1.34-4.62 5.14-7.85 6.62z" fill="#fbcba9"/><g fill="#cad5e9"><path d="m1200.32 1434.08a7.9 7.9 0 0 1 .07 4.69c-5.63 4.16-10.09 9.54-15 14.39-7.45 7.3-14.75 14.76-22.15 22.12-1.84 1.83-2.39 3.55-1.81 6.37 2.6 12.76 4.77 25.61 7.09 38.43.69 1.31.14 2.59-.15 3.85-1.38 5.93-2.8 11.84-4.2 17.76a3.44 3.44 0 0 1 -1.94-2.37q-3.33-17.58-6.65-35.16c-.79-4.16-1.67-8.32-2.44-12.49-.34-1.82-.56-3.66-.8-5.5a8.64 8.64 0 0 1 3-7.84c2.74-2.53 5.3-5.26 7.94-7.9q15.54-15.56 31.1-31.1c1.85-1.87 3.45-4.08 5.94-5.25z"/><path d="m1083.29 1766.29a40.81 40.81 0 0 1 -4.49-1.51c-3.14-1.46-6.18-3.11-9.3-4.61-14.11-6.76-28.23-13.49-42.53-20.32 1.86-1.42 3.7-.91 5.31-.4 16.76 5.34 33.17 11.46 47.6 21.91 1.82 1.32 3.44 2.5 3.38 5z"/><path d="m1200.19 1422.83c.08 1 .15 2.05.22 3.08-6-.51-11.56 1.48-17.31 2.4-4.45.71-8.84 1.72-13.29 2.37-2 .29-2.93-1.27-2.16-3.09a26 26 0 0 1 1.77-3.59c3.66-5.86 7.38-11.7 11.08-17.54a15.32 15.32 0 0 1 .9-1.32c.52-.65 1.26-1.06 2-.53s.45 1.43.12 2.17c-2.27 5.11-4.57 10.2-6.8 15.33a22.86 22.86 0 0 0 -.87 3c2.51 1.5 4.74.62 7.08.15 5.68-1.14 11.3-3.03 17.26-2.43z"/><path d="m1092.92 1763.1c-2.75-1.27-4.53-3.67-6.48-5.79-4.48-4.86-8.78-9.88-13.14-14.85a3.89 3.89 0 0 1 -.81-1.35c-.34-1-.45-2.23.6-2.83a2.26 2.26 0 0 1 2.14.21 71.91 71.91 0 0 1 7.36 7.24c3.17 3.88 5.94 8.09 9 12.11a7.93 7.93 0 0 1 1.37 5.26z"/><path d="m1110.7 2032.92c3.23-1.48 4.5-5.28 7.85-6.62.67 4.28-2.12 6.68-5.11 8.69-2.01 1.35-2.55-.4-2.74-2.07z"/><path d="m1083.26 1766.33a14.22 14.22 0 0 1 1.45.14c.22 0 .59.26.58.37 0 .64-.48.88-1 .51a5.49 5.49 0 0 1 -1-1.06z"/><path d="m1086.92 2016.1-.71.22c0-.21-.21-.55-.15-.59.62-.46.94-.32.86.37z"/><path d="m1092.91 1763.1c.22.12.65.29.64.35-.13.55-.37.42-.63-.35z"/></g><path d="m1409.23 1118.92c6.74 14 6.87 28.87 5.73 43.88a225.93 225.93 0 0 1 -5.33 35.56c-.51 2.1-1 4.22.9 6-1.32 1.6-2.7 2.93-3.21 5.28-1.85 8.6-4.18 17.1-6.32 25.65-.49 1.93-1.49 1.83-2.77.75 1.63-8.19 1-16.48 1.15-24.73 0-2.08-1-2.82-3.12-2.18-5.1 1.52-10.16 3.19-15.22 4.86-4.3 1.42-8.57 2.93-12.85 4.4-1.7.58-2.68 1.63-2.52 3.54a13.74 13.74 0 0 1 0 2.4c-.87 9.06-5.35 15.55-14 18.77s-16.21.81-22.58-5.67c-1.12-1.13-1.94-2.72-3.26-3.46-3.81-2.15-5.2-5.37-4.33-9.4.65-3-.86-4.47-3-5.8-6-3.73-12.06-3.73-18.06.07-1.13.71-2.49 1.54-2.1 3.07 1.61 6.13-1.18 10.16-6 13.44-1.07.74-1.73 2-2.71 2.92-6.34 5.7-13.74 7.18-21.57 4.22s-12.46-8.91-13.39-17.41a31.39 31.39 0 0 1 -.11-4 3 3 0 0 0 -2.16-3q-15.13-5.13-30.34-10c-1.91-.62-3.19.28-3.26 2.26-.32 9-.83 18.1.45 27.13-1.58.36-2.41-.19-2.77-1.85q-2.46-11.34-5.09-22.66c-.65-2.84-.8-5.84-2.5-8.36.77-3.81-.55-7.42-1.23-11a232.06 232.06 0 0 1 -4.28-47 72.11 72.11 0 0 1 1.86-15.9c2.61-10.6 7.88-19.29 17.77-24.52 2.47-1.3 3.44-2.82 3.39-5.59-.1-5.69 2.72-10.21 6.44-14.24a64.82 64.82 0 0 1 17.25-12.94 87.89 87.89 0 0 1 22.47-8.3c1.83-.42 3.71-.59 5.28-1.73 8.12-1.08 16.23-2.12 24.33-3.27a10.4 10.4 0 0 0 6.28-3.12c6.29-6.72 14.09-9 23-7.91.79.09 1.59.06 2.37.09a4.62 4.62 0 0 0 4.27 1 49.09 49.09 0 0 1 21.59 10.87 43.39 43.39 0 0 0 3.85 2.69c3.93 4.65 9 7.13 14.92 8.23a65.29 65.29 0 0 1 13 3.47c8.79 3.62 14 10 16 19.32a61.06 61.06 0 0 1 .91 19c-1.45 1.85-.97 3.6.87 5.17zm-51.62 90.46c.38-.29.89-.89 1.1-.8 1.82.76 2.74 2.43 3.82 4 2.58 3.71 2.61 3.69 7 2.23l25.84-8.54c3.93-1.3 4-1.29 4-5.6 0-5.62 0-11.25-.36-16.84-.9-12.64-3.55-24.87-9.55-36.17-1.75-3.29-3-7.5-6.34-9-2.58-1.15-6.22 0-9.39.22-.53 0-1.07.05-1.6.12-16.4 2.12-32.53 1.2-48.21-4.47a5.32 5.32 0 0 0 -4.61.19c-1.88 1-3.81 1.93-5.74 2.85a72.28 72.28 0 0 1 -26.91 7.32c-14.3.91-27.5-2.81-39.59-10.54-1.76-1.13-3.08-3-5.86-3.28-7.65 7.41-12.84 16.62-16.55 26.76-5.16 14.08-5.33 28.81-5.66 43.52 0 1.86.89 2.88 2.65 3.46 10.4 3.4 20.78 6.87 31.15 10.33 1.79.59 3.08.16 3.91-1.6a17.23 17.23 0 0 1 1.26-2 20.86 20.86 0 0 1 35.91 1.32c.83 1.49.85 3.77 3.36 4.21a48 48 0 0 1 4.88-2.37 44.93 44.93 0 0 1 5.43-1.37 12.24 12.24 0 0 1 6.32.57 36.75 36.75 0 0 1 5.22 2c1.55.73 3 1.73 4.64 2.74.9-2 1.47-3.45 2.24-4.84 4.68-8.37 12.73-12.3 22.19-10.9a16.83 16.83 0 0 1 9.85 4.85c.8.81.19 1.31-.38 1.82-2.09.19-3.25-1.58-4.89-2.36a17.88 17.88 0 0 0 -16.12-.07 18.16 18.16 0 0 0 -8.21 24.45 18.11 18.11 0 0 0 32.51-16c-.92-2.21-3.01-3.72-3.31-6.21zm-64 13.39a18.16 18.16 0 0 0 -18.3-18.17c-9.56.11-18 8.22-17.91 17.86.09 11 7.87 18.12 18 18.64 9.8.49 18.24-8.3 18.21-18.33z" fill="#2d465e"/><path d="m1338.21 1050a4.62 4.62 0 0 1 -4.27-1c1.62-.46 3.12-.49 4.27 1z" fill="#9e98ca"/><path d="m1219.32 1237.37c-1.28-9-.77-18.09-.45-27.13.07-2 1.35-2.88 3.26-2.26q15.21 4.92 30.34 10a3 3 0 0 1 2.16 3 31.39 31.39 0 0 0 .11 4c.93 8.5 5.56 14.45 13.39 17.41s15.23 1.48 21.57-4.22c1-.88 1.64-2.18 2.71-2.92 4.79-3.28 7.58-7.31 6-13.44-.39-1.53 1-2.36 2.1-3.07 6-3.8 12-3.8 18.06-.07 2.15 1.33 3.66 2.78 3 5.8-.87 4 .52 7.25 4.33 9.4 1.32.74 2.14 2.33 3.26 3.46 6.37 6.48 13.86 8.93 22.58 5.67s13.08-9.71 14-18.77a13.74 13.74 0 0 0 0-2.4c-.16-1.91.82-3 2.52-3.54 4.28-1.47 8.55-3 12.85-4.4 5.06-1.67 10.12-3.34 15.22-4.86 2.15-.64 3.16.1 3.12 2.18-.2 8.25.48 16.54-1.15 24.73a59.71 59.71 0 0 1 -.56 7.94c-1.68 8.3-3.63 16.54-5.4 24.82-1.54 7.24-4.64 14.1-5.44 21.53a128.67 128.67 0 0 1 -13.35 29.58c-1 1.53-1.3 3.43-1.93 5.15a5 5 0 0 0 -3.33 2c-8.91 12.55-21.18 20.77-35 27-7.34 3.34-15.24 5-23.1 5.81-4.84.54-10.06-.79-14.88-2.09-10.32-2.8-20.14-6.8-28.81-13.33a78.84 78.84 0 0 1 -7.22-6.28c-4-3.87-8-7.79-12-11.68a9 9 0 0 0 -.69-2.3 121.91 121.91 0 0 1 -14.12-31.3 13 13 0 0 0 -1.59-2.76 18.61 18.61 0 0 0 -.62-7.1c-2.06-6.87-3.89-13.82-5.83-20.73-2.36-8.09-4.93-16.2-5.11-24.83zm68.12 47.46c-4.31-.14-5.68.11-7.74 1.31-2.86 1.67-3.84 4.36-2.56 7.4 2.29 5.45 5.21 10.45 9.84 14.34 6.53 5.49 14 9 22.5 8.8a35.33 35.33 0 0 0 20.79-7.08c5.77-4.37 9-10.47 11.2-17.1 1.3-3.89-.75-6.9-4.84-7.51a23.61 23.61 0 0 0 -10.31.34 18.74 18.74 0 0 1 -6.29.92c-9.8-.42-19.7 1.21-29.41-1.39a13 13 0 0 0 -3.18-.03zm22.23-44.46c-.14-3.15-.12-4.75-.32-6.33-.09-.74-.6-1.54-1.58-1.22-.41.13-1 .67-1 1-.34 6.92-2 13.61-3.36 20.35-.86 4.16.61 7.87 3.63 10.88.55.55 1.27 1 2 .42s.46-1.42.14-2.17a4.36 4.36 0 0 0 -.35-.72c-2.6-3.81-2.66-7.67-1.25-12.09 1.21-3.68 2.48-7.59 2.09-10.12z" fill="#fbcba9"/><path d="m1219.32 1237.37c.18 8.61 2.75 16.74 5 24.92 1.94 6.91 3.77 13.86 5.83 20.73a18.61 18.61 0 0 1 .62 7.1c-3.64-1-5.54-4-7.54-6.8-4.35-6.16-7.07-13.12-9.72-20.09a187.63 187.63 0 0 1 -9.28-35.49 78.72 78.72 0 0 1 -.48-18.35c.22-3.12 1.93-4.86 5.16-4.89 1.7 2.52 1.85 5.52 2.5 8.36q2.61 11.33 5.09 22.66c.41 1.66 1.24 2.21 2.82 1.85z" fill="#f4c290"/><path d="m1778.54 2029.14q0 14.05 0 28.09c0 6.63-3.36 10.87-9.11 13.88-8.08 4.23-18.33-.78-21.39-8.33a26.62 26.62 0 0 1 -1.59-10.22c.07-16.58 0-33.17 0-49.75 0-8.44.14-8.42-8.38-8.4q-20.07 0-40.13 0c-1.87 0-3.75.06-5.61 0-7.89-.43-13.48-5.44-14.85-13.24-1.26-7.12 3.09-14.59 10.06-17.34a25 25 0 0 1 9.44-1.49c13.1.06 26.21 0 39.32 0h5.61c3.62-.17 4.28-.78 4.47-4.17.1-1.87.06-3.75.06-5.62 0-10.43 0-20.86 0-31.3a25.41 25.41 0 0 1 1.46-9.43 16.56 16.56 0 0 1 16.57-10.24 15.25 15.25 0 0 1 14 15.06c.25 12 .09 24.07.1 36.11 0 10.13-.63 9.64 9.54 9.63h39.32a55.17 55.17 0 0 1 5.61.1 17.29 17.29 0 0 1 15.42 14.17c1.4 7.43-5.26 16.6-12.93 17.62a50.68 50.68 0 0 1 -6.41.2h-39.32c-1.88 0-3.75-.05-5.62 0-4.7.2-5.51.91-5.56 5.81-.11 9.63 0 19.26 0 28.89z" fill="#fdfdfe"/><path d="m1295.88 1768.81c-.07-2.94-.28-5.88-.17-8.81 1.25-33.38.93-66.78 1.52-100.18q.51-28.44 1.09-56.89c0-.8 0-1.6 0-2.4.2-4.33.54-4.71 4.53-4.72 2.4 0 4.81.1 7.21.19l60 2.17c3.4.29 6.84.87 10.28.84 16.79-.16 33.51 1.34 50.27 1.74 7.45.17 14.9.17 22.32 1.12 3.39.44 6.89.09 10.34.1 20.57.73 41.1 2.55 61.71 2.18a1.83 1.83 0 0 0 2.37.25c1.72 2.63 1.1 5.57 1.1 8.41v23.57c-.21 7.19-.43 14.37-.61 21.55-.38 14.92-.8 29.85-1.05 44.77-.06 3.11-1.16 4.86-4.13 5.94-7 2.54-13.93 5.29-20.85 8q-42.64 17-85.25 34.18c-2.66 1.07-5.61 1.74-7.68 4l.12-.08c-1.8 0-3.5.27-4.58 2-1.63.81-.91 2.1-.69 3.31 1 5.33 3.33 10.34 3.66 15.82-5 .75-10 1.27-14.94 2.29a57 57 0 0 1 -39.39-5.47c-4.46-2.36-9-4.62-13.6-6.63a42.76 42.76 0 0 0 -24.82-3.39 69.23 69.23 0 0 0 -18.76 6.14z" fill="#af396e"/><path d="m1372.13 1332.93c0-1.64 0-3.28 0-4.92a49.27 49.27 0 0 1 14.22-1.59c14.69.13 29.39 0 44.08.07a22.79 22.79 0 0 0 10.1-1.91 26.75 26.75 0 0 1 11.55-2.81 44.08 44.08 0 0 0 13.32-2.26c5.65-1.71 11.44-2.37 17.11-3.75a34.43 34.43 0 0 1 8-.51q28.07-.06 56.11 0c6.72 0 13.07-1.61 19.47-3.6 6.62-2.05 13.09-4.45 19.61-6.75a7.73 7.73 0 0 1 3.07-.77c4.37.41 8.39-1.32 12.59-1.85.16 2.66.45 5.32.45 8q0 102.57-.09 205.13c0 2.39-.25 4.78-.38 7.18a13.82 13.82 0 0 1 -1.92-2.51c-4-8.72-7.82-17.54-11.94-26.21-5.5-11.58-12-22.61-18.45-33.69-5.56-9.57-14.09-15.88-23.38-21.32-15-8.77-30.65-16.19-46.4-23.5-17.43-8.08-35.23-15.28-52.83-23-2.71-1.18-5.39-2.39-8.46-1.62l.16.06-1.7-2.29c-1.67-2-3.39-3.94-5-6-6.24-7.9-13.07-15.21-21.33-21.06-1.24-.88-2.38-2.18-4.19-1.31l.12.15c.38-1.48-.71-1.58-1.68-1.78l.19.1-1.19-1.43a17.4 17.4 0 0 1 -3.2-2.23c-5-5.49-11-10-16.59-14.81a36.62 36.62 0 0 0 -11.42-7.21z" fill="#85c4e1"/><path d="m1380.38 1932.37q-23.2.81-46.42 1.64c-12.55.48-25.09 1-37.63 1.54-2 .08-2.78-.76-2.92-2.88-.05-.8 0-1.6 0-2.4q.38-31.26.78-62.51c1.42.67 2.91 1.23 4.27 2a53.83 53.83 0 0 0 29.72 7.46 72.44 72.44 0 0 0 15.63-2.83c17.24-4.52 33.85-10.91 50.58-17 7-2.53 13.6-6 20.94-7.5-.22 6.11-.45 12.22-.68 18.57 3.62 1.51 7.35.52 11 .09 23.58-2.84 47.11-6 70.41-10.72 8.62-1.73 17.21-3.68 25.81-5.52 1.64.56 2.64 1.47 2.52 3.44-.37 6-1.09 12.09 0 18.13-1.29 4.71-.71 9.53-.81 14.3-.25 10.93-.27 21.86-.48 32.78-.1 5.35-.26 5.48-5.34 5.66-7.19.26-14.39.35-21.58.64q-33.54 1.35-67.08 2.84c-10.38.46-20.75 1.1-31.12 1.66a86 86 0 0 0 -17.6.61z" fill="#af396e"/><path d="m1415.31 1850c-7.34 1.49-14 5-20.94 7.5-16.73 6-33.34 12.44-50.58 17a72.44 72.44 0 0 1 -15.63 2.83 53.83 53.83 0 0 1 -29.72-7.46c-1.36-.79-2.85-1.35-4.27-2-1.83-1.94-3.68-3.85-5.47-5.83-2.71-3-5-6.25-5.08-10.54 2.93-.53 5.54 1.62 8.55 1.42-.29-1.9-1.66-2.44-2.68-3a21.59 21.59 0 0 1 -8.43-8.26c-.35-.64-1.23-1-1.86-1.46-.47-4-1.08-8 1.61-11.53 2.69.41 5 2.15 7.9 2a5.51 5.51 0 0 0 1 1.1c.56.38 1 .15 1.1-.5 0-.12-.36-.37-.58-.42a12.53 12.53 0 0 0 -1.5-.18l-11-11c-.81-3-.56-6.11-.46-9.19a11.49 11.49 0 0 1 2.94-7.74l10.16 2.27a10.83 10.83 0 0 0 1.11.92c.1.07.36-.1.55-.15l-1.7-.72c-.48-.63-.83-1.5-1.46-1.86-4.79-2.71-7-7.16-8.36-12.17.09-6.92 2.86-11.8 10.09-13.29l4.65-.11q.78 0 1.56.09c5.46 2.79 11.43 3.9 17.37 4.64 9.66 1.22 19.38 2.21 29.16 1.79a11.22 11.22 0 0 0 1.08.88c.1.07.35-.08.54-.14l-1.66-.7c-1.18-1.27-2.74-1.34-4.34-1.54-5.2-.63-10.4-1.36-15.6-2.08-8.83-1.22-17.65-2.63-26.6-2.8l-1.54-1.88c0-1.46 0-2.92 0-4.38.21-.84.42-1.69.64-2.52a69.89 69.89 0 0 1 18.81-6.1 42.76 42.76 0 0 1 24.82 3.39c4.62 2 9.14 4.27 13.6 6.63a57 57 0 0 0 39.39 5.47c4.93-1 10-1.54 14.94-2.29 2.93 6.36 3.6 13.3 4.76 20.06a207.83 207.83 0 0 1 3 24.46c.53 9.62.14 19.49.13 29.39z" fill="#fbcba9"/><path d="m1408.93 1754.87c2.07-2.26 5-2.93 7.68-4q42.59-17.19 85.25-34.18c6.92-2.76 13.85-5.51 20.85-8 3-1.08 4.07-2.83 4.13-5.94.25-14.92.67-29.85 1.05-44.77.18-7.18.4-14.36.61-21.55.26.46.7.91.75 1.39.67 6.34 1.17 12.69 1.93 19s1.76 12.61 2.65 18.91a14 14 0 0 1 .43 3.16c-.65 6.74 2.13 13.14 1.87 19.85-.08 2.32 1.37 3.51 3.56 3.32a18.39 18.39 0 0 0 4.64-1c12.3-4.37 24.58-8.83 36.88-13.2 3-1.08 6-2.19 9.35-1.76a9.31 9.31 0 0 1 -1.74 1.6c-17.51 9.07-34.84 18.52-52.62 27-14.63 7-29.76 13-44.77 19.11-4.65 1.91-9.64 3-14.52 4.31-20.29 5.38-40.6 10.65-60.87 16.08a17.37 17.37 0 0 1 -7.11.67z" fill="#cad5e9"/><path d="m1405.81 1360.16c1.81-.87 3 .43 4.19 1.31 8.26 5.85 15.09 13.16 21.33 21.06 1.61 2 3.33 4 5 6 .18 1.06.44 2 1.7 2.28l-.16-.06 11 19.48c.85 2.23 1.59 4.51 2.56 6.69a219.28 219.28 0 0 1 9.35 25.47c7 23.33 10.3 47.31 12.34 71.5.23 2.65-.29 5.63.76 7.89 1.34 2.9 5.32 1.75 7.82 3.27a30.84 30.84 0 0 0 4.38 1.83 75.45 75.45 0 0 1 6.21 6c2.5 3 5.13 6.1 4.87 10.46l-.44-.24-.38.32c-1.19-2.09-2.27-4.23-3.57-6.23-4.83-7.43-11.65-11.62-20.54-12a47.82 47.82 0 0 1 -8.7-1 2.82 2.82 0 0 0 -2.93.66c5.17-.61 5.8-1.12 5.57-5.25-.22-3.92-.7-7.83-1.06-11.74a200.29 200.29 0 0 0 -5-35.47c-1.36-9.46-4-18.6-6.91-27.67-1.52-4.75-2.67-9.67-5.41-14-1.43-5.15-3.08-10.2-6.46-14.47.09-1.43-.19-2.68-1.62-3.38a1.4 1.4 0 0 0 -.53-1.36 1.26 1.26 0 0 0 -1.07-1.75v.05a3.06 3.06 0 0 0 -1.69-3.19 2.35 2.35 0 0 0 -1.29-2.43c-1-1.89-1.8-3.82-2.86-5.65-6.64-11.52-14.73-22-22.73-32.6-1.34-1.75-3.42-3.21-3.73-5.78z" fill="#2d465e"/><path d="m1499.56 1548c7.88 3.84 11.86 10.24 12.31 18.9.11 2.12-.18 4.28.06 6.39.55 4.86-1.35 9-4 12.71-5.4 7.53-12.6 11.93-22.29 11.87-6 0-11.5-.93-16.58-4.5-3.65-2.56-5.61-6.31-8-9.73-.75-1.07-.16-3.08-.19-4.66 8.26 2 16.3 2 23.84-2.62 6.58-1.85 9.48-7.21 12.18-12.78 2.43-4.98 2.21-10.35 2.67-15.58z" fill="#e0f2fb"/><path d="m1486.07 1526.87a30.84 30.84 0 0 1 -4.38-1.83c-2.5-1.52-6.48-.37-7.82-3.27-1-2.26-.53-5.24-.76-7.89-2-24.19-5.29-48.17-12.34-71.5a219.28 219.28 0 0 0 -9.35-25.47c-1-2.18-1.71-4.46-2.56-6.69a3.52 3.52 0 0 1 3.5 1.37 102.77 102.77 0 0 1 8.14 12.75 242.21 242.21 0 0 1 19.31 54.65c2.26 9.81 3.45 19.77 4.94 29.7.91 6.07 1.77 12.05 1.32 18.18z" fill="#e0f2fb"/><path d="m1463.34 1602c-3.45 0-6.95.34-10.34-.1-7.42-.95-14.87-.95-22.32-1.12-16.76-.4-33.48-1.9-50.27-1.74-3.44 0-6.88-.55-10.28-.84 2 0 3.92.18 5.73-.71 4.92.13 10 1.65 14.28-2.56.73-.72 2.55-.43 3.87-.43q9.56 0 19.11.15a19 19 0 0 1 4.72.5c6 1.69 12.13.84 18.21.92 2.44 0 3.18-.85 3.5-3.41 1.28-10.21 3.5-20.3 3.73-30.64a51.42 51.42 0 0 0 9.86 12.89c-.53.57-1.44 1.08-1.55 1.73-.86 5.17-1.85 10.35-2.24 15.57s2.63 8.29 7.89 8.75c2.06.15 4.27-.55 6.1 1.04z" fill="#cad5e9"/><path d="m1524.29 1873.94c-1-6-.33-12.09 0-18.13.12-2-.88-2.88-2.52-3.44 6.72-1.9 13.3-4.44 20.45-4.26a133.36 133.36 0 0 1 0 19.38l-4.64 1.58z" fill="#cad5e9"/><path d="m1453.14 1574.88a51.42 51.42 0 0 1 -9.86-12.89q-.85-5.28-1.7-10.55c.71.31 1.88.46 2.05 1a40.09 40.09 0 0 1 .92 4.69 26.33 26.33 0 0 0 32.24 20c2.32-.6 4.58-1.4 6.87-2.1l1.08 1.32c-7.54 4.64-15.58 4.59-23.84 2.62z" fill="#2d465e"/><path d="m1484.74 1576.32-1.09-1.32a5.37 5.37 0 0 1 .94-1.2c9.82-7.22 14.19-16.59 11.47-28.81a4.35 4.35 0 0 1 .27-1.54l.38-.32.44.24c2.15.82 1.72 3 2.41 4.59-.46 5.27-.24 10.64-2.64 15.58-2.7 5.57-5.6 10.93-12.18 12.78z" fill="#9e98ca"/><path d="m1404.47 1756.76c1.08-1.7 2.78-2 4.58-2-.91 2.11-2.79 1.95-4.58 2z" fill="#cad5e9"/><path d="m1527.42 1604.4a1.83 1.83 0 0 1 -2.37-.25z" fill="#cad5e9"/><path d="m1590.56 1686.07c.11-.21.25-.62.31-.6.49.09.37.31-.35.56z" fill="#cad5e9"/><path d="m1706.73 1754.49c2.57-1 5.25-.87 7.92-.87q26 0 52 0c2.36 0 4.85-.52 6.91 1.23 2.57 6.28 7.17 11.12 12 15.51a72.9 72.9 0 0 0 32 16.62c1.79.45 3.65.62 5.11 1.91-3.51 3.23-7.06 6.42-10.53 9.7-1.89 1.79-4.42 3.08-4.92 6l-70.41.07c.61-2.9-1.43-5.15-1.91-7.79 4-4.94 8-9.81 11.24-15.28 1.47-2.51 2.93-5 4.17-7.66 1.11-2.37.34-3.92-2.24-5a26 26 0 0 0 -3.78-1.1c-10.52-2.43-21-4.87-31.73-6.43z" fill="#afe1f4"/><path d="m1706.73 1754.49 5.88 7c5.27 8.22 10.56 16.42 15.79 24.67 2.25 3.55 4.37 7.19 6.55 10.78.48 2.64 2.52 4.89 1.91 7.79l-46.47-.19a78.61 78.61 0 0 1 -5.8-18.28 145.67 145.67 0 0 1 -2.55-23.08c7.28-5.65 15.64-8.18 24.69-8.69z" fill="#f4ab63"/><path d="m1682 1763.14a145.67 145.67 0 0 0 2.55 23.08 78.61 78.61 0 0 0 5.8 18.28l-30.67.34c-1.36-9.12 1.45-17.27 6-25 4.08-6.84 8.69-13.3 16.32-16.7z" fill="#85c4e1"/><path d="m1807.27 1804.62c.5-2.94 3-4.23 4.92-6 3.47-3.28 7-6.47 10.53-9.7a5.46 5.46 0 0 0 2.24-3.23c3.23-.43 4.75-3.09 6.74-5.15 3.93 7.07 8.18 14 7.41 22.64-5.1-1.83-9.28-5.18-13.59-8.3-1.55-1.12-2.85-1.17-4.25.11q-5.32 4.85-10.68 9.66z" fill="#f4ab63"/><path d="m1810.59 1804.63q5.34-4.83 10.68-9.66c1.4-1.28 2.7-1.23 4.25-.11 4.31 3.12 8.49 6.47 13.59 8.3l-.06 1.63z" fill="#afe1f4"/><path d="m1805.63 1365c-.05 1.77.23 3.65-1.61 4.82 0-1.77-.23-3.64 1.61-4.81z" fill="#afe1f4"/><path d="m1805.67 1365a13.61 13.61 0 0 1 .17-1.43c.05-.22.27-.58.38-.57.62.07.84.5.47 1a5.28 5.28 0 0 1 -1.06.93z" fill="#afe1f4"/><path d="m1879.79 1719.78c-2.65 3.66-5.36 7.28-8 11a200.51 200.51 0 0 1 -13.48 17.91c-2.31-2.15-4.75-4.2-6.93-6.49-13-13.73-29.43-21.23-47.6-25.25-3.07-.68-6.32-.58-9.48-.84-.17-1.65-1.2-2.86-2-4.18-2.7-4.17-5.35-8.38-8-12.57.83-1 2-1.89 2.44-3 6.63-16.42 14.29-32.43 19.94-49.25.33-1 .51-2 .76-3.07 1.15 1.77 2.37 3.5 3.43 5.32 13.92 23.76 31.53 44.19 54.26 60 3.72 2.57 7.66 4.83 11.53 7.17 1.34.75 2.8 1.47 3.13 3.25z" fill="#afe1f4"/><path d="m1784.28 1699.35c2.67 4.19 5.32 8.4 8 12.57.85 1.32 1.88 2.53 2 4.18-9.34.07-18.68.13-28 .24a10.66 10.66 0 0 1 -5.28-1.34c0-4.8.06-9.6-.16-14.4-.33-7.25 1.39-14.3 1.9-21.47a2.3 2.3 0 0 1 1.32-1.7 2.73 2.73 0 0 1 2.09.73c5.08 4.39 9 9.83 13.11 15 1.61 2.11 3.34 4.14 5.02 6.19z" fill="#fbcba9"/><path d="m1825 1785.67a5.46 5.46 0 0 1 -2.24 3.23c-1.46-1.29-3.32-1.46-5.11-1.91a72.9 72.9 0 0 1 -32-16.62c-4.84-4.39-9.44-9.23-12-15.51 5.07 0 10.13.07 15.19-.09 12.06-.38 22.4 3.82 31.47 11.53a1.78 1.78 0 0 0 1.45 1.68l-.08-.08c-.23 2.42.56 4.66 1.07 7 .74 3.57 2.5 6.97 2.25 10.77z" fill="#fbcba9"/><path d="m1825 1785.67c.29-3.8-1.47-7.2-2.26-10.78-.51-2.33-1.3-4.57-1.07-7 4.62 3.2 9.08 6.52 10.06 12.62-2.02 2.07-3.54 4.73-6.73 5.16z" fill="#afe1f4"/><path d="m1821.71 1768a1.78 1.78 0 0 1 -1.45-1.68z" fill="#afe1f4"/><path d="m1887.55 1717.33c-1-.8-1.75-1.6 0-2.45-.02.82-.01 1.64 0 2.45z" fill="#afe1f4"/><path d="m1919.62 1631.42a6.07 6.07 0 0 1 1.15 1c.39.54.19 1-.45 1.19-.1 0-.37-.35-.44-.58-.14-.5-.2-1-.29-1.52z" fill="#f4ab63"/><path d="m1386.83 1290.29c.8-7.43 3.9-14.29 5.44-21.53 1.77-8.28 3.72-16.52 5.4-24.82a59.71 59.71 0 0 0 .56-7.94c1.28 1.08 2.28 1.18 2.77-.75 2.14-8.55 4.47-17 6.32-25.65.51-2.35 1.89-3.68 3.21-5.28 3.14.3 4.89 2.1 5 5.17.09 5 .46 10.15-.2 15.11-2.49 18.51-7.07 36.44-16.27 52.9-1.55 2.77-3.33 5.43-5.12 8.06a10.15 10.15 0 0 1 -7.11 4.73z" fill="#f4c290"/><path d="m1409.23 1118.92c-1.84-1.57-2.32-3.32-.72-5.36z" fill="#85c4e1"/><path d="m1246.72 1949.13c-1.84-2.73-2.33-6-2.69-9.06-1.22-10.32-3.66-20.41-5.32-30.65-1.37-8.39-3-16.73-4.55-25.09-2.53-13.59-5.62-27.09-7.53-40.76s-5.17-27.16-7.12-40.86c-1.39-9.73-3.82-19.3-5.56-29-2-11-3.62-22-5.57-33-1.72-9.68-3.74-19.31-5.48-29-2-11-3.77-22-5.7-33-1.66-9.43-3.13-18.91-5.25-28.23a41.21 41.21 0 0 1 -.86-11.89c3.07 0 6.17-.4 7.22-3.79s1.3-6.88-.62-10.07a5.25 5.25 0 0 0 -6.18-2.6 22.41 22.41 0 0 0 -3.58 1.69 5.66 5.66 0 0 1 -1.83-3.44c-1.71-10.75-3-21.61-5.32-32.23-2.7-12.22-4.09-24.61-5.85-37 1.37-.28 2.61-.8 2.85-2.36.64-4.2 1.12-8.43 1.84-12.62 2.11-12.22 5.62-24.08 13.41-33.87 5.34-6.72 12.61-10.84 21.83-8.11 2.64.78 5.28.7 7.93.85l.09.09c.49.5 1 1 1.45 1.51l.14.17c.4.44.79.89 1.19 1.34 6.35 6.92 9 15.64 11.44 24.33 3.56 12.6 5.18 25.58 6.52 38.58a462.54 462.54 0 0 1 1.93 50.36c0 7.57-2.1 10.68-9 13.17-1.25.45-2.61.58-3.86 1-2 .67-3.64.6-5-1.14a6.21 6.21 0 0 0 -1.19-1 5.24 5.24 0 0 0 -6-.62 6 6 0 0 0 -3.4 5.87 24.75 24.75 0 0 0 .84 5.53c1 4 5.67 6.19 8.71 3.49 2.81-2.51 6-3.33 9.24-4.1 4-.94 7.21-3.37 10.89-4.87q.06 154.57.12 309.14c.1 3.77-.1 7.51-.18 11.24z" fill="#fdfdfe"/><path d="m1441.58 1551.44q.86 5.28 1.7 10.55c-.23 10.34-2.45 20.43-3.73 30.64-.32 2.56-1.06 3.44-3.5 3.41-6.08-.08-12.2.77-18.21-.92a19 19 0 0 0 -4.72-.5q-9.55-.13-19.11-.15c-1.32 0-3.14-.29-3.87.43-4.25 4.21-9.36 2.69-14.28 2.56-.16-8.54-.37-17.07-.47-25.61-.14-11.21.22-22.45-.36-33.63-1.8-34.42-.76-68.86-1.57-103.28-.36-15.18-1-30.35-1.5-45.53.06-13 .16-26.06.16-39.1 0-3.17.42-6.39-.68-9.5l.69-7.88a36.62 36.62 0 0 1 11.33 7.23c5.59 4.86 11.55 9.32 16.59 14.81a17.4 17.4 0 0 0 3.2 2.23c-.1.89.61 1.11 1.19 1.43l-.19-.1c.06 1.06.54 1.74 1.68 1.78l-.12-.15c.31 2.57 2.39 4 3.79 5.88 8 10.58 16.09 21.08 22.73 32.6 1.06 1.83 1.91 3.76 2.86 5.65a2.25 2.25 0 0 0 1.29 2.43 2.72 2.72 0 0 0 1.69 3.19v-.05a1.46 1.46 0 0 0 1.07 1.75 1.4 1.4 0 0 1 .53 1.36c-.23 1.49.09 2.72 1.62 3.38a16.18 16.18 0 0 0 .82 7 2 2 0 0 1 -2.12 2.57 14.47 14.47 0 0 1 -3.16-.12c-6.19-1.27-12.34-2.78-18.56-3.87-5.69-1-11.28-3-17.2-2.3-.22-.71-.44-.83-.54-.36 0 .06.38.21.58.32a11.54 11.54 0 0 0 1.26 2c11.13 11.52 22.73 22.58 33.28 34.69 5.79 6.64 12.34 12.62 18.67 18.77 2.31 2.26 3.8 4.91 2.71 7.87-1.51 4.11-1.27 8.42-2.19 12.59a191.57 191.57 0 0 0 -3.8 22.8c-.62 6.5-2 12.46-5.51 18.06-2.91 4.5-5.52 9.31-4.05 15.07z" fill="#fdfdfe"/><path d="m1380.38 1932.37a86 86 0 0 1 17.5-.55c-4 1.42-7.56 3.3-7.78 8.31-.27 6.26-2.47 12.33-1.94 18.67-2.17 3.16-2.34 6.93-3.06 10.5-.83 4.14-1.43 8.32-2.2 12.47-.08.46-.62.83-1 1.24a10.74 10.74 0 0 1 -.17-1.58c.81-16.43-1.03-32.7-1.35-49.06z" fill="#cad5e9"/><path d="m1290.37 1804.82-10.16-2.28c-.4-3.92-1.73-7.86.3-11.71 1.4 5 3.57 9.46 8.36 12.17.63.36 1 1.23 1.46 1.86z" fill="#f4ab63"/><path d="m1279.2 1840.06c.63.48 1.51.82 1.86 1.46a21.59 21.59 0 0 0 8.43 8.26c1 .59 2.39 1.13 2.68 3-3 .2-5.62-2-8.55-1.42-2.24-3.45-4.57-6.9-4.42-11.3z" fill="#f4c290"/><path d="m1288.71 1830.49c-2.85.19-5.21-1.55-7.9-2-1.56-2.84-3.09-5.68-3.08-9.06l11 11z" fill="#f4ab63"/><path d="m1295.24 1771.31v4.39 1.73l-4.65.11z" fill="#f4c290"/><path d="m1388.16 1958.8c-.53-6.34 1.67-12.41 1.94-18.67.22-5 3.74-6.89 7.78-8.31 10.37-.56 20.74-1.2 31.12-1.66q33.54-1.5 67.08-2.84c7.19-.29 14.39-.38 21.58-.64 5.08-.18 5.24-.31 5.34-5.66.21-10.92.23-21.85.48-32.78.1-4.77-.48-9.59.81-14.3l13.29-4.87q0 37.2 0 74.41c0 9.4.09 9.07-9.38 9q-6 0-12 0c-3.45 0-6.87-.07-10.27 1.08-2 .65-4.22.48-6.34.49-6.66.06-13.33 0-20 0-4.24 0-8.49-.32-12.66 1.21-1.67.61-3.69.35-5.55.37-6.13 0-12.27 0-18.4 0-5 0-10.12-.52-15 1.31a12.69 12.69 0 0 1 -4 .26c-1.6 0-3.2 0-4.8 0-10.37.25-20.76-.55-31.02 1.6z" fill="#e0f2fb"/><path d="m1168.48 1520.08c-2.32-12.82-4.49-25.67-7.09-38.43-.58-2.82 0-4.54 1.81-6.37 7.4-7.36 14.7-14.82 22.15-22.12 5-4.85 9.41-10.23 15-14.39q.16 19.53.32 39c0 2.07-.64 3.53-2.84 4.15-9 2.53-14.86 8.94-19.54 16.61a87.11 87.11 0 0 0 -6.94 15.18c-.76 2.21-.73 4.81-2.87 6.37z" fill="#fdfdfe"/><path d="m1174.93 1551.21c1.76 12.35 3.15 24.74 5.85 37 2.34 10.62 3.61 21.48 5.32 32.23a5.66 5.66 0 0 0 1.83 3.44c-.18 1.4-.7 2.56-2.29 2.68-2.59.18-5.21.34-7.5-1.29.38-9.61-2.58-18.7-4.39-28-1.36-7-3.58-13.74-4-20.89 0-.93-.89-1.82-1.37-2.73a152.41 152.41 0 0 1 3.3-30.42c1.42 1 1.5 2.51 1.53 4s.23 3.07 1.72 3.98z" fill="#cad5e9"/><path d="m1174.93 1551.21c-1.49-.91-1.68-2.39-1.71-3.94s-.11-3-1.53-4a84.51 84.51 0 0 1 11.94-40.71 41.39 41.39 0 0 1 7.57-9.18c8.4-7.76 17.85-7.83 27-2.44 1.78 1 3.77 2 4.57 4.2-2.65-.15-5.29-.07-7.93-.85-9.22-2.73-16.49 1.39-21.83 8.11-7.79 9.79-11.3 21.65-13.41 33.87-.72 4.19-1.2 8.42-1.84 12.62-.22 1.52-1.46 2.04-2.83 2.32z" fill="#e0f2fb"/><path d="m1168.39 1573.65c.48.91 1.32 1.8 1.37 2.73.41 7.15 2.63 13.93 4 20.89 1.81 9.26 4.77 18.35 4.39 28-9.36-1.62-12.75-5.29-12.92-14.13 0-2.13.12-4.27.27-6.4.51-7.73 1-15.46 1.63-23.18.21-2.68.87-5.29 1.26-7.91z" fill="#e0f2fb"/><path d="m1193.71 1630.45a9.94 9.94 0 0 1 -.4 2.77 2.4 2.4 0 0 1 -1.74 1.3 2.28 2.28 0 0 1 -1.75-1.21 9.22 9.22 0 0 1 -.38-3.12c-.07-3.67.81-5.38 2.41-4.81 2.4.86 1.63 2.98 1.86 5.07z" fill="#66c6bd"/><path d="m1226 1631.47c-.16 1.18 0 1.84-.34 2.18-.46.55-1.18 1.23-1.79 1.23s-1.74-.69-1.8-1.18a51.69 51.69 0 0 1 -.39-7 1.36 1.36 0 0 1 1.66-1.23 2.67 2.67 0 0 1 1.74 1.29 41.46 41.46 0 0 1 .92 4.71z" fill="#66c6bd"/><path d="m1225.66 1498.21c-.4-.45-.79-.9-1.19-1.34.78.13 1.25.48 1.19 1.34z" fill="#e0f2fb"/><path d="m1224.33 1496.7c-.48-.51-1-1-1.45-1.51a1.4 1.4 0 0 1 1.45 1.51z" fill="#e0f2fb"/><path d="m1357.7 1209.47c.57-.52 1.18-1 .38-1.83a16.83 16.83 0 0 0 -9.85-4.85c-9.46-1.4-17.51 2.53-22.19 10.9-.77 1.39-1.34 2.88-2.24 4.84-1.68-1-3.09-2-4.64-2.74a36.75 36.75 0 0 0 -5.22-2 12.24 12.24 0 0 0 -6.32-.57 44.93 44.93 0 0 0 -5.43 1.37 48 48 0 0 0 -4.88 2.37c-2.51-.44-2.53-2.72-3.36-4.21a20.86 20.86 0 0 0 -35.91-1.32 17.23 17.23 0 0 0 -1.26 2c-.83 1.76-2.12 2.19-3.91 1.6-10.37-3.46-20.75-6.93-31.15-10.33-1.76-.58-2.69-1.6-2.65-3.46.33-14.71.5-29.44 5.66-43.52 3.71-10.14 8.9-19.35 16.55-26.76 2.78.25 4.1 2.15 5.86 3.28 12.09 7.73 25.29 11.45 39.59 10.54a72.28 72.28 0 0 0 26.91-7.32c1.93-.92 3.86-1.85 5.74-2.85a5.32 5.32 0 0 1 4.61-.19c15.68 5.67 31.81 6.59 48.21 4.47.53-.07 1.07-.1 1.6-.12 3.17-.17 6.81-1.37 9.39-.22 3.32 1.49 4.59 5.7 6.34 9 6 11.3 8.65 23.53 9.55 36.17.4 5.59.37 11.22.36 16.84 0 4.31-.12 4.3-4 5.6l-25.84 8.54c-4.41 1.46-4.44 1.48-7-2.23-1.08-1.54-2-3.21-3.82-4-.21-.09-.72.51-1.1.8zm-6.52-28.48c-1.87.43-4.76.92-7.54 1.76-1.77.54-2.75 2.75-2.48 4.58a4.41 4.41 0 0 0 3.83 3.5 7.07 7.07 0 0 0 1.59 0 26.1 26.1 0 0 1 16.8 4 12.22 12.22 0 0 0 2.14 1.07 4.2 4.2 0 0 0 5.4-4.15 5.68 5.68 0 0 0 -2-4.18c-4.67-4.48-10.35-6.36-17.74-6.57zm-82.93-.43a23.54 23.54 0 0 0 -17.38 6.85c-2.22 2.17-2.46 4.47-.88 6.41 1.41 1.74 3.32 2.09 5.75 1a4.68 4.68 0 0 0 .71-.35 27.41 27.41 0 0 1 17.55-4.34 6.54 6.54 0 0 0 1.59-.09 3.82 3.82 0 0 0 3.34-3 4.1 4.1 0 0 0 -2.13-4.72 19.38 19.38 0 0 0 -8.55-1.76z" fill="#fbcba9"/><path d="m1293.61 1222.77c0 10-8.41 18.82-18.21 18.33-10.13-.52-17.91-7.61-18-18.64-.07-9.64 8.35-17.75 17.91-17.86a18.16 18.16 0 0 1 18.3 18.17zm-23.22-.36c-.06 3.69 2 6.49 4.71 6.75 3.1.29 5.75-2.6 5.69-6.33a9.49 9.49 0 0 0 -.6-3.11c-.72-1.9-3.33-3.67-4.94-3.53s-3.9 2.14-4.46 4.12c-.21.77-.3 1.57-.4 2.1z" fill="#fdfdfe"/><path d="m1357.61 1209.38c.3 2.49 2.39 4 3.38 6.13a18.11 18.11 0 1 1 -24.3-8.48 17.88 17.88 0 0 1 16.12.07c1.64.78 2.8 2.55 4.89 2.36zm-13.34 7.61a4.22 4.22 0 0 0 -3.37 1.77 8.32 8.32 0 0 0 -.19 8.88c2 2.91 5.72 2.86 7.86-.1a7.51 7.51 0 0 0 -.19-8.76 4.72 4.72 0 0 0 -4.11-1.78z" fill="#fdfdfe"/><path d="m1287.44 1284.83a13 13 0 0 1 3.18 0c9.71 2.6 19.61 1 29.41 1.39a18.74 18.74 0 0 0 6.29-.92 23.61 23.61 0 0 1 10.31-.34c4.09.61 6.14 3.62 4.84 7.51-2.21 6.63-5.43 12.73-11.2 17.1a35.33 35.33 0 0 1 -20.79 7.08c-8.51.21-16-3.31-22.5-8.8-4.63-3.89-7.55-8.89-9.84-14.34-1.28-3-.3-5.73 2.56-7.4 2.06-1.17 3.43-1.42 7.74-1.28zm2 3.48c-2.55 0-3.62 0-4.69 0a7.6 7.6 0 0 0 -1.57.28 3.26 3.26 0 0 0 -2.44 3.62 9.48 9.48 0 0 0 .81 3.06c7.61 13.76 23 23.12 41.47 14.49 7.36-3.44 12.22-9.37 14.73-17.14 1-3.1.06-4.33-3.45-4.37a34.42 34.42 0 0 0 -7.19.32c-4.78 1-9.58.88-14.38.93-8.25.09-16.54.26-23.26-1.19z" fill="#f4c290"/><path d="m1309.67 1240.37c.39 2.53-.88 6.44-2.07 10.16-1.41 4.42-1.35 8.28 1.25 12.09a4.36 4.36 0 0 1 .35.72c.32.75.55 1.58-.14 2.17s-1.44.13-2-.42c-3-3-4.49-6.72-3.63-10.88 1.39-6.74 3-13.43 3.36-20.35 0-.37.56-.91 1-1 1-.32 1.49.48 1.58 1.22.18 1.54.16 3.14.3 6.29z" fill="#f4ab63"/><path d="m1404.44 1358.63c-.58-.32-1.29-.54-1.19-1.43z" fill="#2d465e"/><path d="m1405.93 1360.31c-1.14 0-1.62-.72-1.68-1.78.97.2 2.06.3 1.68 1.78z" fill="#2d465e"/><path d="m1438 1390.8c-1.26-.24-1.52-1.22-1.7-2.28z" fill="#fdfdfe"/><path d="m1296.77 1777.57c8.94.17 17.76 1.58 26.59 2.8 5.2.72 10.4 1.45 15.6 2.08 1.6.2 3.16.27 4.34 1.54-9.78.42-19.5-.57-29.16-1.79-5.94-.74-11.91-1.85-17.37-4.64z" fill="#f4ab63"/><path d="m1288.72 1830.49a12.53 12.53 0 0 1 1.5.18c.22 0 .6.3.58.42-.08.65-.54.88-1.1.5a5.51 5.51 0 0 1 -1-1.1z" fill="#f4c290"/><path d="m1343.3 1784 1.66.7c-.19.06-.44.21-.54.14a11.22 11.22 0 0 1 -1.08-.88z" fill="#f4ab63"/><path d="m1290.33 1804.86 1.7.72c-.19.05-.45.22-.55.15a10.83 10.83 0 0 1 -1.11-.92z" fill="#f4ab63"/><path d="m1295.25 1777.43v-1.73l1.54 1.87q-.79-.12-1.54-.14z" fill="#f4ab63"/><path d="m1441.58 1551.44c-1.47-5.76 1.14-10.57 4-15.07 3.52-5.6 4.89-11.56 5.51-18.06a191.57 191.57 0 0 1 3.8-22.8c.92-4.17.68-8.48 2.19-12.59 1.09-3-.4-5.61-2.71-7.87-6.33-6.15-12.88-12.13-18.67-18.77-10.55-12.11-22.15-23.17-33.28-34.69a11.54 11.54 0 0 1 -1.26-2c5.92-.67 11.51 1.3 17.2 2.3 6.22 1.09 12.37 2.6 18.56 3.87a14.47 14.47 0 0 0 3.16.12 2 2 0 0 0 2.12-2.57 16.18 16.18 0 0 1 -.82-7c3.38 4.27 5 9.32 6.46 14.47-6.79-1.25-13.57-2.48-20.35-3.74-4.43-.83-8.84-1.75-13.27-2.51a2.43 2.43 0 0 0 -2 .72c-.57.75.2 1.51.74 2.06q21.48 21.54 43 43.07a6 6 0 0 0 4.21 2 200.29 200.29 0 0 1 5 35.47 8.49 8.49 0 0 0 -2.85 6.23c.13 3.73-1.5 7.12-1.66 10.76a2.82 2.82 0 0 1 2.93-.66 47.82 47.82 0 0 0 8.7 1c8.89.42 15.71 4.61 20.54 12 1.3 2 2.38 4.14 3.57 6.23a4.35 4.35 0 0 0 -.27 1.54c2.72 12.22-1.65 21.59-11.47 28.81a5.37 5.37 0 0 0 -.94 1.2c-2.28.7-4.54 1.5-6.86 2.1a26.33 26.33 0 0 1 -32.24-20 40.09 40.09 0 0 0 -.92-4.69c-.24-.47-1.41-.62-2.12-.93zm16.69 1.9c1 8.78 5.77 13.9 12.47 13.55a12.14 12.14 0 0 0 9-4.56 11.3 11.3 0 0 0 2.6-9.75c-1.63 5.69-4.92 9.9-11.42 10.2s-10.02-4.04-12.65-9.44zm16.36-.74c.52-1.54-.81-3.68-2.7-4.32-2-.7-4.23.1-4.7 1.72-.67 2.31.38 4.87 2.21 5.38a5.05 5.05 0 0 0 5.19-2.78z" fill="#cad5e9"/><path d="m1460.1 1472.38a6 6 0 0 1 -4.21-2q-21.51-21.52-43-43.07c-.54-.55-1.31-1.31-.74-2.06a2.43 2.43 0 0 1 2-.72c4.43.76 8.84 1.68 13.27 2.51 6.78 1.26 13.56 2.49 20.35 3.74 2.74 4.28 3.89 9.2 5.41 14 2.92 9 5.56 18.14 6.92 27.6z" fill="#fdfdfe"/><path d="m1460.59 1524.84c.16-3.64 1.79-7 1.66-10.76a8.49 8.49 0 0 1 2.85-6.23c.36 3.91.84 7.82 1.06 11.74.23 4.13-.4 4.64-5.57 5.25z" fill="#fdfdfe"/><path d="m1438.16 1409.89a2.72 2.72 0 0 1 -1.69-3.19 3.06 3.06 0 0 1 1.69 3.19z" fill="#cad5e9"/><path d="m1441.34 1416.33c-1.53-.66-1.85-1.89-1.62-3.38 1.43.7 1.71 1.95 1.62 3.38z" fill="#cad5e9"/><path d="m1439.19 1411.59a1.46 1.46 0 0 1 -1.07-1.75 1.26 1.26 0 0 1 1.07 1.75z" fill="#cad5e9"/><path d="m1436.48 1406.72a2.25 2.25 0 0 1 -1.29-2.43 2.35 2.35 0 0 1 1.29 2.43z" fill="#cad5e9"/><path d="m1735 1796.9c-2.18-3.59-4.3-7.23-6.55-10.78-5.23-8.25-10.52-16.45-15.79-24.67 10.69 1.56 21.21 4 31.73 6.43a26 26 0 0 1 3.78 1.1c2.58 1.06 3.35 2.61 2.24 5-1.24 2.63-2.7 5.15-4.17 7.66-3.24 5.45-7.34 10.36-11.24 15.26z" fill="#85c4e1"/><path d="m1401.14 1419.56c-.2-.11-.6-.26-.58-.32.1-.47.32-.35.54.36z" fill="#cad5e9"/><path d="m1351.18 1181c7.39.22 13.07 2.1 17.75 6.58a5.68 5.68 0 0 1 2 4.18 4.2 4.2 0 0 1 -5.4 4.15 12.22 12.22 0 0 1 -2.14-1.07 26.1 26.1 0 0 0 -16.8-4 7.07 7.07 0 0 1 -1.59 0 4.41 4.41 0 0 1 -3.83-3.5c-.27-1.83.71-4 2.48-4.58 2.77-.85 5.66-1.34 7.53-1.76z" fill="#2d465e"/><path d="m1268.25 1180.56a19.38 19.38 0 0 1 8.55 1.83 4.1 4.1 0 0 1 2.13 4.72 3.82 3.82 0 0 1 -3.34 3 6.54 6.54 0 0 1 -1.59.09 27.41 27.41 0 0 0 -17.55 4.34 4.68 4.68 0 0 1 -.71.35c-2.43 1-4.34.69-5.75-1-1.58-1.94-1.34-4.24.88-6.41a23.54 23.54 0 0 1 17.38-6.92z" fill="#2d465e"/><path d="m1270.39 1222.41c.1-.53.19-1.33.4-2.1.56-2 2.73-4 4.46-4.12s4.22 1.63 4.94 3.53a9.49 9.49 0 0 1 .6 3.11c.06 3.73-2.59 6.62-5.69 6.33-2.74-.26-4.77-3.06-4.71-6.75z" fill="#2d465e"/><path d="m1344.27 1217a4.72 4.72 0 0 1 4.11 1.79 7.51 7.51 0 0 1 .19 8.76c-2.14 3-5.91 3-7.86.1a8.32 8.32 0 0 1 .19-8.88 4.22 4.22 0 0 1 3.37-1.77z" fill="#2d465e"/><path d="m1289.47 1288.31c6.72 1.45 15 1.28 23.29 1.2 4.8 0 9.6 0 14.38-.93a34.42 34.42 0 0 1 7.19-.32c3.51 0 4.46 1.27 3.45 4.37-2.51 7.77-7.37 13.7-14.73 17.14-18.43 8.63-33.86-.73-41.47-14.49a9.48 9.48 0 0 1 -.81-3.06 3.26 3.26 0 0 1 2.44-3.62 7.6 7.6 0 0 1 1.57-.28c1.07-.04 2.14-.01 4.69-.01z" fill="#fdfdfe"/><path d="m1458.27 1553.34c2.63 5.4 6 9.74 12.63 9.44s9.79-4.51 11.42-10.2a11.3 11.3 0 0 1 -2.6 9.75 12.14 12.14 0 0 1 -9 4.56c-6.72.35-11.49-4.77-12.45-13.55z" fill="#2d465e"/><path d="m1474.63 1552.6a5.05 5.05 0 0 1 -5.19 2.78c-1.83-.51-2.88-3.07-2.21-5.38.47-1.62 2.65-2.42 4.7-1.72 1.89.64 3.22 2.78 2.7 4.32z" fill="#fdfdfe"/></g></svg>